# WaveFront *.obj file (generated by Autodesk ATF)

mtllib screenTopMount.mtl

g Body1

v 5.000000 1.025000 -0.200259
v 5.000000 0.900000 1.299741
v 0.000000 0.900000 1.299741
v 0.000000 1.025000 -0.200259
v 5.000000 1.150000 -0.200259
v 5.000000 1.150000 1.549741
v 5.000000 2.145477 1.722450
v 5.000000 2.080058 2.970737
v 5.000000 1.955229 2.964195
v 5.000000 1.882736 1.959023
v 5.000000 -0.913427 1.812483
v 5.000000 -1.080124 2.604844
v 5.000000 -1.204953 2.598302
v 5.000000 -1.150000 1.549741
v 5.000000 -1.150000 0.799741
v 5.000000 -1.025000 0.799741
v 5.000000 -0.900000 1.299741
v 0.000000 -1.025000 0.799741
v 0.000000 -0.900000 1.299741
v 0.000000 -1.150000 0.799741
v 0.000000 1.955229 2.964195
v 0.000000 1.882736 1.959023
v 0.000000 2.080058 2.970737
v 0.000000 -0.913427 1.812483
v 0.000000 -1.080124 2.604844
v 0.000000 -1.204953 2.598302
v 0.000000 2.145477 1.722450
v 0.000000 1.150000 1.549741
v 0.000000 1.150000 -0.200259
v 0.000000 -1.150000 1.549741
vt 0.752600 5.000000 0.000000
vt -0.752600 5.000000 0.000000
vt 0.752600 0.000000 0.000000
vt -0.752600 0.000000 0.000000
vt 1.585498 0.554738 0.000000
vt 1.585498 0.679738 0.000000
vt 0.085498 0.429738 0.000000
vt -0.164502 0.679738 0.000000
vt -0.427244 -1.383689 0.000000
vt -0.573784 1.412474 0.000000
vt -0.337211 1.675215 0.000000
vt -1.585498 1.609795 0.000000
vt -1.578956 1.484966 0.000000
vt -1.219605 -1.550386 0.000000
vt -1.213063 -1.675215 0.000000
vt -0.164502 -1.620262 0.000000
vt 0.085498 -1.370262 0.000000
vt 0.585498 -1.620262 0.000000
vt 0.585498 -1.495262 0.000000
vt 0.257694 5.000000 0.000000
vt -0.257694 5.000000 0.000000
vt 0.257694 0.000000 0.000000
vt -0.257694 0.000000 0.000000
vt 0.125000 5.000000 0.000000
vt 0.000000 5.000000 0.000000
vt 0.125000 0.000000 0.000000
vt 0.000000 0.000000 0.000000
vt 0.503891 5.000000 0.000000
vt -0.503891 5.000000 0.000000
vt 0.503891 0.000000 0.000000
vt -0.503891 0.000000 0.000000
vt 0.125000 5.000000 0.000000
vt -0.000000 5.000000 0.000000
vt 0.125000 0.000000 0.000000
vt -0.000000 0.000000 0.000000
vt 0.404853 5.000000 0.000000
vt -0.404853 5.000000 0.000000
vt 0.404853 0.000000 0.000000
vt -0.404853 0.000000 0.000000
vt 0.125000 0.000000 0.000000
vt 0.250000 0.000000 0.000000
vt 0.125000 5.000000 0.000000
vt 0.250000 5.000000 0.000000
vt -0.000000 0.000000 0.000000
vt 2.800000 0.000000 0.000000
vt -0.000000 5.000000 0.000000
vt 2.800000 5.000000 0.000000
vt -0.000000 0.000000 0.000000
vt 1.250000 0.000000 0.000000
vt -0.000000 5.000000 0.000000
vt 1.250000 5.000000 0.000000
vt 0.000000 0.000000 0.000000
vt 1.010348 0.000000 0.000000
vt 0.000000 5.000000 0.000000
vt 1.010348 5.000000 0.000000
vt 0.000000 0.000000 0.000000
vt 1.750000 0.000000 0.000000
vt -0.000000 5.000000 0.000000
vt 1.750000 5.000000 0.000000
vt 0.125000 0.000000 0.000000
vt 0.250000 0.000000 0.000000
vt 0.125000 5.000000 0.000000
vt 0.250000 5.000000 0.000000
vt 0.000000 0.000000 0.000000
vt 1.800000 0.000000 0.000000
vt 0.000000 5.000000 0.000000
vt 1.800000 5.000000 0.000000
vt -0.000000 0.000000 0.000000
vt 0.750000 0.000000 0.000000
vt -0.000000 5.000000 0.000000
vt 0.750000 5.000000 0.000000
vt 0.000000 0.000000 0.000000
vt 1.050000 0.000000 0.000000
vt 0.000000 5.000000 0.000000
vt 1.050000 5.000000 0.000000
vt -0.554738 -1.585498 0.000000
vt -0.429738 -0.085498 0.000000
vt -0.679738 -1.585498 0.000000
vt -0.679738 0.164502 0.000000
vt 1.383689 0.427244 0.000000
vt -1.412474 0.573784 0.000000
vt 1.370262 -0.085498 0.000000
vt 1.620262 0.164502 0.000000
vt 1.675215 1.213063 0.000000
vt 1.495262 -0.585498 0.000000
vt 1.620262 -0.585498 0.000000
vt 1.550386 1.219605 0.000000
vt -1.484966 1.578956 0.000000
vt -1.609795 1.585498 0.000000
vt -1.675215 0.337211 0.000000
vn 0.000000 -0.996546 -0.083045
vn 0.000000 -0.996546 -0.083045
vn 0.000000 -0.996546 -0.083045
vn 0.000000 -0.996546 -0.083045
vn 1.000000 0.000000 0.000000
vn 1.000000 0.000000 0.000000
vn 1.000000 0.000000 0.000000
vn 1.000000 0.000000 0.000000
vn 1.000000 0.000000 0.000000
vn 1.000000 0.000000 0.000000
vn 1.000000 0.000000 0.000000
vn 1.000000 0.000000 0.000000
vn 1.000000 0.000000 0.000000
vn 1.000000 0.000000 0.000000
vn 1.000000 0.000000 0.000000
vn 1.000000 0.000000 0.000000
vn 1.000000 0.000000 0.000000
vn 1.000000 0.000000 0.000000
vn 1.000000 0.000000 0.000000
vn 0.000000 0.970143 -0.242536
vn 0.000000 0.970143 -0.242536
vn 0.000000 0.970143 -0.242536
vn 0.000000 0.970143 -0.242536
vn 0.000000 0.000000 -1.000000
vn 0.000000 0.000000 -1.000000
vn 0.000000 0.000000 -1.000000
vn 0.000000 0.000000 -1.000000
vn 0.000000 -0.997409 0.071933
vn 0.000000 -0.997409 0.071933
vn 0.000000 -0.997409 0.071933
vn 0.000000 -0.997409 0.071933
vn 0.000000 -0.052336 0.998630
vn 0.000000 -0.052336 0.998630
vn 0.000000 -0.052336 0.998630
vn 0.000000 -0.052336 0.998630
vn -0.000000 0.978579 0.205874
vn -0.000000 0.978579 0.205874
vn -0.000000 0.978579 0.205874
vn -0.000000 0.978579 0.205874
vn 0.000000 -0.052336 0.998630
vn 0.000000 -0.052336 0.998630
vn 0.000000 -0.052336 0.998630
vn 0.000000 -0.052336 0.998630
vn 0.000000 -0.052336 0.998630
vn 0.000000 -0.052336 0.998630
vn 0.000000 -0.052336 0.998630
vn 0.000000 -0.052336 0.998630
vn -0.000000 0.998630 0.052336
vn -0.000000 0.998630 0.052336
vn -0.000000 0.998630 0.052336
vn -0.000000 0.998630 0.052336
vn 0.000000 0.170940 -0.985281
vn 0.000000 0.170940 -0.985281
vn 0.000000 0.170940 -0.985281
vn 0.000000 0.170940 -0.985281
vn -0.000000 1.000000 0.000000
vn -0.000000 1.000000 0.000000
vn -0.000000 1.000000 0.000000
vn -0.000000 1.000000 0.000000
vn 0.000000 0.000000 -1.000000
vn 0.000000 0.000000 -1.000000
vn 0.000000 0.000000 -1.000000
vn 0.000000 0.000000 -1.000000
vn 0.000000 0.000000 -1.000000
vn 0.000000 0.000000 -1.000000
vn 0.000000 0.000000 -1.000000
vn 0.000000 0.000000 -1.000000
vn 0.000000 -1.000000 0.000000
vn 0.000000 -1.000000 0.000000
vn 0.000000 -1.000000 0.000000
vn 0.000000 -1.000000 0.000000
vn 0.000000 -0.998630 -0.052336
vn 0.000000 -0.998630 -0.052336
vn 0.000000 -0.998630 -0.052336
vn 0.000000 -0.998630 -0.052336
vn -1.000000 -0.000000 -0.000000
vn -1.000000 -0.000000 -0.000000
vn -1.000000 -0.000000 -0.000000
vn -1.000000 -0.000000 -0.000000
vn -1.000000 -0.000000 -0.000000
vn -1.000000 -0.000000 -0.000000
vn -1.000000 -0.000000 -0.000000
vn -1.000000 -0.000000 -0.000000
vn -1.000000 -0.000000 -0.000000
vn -1.000000 -0.000000 -0.000000
vn -1.000000 -0.000000 -0.000000
vn -1.000000 -0.000000 -0.000000
vn -1.000000 -0.000000 -0.000000
vn -1.000000 -0.000000 -0.000000
vn -1.000000 -0.000000 -0.000000
usemtl Steel_-_Satin
f 1/1/1 2/2/2 4/3/3
f 4/3/3 2/2/2 3/4/4
f 1/5/5 5/6/6 2/7/7
f 2/7/7 5/6/6 6/8/8
f 2/7/7 6/8/8 11/9/9
f 11/9/9 6/8/8 10/10/10
f 10/10/10 6/8/8 7/11/11
f 10/10/10 7/11/11 8/12/12
f 8/12/12 9/13/13 10/10/10
f 12/14/14 13/15/15 11/9/9
f 11/9/9 13/15/15 14/16/16
f 11/9/9 14/16/16 17/17/17
f 17/17/17 14/16/16 15/18/18
f 17/17/17 15/18/18 16/19/19
f 17/17/17 2/7/7 11/9/9
f 17/20/20 16/21/21 19/22/22
f 19/22/22 16/21/21 18/23/23
f 16/24/24 15/25/25 18/26/26
f 18/26/26 15/25/25 20/27/27
f 10/28/28 9/29/29 22/30/30
f 22/30/30 9/29/29 21/31/31
f 9/32/32 8/33/33 21/34/34
f 21/34/34 8/33/33 23/35/35
f 12/36/36 11/37/37 25/38/38
f 25/38/38 11/37/37 24/39/39
f 25/40/40 26/41/41 12/42/42
f 12/42/42 26/41/41 13/43/43
f 22/44/44 24/45/45 10/46/46
f 10/46/46 24/45/45 11/47/47
f 27/48/48 23/49/49 7/50/50
f 7/50/50 23/49/49 8/51/51
f 28/52/52 27/53/53 6/54/54
f 6/54/54 27/53/53 7/55/55
f 29/56/56 28/57/57 5/58/58
f 5/58/58 28/57/57 6/59/59
f 4/60/60 29/61/61 1/62/62
f 1/62/62 29/61/61 5/63/63
f 19/64/64 3/65/65 17/66/66
f 17/66/66 3/65/65 2/67/67
f 30/68/68 20/69/69 14/70/70
f 14/70/70 20/69/69 15/71/71
f 26/72/72 30/73/73 13/74/74
f 13/74/74 30/73/73 14/75/75
f 4/76/76 3/77/77 29/78/78
f 29/78/78 3/77/77 28/79/79
f 28/79/79 3/77/77 24/80/80
f 28/79/79 24/80/80 22/81/81
f 3/77/77 19/82/82 24/80/80
f 24/80/80 19/82/82 30/83/83
f 24/80/80 30/83/83 26/84/84
f 18/85/85 20/86/86 19/82/82
f 19/82/82 20/86/86 30/83/83
f 26/84/84 25/87/87 24/80/80
f 21/88/88 23/89/89 22/81/81
f 22/81/81 23/89/89 27/90/90
f 22/81/81 27/90/90 28/79/79
# 30 vertices
# 90 texture params
# 90 normals
# 56 facets

# 1 groups
