ISO-10303-21;
HEADER;
/* Generated by software containing ST-Developer
 * from STEP Tools, Inc. (www.steptools.com) 
 */

FILE_DESCRIPTION(
/* description */ (''),
/* implementation_level */ '2;1');

FILE_NAME(
/* name */ 'cableClipScrew.step',
/* time_stamp */ '2026-10-07T16:14:42+01:00',
/* author */ (''),
/* organization */ (''),
/* preprocessor_version */ 'ST-DEVELOPER v20.1',
/* originating_system */ 'Autodesk Translation Framework v15.8.0.0',
/* authorisation */ '');

FILE_SCHEMA (('AUTOMOTIVE_DESIGN { 1 0 10303 214 3 1 1 }'));
ENDSEC;

DATA;
#10=MECHANICAL_DESIGN_GEOMETRIC_PRESENTATION_REPRESENTATION('',(#13),#819);
#11=SHAPE_REPRESENTATION_RELATIONSHIP('SRR','None',#826,#12);
#12=ADVANCED_BREP_SHAPE_REPRESENTATION('',(#14),#818);
#13=STYLED_ITEM('',(#835),#14);
#14=MANIFOLD_SOLID_BREP('Body1',#467);
#15=FACE_BOUND('',#68,.T.);
#16=FACE_BOUND('',#73,.T.);
#17=FACE_BOUND('',#78,.T.);
#18=PLANE('',#484);
#19=PLANE('',#488);
#20=PLANE('',#492);
#21=PLANE('',#496);
#22=PLANE('',#500);
#23=PLANE('',#514);
#24=PLANE('',#523);
#25=PLANE('',#526);
#26=PLANE('',#529);
#27=PLANE('',#532);
#28=PLANE('',#533);
#29=FACE_OUTER_BOUND('',#54,.T.);
#30=FACE_OUTER_BOUND('',#55,.T.);
#31=FACE_OUTER_BOUND('',#56,.T.);
#32=FACE_OUTER_BOUND('',#57,.T.);
#33=FACE_OUTER_BOUND('',#58,.T.);
#34=FACE_OUTER_BOUND('',#59,.T.);
#35=FACE_OUTER_BOUND('',#60,.T.);
#36=FACE_OUTER_BOUND('',#61,.T.);
#37=FACE_OUTER_BOUND('',#62,.T.);
#38=FACE_OUTER_BOUND('',#63,.T.);
#39=FACE_OUTER_BOUND('',#64,.T.);
#40=FACE_OUTER_BOUND('',#65,.T.);
#41=FACE_OUTER_BOUND('',#66,.T.);
#42=FACE_OUTER_BOUND('',#67,.T.);
#43=FACE_OUTER_BOUND('',#69,.T.);
#44=FACE_OUTER_BOUND('',#70,.T.);
#45=FACE_OUTER_BOUND('',#71,.T.);
#46=FACE_OUTER_BOUND('',#72,.T.);
#47=FACE_OUTER_BOUND('',#74,.T.);
#48=FACE_OUTER_BOUND('',#75,.T.);
#49=FACE_OUTER_BOUND('',#76,.T.);
#50=FACE_OUTER_BOUND('',#77,.T.);
#51=FACE_OUTER_BOUND('',#79,.T.);
#52=FACE_OUTER_BOUND('',#80,.T.);
#53=FACE_OUTER_BOUND('',#81,.T.);
#54=EDGE_LOOP('',(#296,#297,#298,#299));
#55=EDGE_LOOP('',(#300,#301,#302,#303));
#56=EDGE_LOOP('',(#304,#305,#306,#307));
#57=EDGE_LOOP('',(#308,#309,#310,#311));
#58=EDGE_LOOP('',(#312,#313,#314,#315));
#59=EDGE_LOOP('',(#316,#317,#318,#319));
#60=EDGE_LOOP('',(#320,#321,#322,#323));
#61=EDGE_LOOP('',(#324,#325,#326,#327));
#62=EDGE_LOOP('',(#328,#329,#330,#331));
#63=EDGE_LOOP('',(#332,#333,#334,#335,#336,#337,#338,#339,#340,#341,#342,
#343,#344,#345,#346,#347,#348,#349,#350,#351));
#64=EDGE_LOOP('',(#352,#353,#354,#355));
#65=EDGE_LOOP('',(#356,#357,#358,#359));
#66=EDGE_LOOP('',(#360,#361,#362,#363));
#67=EDGE_LOOP('',(#364,#365,#366,#367));
#68=EDGE_LOOP('',(#368));
#69=EDGE_LOOP('',(#369,#370,#371,#372));
#70=EDGE_LOOP('',(#373,#374,#375,#376));
#71=EDGE_LOOP('',(#377,#378,#379,#380));
#72=EDGE_LOOP('',(#381));
#73=EDGE_LOOP('',(#382));
#74=EDGE_LOOP('',(#383,#384,#385,#386));
#75=EDGE_LOOP('',(#387,#388,#389,#390));
#76=EDGE_LOOP('',(#391,#392,#393,#394));
#77=EDGE_LOOP('',(#395,#396,#397,#398));
#78=EDGE_LOOP('',(#399));
#79=EDGE_LOOP('',(#400,#401,#402,#403));
#80=EDGE_LOOP('',(#404,#405,#406,#407));
#81=EDGE_LOOP('',(#408,#409,#410,#411,#412,#413,#414,#415,#416,#417,#418,
#419,#420,#421,#422,#423,#424,#425,#426,#427));
#82=LINE('',#686,#120);
#83=LINE('',#689,#121);
#84=LINE('',#692,#122);
#85=LINE('',#694,#123);
#86=LINE('',#695,#124);
#87=LINE('',#701,#125);
#88=LINE('',#704,#126);
#89=LINE('',#707,#127);
#90=LINE('',#709,#128);
#91=LINE('',#710,#129);
#92=LINE('',#716,#130);
#93=LINE('',#719,#131);
#94=LINE('',#721,#132);
#95=LINE('',#722,#133);
#96=LINE('',#727,#134);
#97=LINE('',#731,#135);
#98=LINE('',#733,#136);
#99=LINE('',#734,#137);
#100=LINE('',#740,#138);
#101=LINE('',#743,#139);
#102=LINE('',#746,#140);
#103=LINE('',#749,#141);
#104=LINE('',#757,#142);
#105=LINE('',#763,#143);
#106=LINE('',#766,#144);
#107=LINE('',#769,#145);
#108=LINE('',#772,#146);
#109=LINE('',#777,#147);
#110=LINE('',#779,#148);
#111=LINE('',#786,#149);
#112=LINE('',#787,#150);
#113=LINE('',#791,#151);
#114=LINE('',#796,#152);
#115=LINE('',#802,#153);
#116=LINE('',#805,#154);
#117=LINE('',#806,#155);
#118=LINE('',#810,#156);
#119=LINE('',#814,#157);
#120=VECTOR('',#540,10.);
#121=VECTOR('',#543,10.);
#122=VECTOR('',#546,10.);
#123=VECTOR('',#547,10.);
#124=VECTOR('',#548,10.);
#125=VECTOR('',#553,10.);
#126=VECTOR('',#556,10.);
#127=VECTOR('',#559,10.);
#128=VECTOR('',#560,10.);
#129=VECTOR('',#561,10.);
#130=VECTOR('',#566,10.);
#131=VECTOR('',#569,10.);
#132=VECTOR('',#572,10.);
#133=VECTOR('',#573,10.);
#134=VECTOR('',#578,10.);
#135=VECTOR('',#583,10.);
#136=VECTOR('',#584,10.);
#137=VECTOR('',#585,10.);
#138=VECTOR('',#590,10.);
#139=VECTOR('',#593,10.);
#140=VECTOR('',#596,10.);
#141=VECTOR('',#599,10.);
#142=VECTOR('',#606,10.);
#143=VECTOR('',#613,10.);
#144=VECTOR('',#616,2.);
#145=VECTOR('',#619,10.);
#146=VECTOR('',#622,10.);
#147=VECTOR('',#629,10.);
#148=VECTOR('',#632,10.);
#149=VECTOR('',#639,2.);
#150=VECTOR('',#640,10.);
#151=VECTOR('',#645,10.);
#152=VECTOR('',#650,4.);
#153=VECTOR('',#659,2.);
#154=VECTOR('',#662,10.);
#155=VECTOR('',#663,10.);
#156=VECTOR('',#670,10.);
#157=VECTOR('',#677,10.);
#158=CIRCLE('',#482,1.);
#159=CIRCLE('',#483,1.);
#160=CIRCLE('',#486,1.);
#161=CIRCLE('',#487,1.);
#162=CIRCLE('',#490,2.75);
#163=CIRCLE('',#491,2.75);
#164=CIRCLE('',#494,2.75);
#165=CIRCLE('',#495,2.75);
#166=CIRCLE('',#498,2.);
#167=CIRCLE('',#499,2.);
#168=CIRCLE('',#501,2.);
#169=CIRCLE('',#502,2.75);
#170=CIRCLE('',#503,2.);
#171=CIRCLE('',#504,4.75000000000467);
#172=CIRCLE('',#505,4.75000000000578);
#173=CIRCLE('',#506,2.);
#174=CIRCLE('',#507,2.75000000000103);
#175=CIRCLE('',#509,2.);
#176=CIRCLE('',#511,4.75000000000578);
#177=CIRCLE('',#513,2.);
#178=CIRCLE('',#515,2.);
#179=CIRCLE('',#517,2.);
#180=CIRCLE('',#519,4.75000000000467);
#181=CIRCLE('',#521,4.);
#182=CIRCLE('',#522,4.);
#183=CIRCLE('',#524,2.);
#184=CIRCLE('',#528,2.75);
#185=CIRCLE('',#531,2.75000000000103);
#186=VERTEX_POINT('',#682);
#187=VERTEX_POINT('',#683);
#188=VERTEX_POINT('',#685);
#189=VERTEX_POINT('',#687);
#190=VERTEX_POINT('',#691);
#191=VERTEX_POINT('',#693);
#192=VERTEX_POINT('',#697);
#193=VERTEX_POINT('',#698);
#194=VERTEX_POINT('',#700);
#195=VERTEX_POINT('',#702);
#196=VERTEX_POINT('',#706);
#197=VERTEX_POINT('',#708);
#198=VERTEX_POINT('',#712);
#199=VERTEX_POINT('',#713);
#200=VERTEX_POINT('',#715);
#201=VERTEX_POINT('',#717);
#202=VERTEX_POINT('',#724);
#203=VERTEX_POINT('',#726);
#204=VERTEX_POINT('',#730);
#205=VERTEX_POINT('',#732);
#206=VERTEX_POINT('',#736);
#207=VERTEX_POINT('',#737);
#208=VERTEX_POINT('',#739);
#209=VERTEX_POINT('',#741);
#210=VERTEX_POINT('',#745);
#211=VERTEX_POINT('',#748);
#212=VERTEX_POINT('',#750);
#213=VERTEX_POINT('',#752);
#214=VERTEX_POINT('',#754);
#215=VERTEX_POINT('',#756);
#216=VERTEX_POINT('',#758);
#217=VERTEX_POINT('',#760);
#218=VERTEX_POINT('',#765);
#219=VERTEX_POINT('',#767);
#220=VERTEX_POINT('',#771);
#221=VERTEX_POINT('',#775);
#222=VERTEX_POINT('',#780);
#223=VERTEX_POINT('',#783);
#224=VERTEX_POINT('',#784);
#225=VERTEX_POINT('',#789);
#226=VERTEX_POINT('',#793);
#227=VERTEX_POINT('',#795);
#228=VERTEX_POINT('',#799);
#229=VERTEX_POINT('',#804);
#230=EDGE_CURVE('',#186,#187,#158,.T.);
#231=EDGE_CURVE('',#187,#188,#82,.T.);
#232=EDGE_CURVE('',#188,#189,#159,.T.);
#233=EDGE_CURVE('',#189,#186,#83,.T.);
#234=EDGE_CURVE('',#190,#187,#84,.T.);
#235=EDGE_CURVE('',#190,#191,#85,.T.);
#236=EDGE_CURVE('',#188,#191,#86,.T.);
#237=EDGE_CURVE('',#192,#193,#160,.T.);
#238=EDGE_CURVE('',#193,#194,#87,.T.);
#239=EDGE_CURVE('',#194,#195,#161,.T.);
#240=EDGE_CURVE('',#195,#192,#88,.T.);
#241=EDGE_CURVE('',#193,#196,#89,.T.);
#242=EDGE_CURVE('',#197,#196,#90,.T.);
#243=EDGE_CURVE('',#194,#197,#91,.T.);
#244=EDGE_CURVE('',#198,#199,#162,.T.);
#245=EDGE_CURVE('',#199,#200,#92,.T.);
#246=EDGE_CURVE('',#200,#201,#163,.T.);
#247=EDGE_CURVE('',#201,#198,#93,.T.);
#248=EDGE_CURVE('',#200,#189,#94,.T.);
#249=EDGE_CURVE('',#199,#186,#95,.T.);
#250=EDGE_CURVE('',#196,#202,#164,.T.);
#251=EDGE_CURVE('',#202,#203,#96,.T.);
#252=EDGE_CURVE('',#203,#197,#165,.T.);
#253=EDGE_CURVE('',#204,#202,#97,.T.);
#254=EDGE_CURVE('',#204,#205,#98,.T.);
#255=EDGE_CURVE('',#203,#205,#99,.T.);
#256=EDGE_CURVE('',#206,#207,#166,.T.);
#257=EDGE_CURVE('',#207,#208,#100,.T.);
#258=EDGE_CURVE('',#208,#209,#167,.T.);
#259=EDGE_CURVE('',#209,#206,#101,.T.);
#260=EDGE_CURVE('',#210,#208,#102,.T.);
#261=EDGE_CURVE('',#190,#210,#168,.T.);
#262=EDGE_CURVE('',#198,#211,#103,.T.);
#263=EDGE_CURVE('',#211,#212,#169,.T.);
#264=EDGE_CURVE('',#213,#212,#170,.T.);
#265=EDGE_CURVE('',#214,#213,#171,.T.);
#266=EDGE_CURVE('',#215,#214,#104,.T.);
#267=EDGE_CURVE('',#216,#215,#172,.T.);
#268=EDGE_CURVE('',#217,#216,#173,.T.);
#269=EDGE_CURVE('',#217,#204,#174,.T.);
#270=EDGE_CURVE('',#192,#209,#105,.T.);
#271=EDGE_CURVE('',#216,#218,#106,.T.);
#272=EDGE_CURVE('',#218,#219,#175,.T.);
#273=EDGE_CURVE('',#217,#219,#107,.T.);
#274=EDGE_CURVE('',#215,#220,#108,.T.);
#275=EDGE_CURVE('',#218,#220,#176,.T.);
#276=EDGE_CURVE('',#221,#191,#177,.T.);
#277=EDGE_CURVE('',#210,#221,#109,.T.);
#278=EDGE_CURVE('',#221,#207,#110,.T.);
#279=EDGE_CURVE('',#222,#222,#178,.T.);
#280=EDGE_CURVE('',#223,#224,#179,.T.);
#281=EDGE_CURVE('',#224,#213,#111,.T.);
#282=EDGE_CURVE('',#212,#223,#112,.T.);
#283=EDGE_CURVE('',#225,#224,#180,.T.);
#284=EDGE_CURVE('',#214,#225,#113,.T.);
#285=EDGE_CURVE('',#226,#226,#181,.T.);
#286=EDGE_CURVE('',#226,#227,#114,.T.);
#287=EDGE_CURVE('',#227,#227,#182,.T.);
#288=EDGE_CURVE('',#228,#228,#183,.T.);
#289=EDGE_CURVE('',#228,#222,#115,.T.);
#290=EDGE_CURVE('',#229,#201,#116,.T.);
#291=EDGE_CURVE('',#211,#229,#117,.T.);
#292=EDGE_CURVE('',#223,#229,#184,.T.);
#293=EDGE_CURVE('',#220,#225,#118,.T.);
#294=EDGE_CURVE('',#205,#219,#185,.T.);
#295=EDGE_CURVE('',#206,#195,#119,.T.);
#296=ORIENTED_EDGE('',*,*,#230,.T.);
#297=ORIENTED_EDGE('',*,*,#231,.T.);
#298=ORIENTED_EDGE('',*,*,#232,.T.);
#299=ORIENTED_EDGE('',*,*,#233,.T.);
#300=ORIENTED_EDGE('',*,*,#231,.F.);
#301=ORIENTED_EDGE('',*,*,#234,.F.);
#302=ORIENTED_EDGE('',*,*,#235,.T.);
#303=ORIENTED_EDGE('',*,*,#236,.F.);
#304=ORIENTED_EDGE('',*,*,#237,.T.);
#305=ORIENTED_EDGE('',*,*,#238,.T.);
#306=ORIENTED_EDGE('',*,*,#239,.T.);
#307=ORIENTED_EDGE('',*,*,#240,.T.);
#308=ORIENTED_EDGE('',*,*,#238,.F.);
#309=ORIENTED_EDGE('',*,*,#241,.T.);
#310=ORIENTED_EDGE('',*,*,#242,.F.);
#311=ORIENTED_EDGE('',*,*,#243,.F.);
#312=ORIENTED_EDGE('',*,*,#244,.T.);
#313=ORIENTED_EDGE('',*,*,#245,.T.);
#314=ORIENTED_EDGE('',*,*,#246,.T.);
#315=ORIENTED_EDGE('',*,*,#247,.T.);
#316=ORIENTED_EDGE('',*,*,#233,.F.);
#317=ORIENTED_EDGE('',*,*,#248,.F.);
#318=ORIENTED_EDGE('',*,*,#245,.F.);
#319=ORIENTED_EDGE('',*,*,#249,.T.);
#320=ORIENTED_EDGE('',*,*,#250,.T.);
#321=ORIENTED_EDGE('',*,*,#251,.T.);
#322=ORIENTED_EDGE('',*,*,#252,.T.);
#323=ORIENTED_EDGE('',*,*,#242,.T.);
#324=ORIENTED_EDGE('',*,*,#251,.F.);
#325=ORIENTED_EDGE('',*,*,#253,.F.);
#326=ORIENTED_EDGE('',*,*,#254,.T.);
#327=ORIENTED_EDGE('',*,*,#255,.F.);
#328=ORIENTED_EDGE('',*,*,#256,.T.);
#329=ORIENTED_EDGE('',*,*,#257,.T.);
#330=ORIENTED_EDGE('',*,*,#258,.T.);
#331=ORIENTED_EDGE('',*,*,#259,.T.);
#332=ORIENTED_EDGE('',*,*,#258,.F.);
#333=ORIENTED_EDGE('',*,*,#260,.F.);
#334=ORIENTED_EDGE('',*,*,#261,.F.);
#335=ORIENTED_EDGE('',*,*,#234,.T.);
#336=ORIENTED_EDGE('',*,*,#230,.F.);
#337=ORIENTED_EDGE('',*,*,#249,.F.);
#338=ORIENTED_EDGE('',*,*,#244,.F.);
#339=ORIENTED_EDGE('',*,*,#262,.T.);
#340=ORIENTED_EDGE('',*,*,#263,.T.);
#341=ORIENTED_EDGE('',*,*,#264,.F.);
#342=ORIENTED_EDGE('',*,*,#265,.F.);
#343=ORIENTED_EDGE('',*,*,#266,.F.);
#344=ORIENTED_EDGE('',*,*,#267,.F.);
#345=ORIENTED_EDGE('',*,*,#268,.F.);
#346=ORIENTED_EDGE('',*,*,#269,.T.);
#347=ORIENTED_EDGE('',*,*,#253,.T.);
#348=ORIENTED_EDGE('',*,*,#250,.F.);
#349=ORIENTED_EDGE('',*,*,#241,.F.);
#350=ORIENTED_EDGE('',*,*,#237,.F.);
#351=ORIENTED_EDGE('',*,*,#270,.T.);
#352=ORIENTED_EDGE('',*,*,#268,.T.);
#353=ORIENTED_EDGE('',*,*,#271,.T.);
#354=ORIENTED_EDGE('',*,*,#272,.T.);
#355=ORIENTED_EDGE('',*,*,#273,.F.);
#356=ORIENTED_EDGE('',*,*,#271,.F.);
#357=ORIENTED_EDGE('',*,*,#267,.T.);
#358=ORIENTED_EDGE('',*,*,#274,.T.);
#359=ORIENTED_EDGE('',*,*,#275,.F.);
#360=ORIENTED_EDGE('',*,*,#276,.T.);
#361=ORIENTED_EDGE('',*,*,#235,.F.);
#362=ORIENTED_EDGE('',*,*,#261,.T.);
#363=ORIENTED_EDGE('',*,*,#277,.T.);
#364=ORIENTED_EDGE('',*,*,#257,.F.);
#365=ORIENTED_EDGE('',*,*,#278,.F.);
#366=ORIENTED_EDGE('',*,*,#277,.F.);
#367=ORIENTED_EDGE('',*,*,#260,.T.);
#368=ORIENTED_EDGE('',*,*,#279,.T.);
#369=ORIENTED_EDGE('',*,*,#280,.T.);
#370=ORIENTED_EDGE('',*,*,#281,.T.);
#371=ORIENTED_EDGE('',*,*,#264,.T.);
#372=ORIENTED_EDGE('',*,*,#282,.T.);
#373=ORIENTED_EDGE('',*,*,#281,.F.);
#374=ORIENTED_EDGE('',*,*,#283,.F.);
#375=ORIENTED_EDGE('',*,*,#284,.F.);
#376=ORIENTED_EDGE('',*,*,#265,.T.);
#377=ORIENTED_EDGE('',*,*,#285,.F.);
#378=ORIENTED_EDGE('',*,*,#286,.T.);
#379=ORIENTED_EDGE('',*,*,#287,.T.);
#380=ORIENTED_EDGE('',*,*,#286,.F.);
#381=ORIENTED_EDGE('',*,*,#287,.F.);
#382=ORIENTED_EDGE('',*,*,#288,.F.);
#383=ORIENTED_EDGE('',*,*,#288,.T.);
#384=ORIENTED_EDGE('',*,*,#289,.T.);
#385=ORIENTED_EDGE('',*,*,#279,.F.);
#386=ORIENTED_EDGE('',*,*,#289,.F.);
#387=ORIENTED_EDGE('',*,*,#247,.F.);
#388=ORIENTED_EDGE('',*,*,#290,.F.);
#389=ORIENTED_EDGE('',*,*,#291,.F.);
#390=ORIENTED_EDGE('',*,*,#262,.F.);
#391=ORIENTED_EDGE('',*,*,#263,.F.);
#392=ORIENTED_EDGE('',*,*,#291,.T.);
#393=ORIENTED_EDGE('',*,*,#292,.F.);
#394=ORIENTED_EDGE('',*,*,#282,.F.);
#395=ORIENTED_EDGE('',*,*,#266,.T.);
#396=ORIENTED_EDGE('',*,*,#284,.T.);
#397=ORIENTED_EDGE('',*,*,#293,.F.);
#398=ORIENTED_EDGE('',*,*,#274,.F.);
#399=ORIENTED_EDGE('',*,*,#285,.T.);
#400=ORIENTED_EDGE('',*,*,#269,.F.);
#401=ORIENTED_EDGE('',*,*,#273,.T.);
#402=ORIENTED_EDGE('',*,*,#294,.F.);
#403=ORIENTED_EDGE('',*,*,#254,.F.);
#404=ORIENTED_EDGE('',*,*,#240,.F.);
#405=ORIENTED_EDGE('',*,*,#295,.F.);
#406=ORIENTED_EDGE('',*,*,#259,.F.);
#407=ORIENTED_EDGE('',*,*,#270,.F.);
#408=ORIENTED_EDGE('',*,*,#256,.F.);
#409=ORIENTED_EDGE('',*,*,#295,.T.);
#410=ORIENTED_EDGE('',*,*,#239,.F.);
#411=ORIENTED_EDGE('',*,*,#243,.T.);
#412=ORIENTED_EDGE('',*,*,#252,.F.);
#413=ORIENTED_EDGE('',*,*,#255,.T.);
#414=ORIENTED_EDGE('',*,*,#294,.T.);
#415=ORIENTED_EDGE('',*,*,#272,.F.);
#416=ORIENTED_EDGE('',*,*,#275,.T.);
#417=ORIENTED_EDGE('',*,*,#293,.T.);
#418=ORIENTED_EDGE('',*,*,#283,.T.);
#419=ORIENTED_EDGE('',*,*,#280,.F.);
#420=ORIENTED_EDGE('',*,*,#292,.T.);
#421=ORIENTED_EDGE('',*,*,#290,.T.);
#422=ORIENTED_EDGE('',*,*,#246,.F.);
#423=ORIENTED_EDGE('',*,*,#248,.T.);
#424=ORIENTED_EDGE('',*,*,#232,.F.);
#425=ORIENTED_EDGE('',*,*,#236,.T.);
#426=ORIENTED_EDGE('',*,*,#276,.F.);
#427=ORIENTED_EDGE('',*,*,#278,.T.);
#428=CYLINDRICAL_SURFACE('',#481,1.);
#429=CYLINDRICAL_SURFACE('',#485,1.);
#430=CYLINDRICAL_SURFACE('',#489,2.75);
#431=CYLINDRICAL_SURFACE('',#493,2.75);
#432=CYLINDRICAL_SURFACE('',#497,2.);
#433=CYLINDRICAL_SURFACE('',#508,2.);
#434=CYLINDRICAL_SURFACE('',#510,4.75000000000578);
#435=CYLINDRICAL_SURFACE('',#512,2.);
#436=CYLINDRICAL_SURFACE('',#516,2.);
#437=CYLINDRICAL_SURFACE('',#518,4.75000000000467);
#438=CYLINDRICAL_SURFACE('',#520,4.);
#439=CYLINDRICAL_SURFACE('',#525,2.);
#440=CYLINDRICAL_SURFACE('',#527,2.75);
#441=CYLINDRICAL_SURFACE('',#530,2.75000000000103);
#442=ADVANCED_FACE('',(#29),#428,.F.);
#443=ADVANCED_FACE('',(#30),#18,.T.);
#444=ADVANCED_FACE('',(#31),#429,.F.);
#445=ADVANCED_FACE('',(#32),#19,.T.);
#446=ADVANCED_FACE('',(#33),#430,.F.);
#447=ADVANCED_FACE('',(#34),#20,.T.);
#448=ADVANCED_FACE('',(#35),#431,.F.);
#449=ADVANCED_FACE('',(#36),#21,.T.);
#450=ADVANCED_FACE('',(#37),#432,.T.);
#451=ADVANCED_FACE('',(#38),#22,.F.);
#452=ADVANCED_FACE('',(#39),#433,.T.);
#453=ADVANCED_FACE('',(#40),#434,.T.);
#454=ADVANCED_FACE('',(#41),#435,.T.);
#455=ADVANCED_FACE('',(#42,#15),#23,.T.);
#456=ADVANCED_FACE('',(#43),#436,.T.);
#457=ADVANCED_FACE('',(#44),#437,.T.);
#458=ADVANCED_FACE('',(#45),#438,.F.);
#459=ADVANCED_FACE('',(#46,#16),#24,.T.);
#460=ADVANCED_FACE('',(#47),#439,.F.);
#461=ADVANCED_FACE('',(#48),#25,.T.);
#462=ADVANCED_FACE('',(#49),#440,.F.);
#463=ADVANCED_FACE('',(#50,#17),#26,.T.);
#464=ADVANCED_FACE('',(#51),#441,.F.);
#465=ADVANCED_FACE('',(#52),#27,.T.);
#466=ADVANCED_FACE('',(#53),#28,.T.);
#467=CLOSED_SHELL('',(#442,#443,#444,#445,#446,#447,#448,#449,#450,#451,
#452,#453,#454,#455,#456,#457,#458,#459,#460,#461,#462,#463,#464,#465,#466));
#468=DERIVED_UNIT_ELEMENT(#470,1.);
#469=DERIVED_UNIT_ELEMENT(#821,-3.);
#470=(
MASS_UNIT()
NAMED_UNIT(*)
SI_UNIT(.KILO.,.GRAM.)
);
#471=DERIVED_UNIT((#468,#469));
#472=MEASURE_REPRESENTATION_ITEM('density measure',
POSITIVE_RATIO_MEASURE(7850.),#471);
#473=PROPERTY_DEFINITION_REPRESENTATION(#478,#475);
#474=PROPERTY_DEFINITION_REPRESENTATION(#479,#476);
#475=REPRESENTATION('material name',(#477),#818);
#476=REPRESENTATION('density',(#472),#818);
#477=DESCRIPTIVE_REPRESENTATION_ITEM('Steel','Steel');
#478=PROPERTY_DEFINITION('material property','material name',#828);
#479=PROPERTY_DEFINITION('material property','density of part',#828);
#480=AXIS2_PLACEMENT_3D('',#680,#534,#535);
#481=AXIS2_PLACEMENT_3D('',#681,#536,#537);
#482=AXIS2_PLACEMENT_3D('',#684,#538,#539);
#483=AXIS2_PLACEMENT_3D('',#688,#541,#542);
#484=AXIS2_PLACEMENT_3D('',#690,#544,#545);
#485=AXIS2_PLACEMENT_3D('',#696,#549,#550);
#486=AXIS2_PLACEMENT_3D('',#699,#551,#552);
#487=AXIS2_PLACEMENT_3D('',#703,#554,#555);
#488=AXIS2_PLACEMENT_3D('',#705,#557,#558);
#489=AXIS2_PLACEMENT_3D('',#711,#562,#563);
#490=AXIS2_PLACEMENT_3D('',#714,#564,#565);
#491=AXIS2_PLACEMENT_3D('',#718,#567,#568);
#492=AXIS2_PLACEMENT_3D('',#720,#570,#571);
#493=AXIS2_PLACEMENT_3D('',#723,#574,#575);
#494=AXIS2_PLACEMENT_3D('',#725,#576,#577);
#495=AXIS2_PLACEMENT_3D('',#728,#579,#580);
#496=AXIS2_PLACEMENT_3D('',#729,#581,#582);
#497=AXIS2_PLACEMENT_3D('',#735,#586,#587);
#498=AXIS2_PLACEMENT_3D('',#738,#588,#589);
#499=AXIS2_PLACEMENT_3D('',#742,#591,#592);
#500=AXIS2_PLACEMENT_3D('',#744,#594,#595);
#501=AXIS2_PLACEMENT_3D('',#747,#597,#598);
#502=AXIS2_PLACEMENT_3D('',#751,#600,#601);
#503=AXIS2_PLACEMENT_3D('',#753,#602,#603);
#504=AXIS2_PLACEMENT_3D('',#755,#604,#605);
#505=AXIS2_PLACEMENT_3D('',#759,#607,#608);
#506=AXIS2_PLACEMENT_3D('',#761,#609,#610);
#507=AXIS2_PLACEMENT_3D('',#762,#611,#612);
#508=AXIS2_PLACEMENT_3D('',#764,#614,#615);
#509=AXIS2_PLACEMENT_3D('',#768,#617,#618);
#510=AXIS2_PLACEMENT_3D('',#770,#620,#621);
#511=AXIS2_PLACEMENT_3D('',#773,#623,#624);
#512=AXIS2_PLACEMENT_3D('',#774,#625,#626);
#513=AXIS2_PLACEMENT_3D('',#776,#627,#628);
#514=AXIS2_PLACEMENT_3D('',#778,#630,#631);
#515=AXIS2_PLACEMENT_3D('',#781,#633,#634);
#516=AXIS2_PLACEMENT_3D('',#782,#635,#636);
#517=AXIS2_PLACEMENT_3D('',#785,#637,#638);
#518=AXIS2_PLACEMENT_3D('',#788,#641,#642);
#519=AXIS2_PLACEMENT_3D('',#790,#643,#644);
#520=AXIS2_PLACEMENT_3D('',#792,#646,#647);
#521=AXIS2_PLACEMENT_3D('',#794,#648,#649);
#522=AXIS2_PLACEMENT_3D('',#797,#651,#652);
#523=AXIS2_PLACEMENT_3D('',#798,#653,#654);
#524=AXIS2_PLACEMENT_3D('',#800,#655,#656);
#525=AXIS2_PLACEMENT_3D('',#801,#657,#658);
#526=AXIS2_PLACEMENT_3D('',#803,#660,#661);
#527=AXIS2_PLACEMENT_3D('',#807,#664,#665);
#528=AXIS2_PLACEMENT_3D('',#808,#666,#667);
#529=AXIS2_PLACEMENT_3D('',#809,#668,#669);
#530=AXIS2_PLACEMENT_3D('',#811,#671,#672);
#531=AXIS2_PLACEMENT_3D('',#812,#673,#674);
#532=AXIS2_PLACEMENT_3D('',#813,#675,#676);
#533=AXIS2_PLACEMENT_3D('',#815,#678,#679);
#534=DIRECTION('axis',(0.,0.,1.));
#535=DIRECTION('refdir',(1.,0.,0.));
#536=DIRECTION('center_axis',(1.,0.,0.));
#537=DIRECTION('ref_axis',(0.,-0.707106781186501,0.707106781186594));
#538=DIRECTION('center_axis',(-1.,0.,0.));
#539=DIRECTION('ref_axis',(0.,-0.707106781186501,0.707106781186594));
#540=DIRECTION('',(1.,0.,0.));
#541=DIRECTION('center_axis',(1.,0.,0.));
#542=DIRECTION('ref_axis',(0.,-0.707106781186501,0.707106781186594));
#543=DIRECTION('',(-1.,0.,0.));
#544=DIRECTION('center_axis',(0.,-1.20176773016461E-13,-1.));
#545=DIRECTION('ref_axis',(0.,1.,-1.20176773016461E-13));
#546=DIRECTION('',(0.,-1.,1.20176773016461E-13));
#547=DIRECTION('',(1.,0.,0.));
#548=DIRECTION('',(0.,1.,-1.20176773016461E-13));
#549=DIRECTION('center_axis',(1.,0.,0.));
#550=DIRECTION('ref_axis',(0.,0.707106781186677,0.707106781186418));
#551=DIRECTION('center_axis',(-1.,0.,0.));
#552=DIRECTION('ref_axis',(0.,0.707106781186677,0.707106781186418));
#553=DIRECTION('',(1.,0.,0.));
#554=DIRECTION('center_axis',(1.,0.,0.));
#555=DIRECTION('ref_axis',(0.,0.707106781186677,0.707106781186418));
#556=DIRECTION('',(-1.,0.,0.));
#557=DIRECTION('center_axis',(0.,-1.,2.4687322892982E-13));
#558=DIRECTION('ref_axis',(0.,-2.4687322892982E-13,-1.));
#559=DIRECTION('',(0.,-2.4687322892982E-13,-1.));
#560=DIRECTION('',(-1.,0.,0.));
#561=DIRECTION('',(0.,-2.4687322892982E-13,-1.));
#562=DIRECTION('center_axis',(1.,0.,0.));
#563=DIRECTION('ref_axis',(0.,-0.707106781186551,-0.707106781186544));
#564=DIRECTION('center_axis',(-1.,0.,0.));
#565=DIRECTION('ref_axis',(0.,-0.707106781186551,-0.707106781186544));
#566=DIRECTION('',(1.,0.,0.));
#567=DIRECTION('center_axis',(1.,0.,0.));
#568=DIRECTION('ref_axis',(0.,-0.707106781186551,-0.707106781186544));
#569=DIRECTION('',(-1.,0.,0.));
#570=DIRECTION('center_axis',(0.,1.,-1.00929365874824E-14));
#571=DIRECTION('ref_axis',(0.,1.00929365874824E-14,1.));
#572=DIRECTION('',(0.,1.00929365874824E-14,1.));
#573=DIRECTION('',(0.,1.00929365874824E-14,1.));
#574=DIRECTION('center_axis',(1.,0.,0.));
#575=DIRECTION('ref_axis',(0.,0.70710678118646,-0.707106781186635));
#576=DIRECTION('center_axis',(-1.,0.,0.));
#577=DIRECTION('ref_axis',(0.,0.70710678118646,-0.707106781186635));
#578=DIRECTION('',(1.,0.,0.));
#579=DIRECTION('center_axis',(1.,0.,0.));
#580=DIRECTION('ref_axis',(0.,0.70710678118646,-0.707106781186635));
#581=DIRECTION('center_axis',(0.,0.,1.));
#582=DIRECTION('ref_axis',(0.,-1.,0.));
#583=DIRECTION('',(0.,1.,0.));
#584=DIRECTION('',(1.,0.,0.));
#585=DIRECTION('',(0.,-1.,0.));
#586=DIRECTION('center_axis',(1.,0.,0.));
#587=DIRECTION('ref_axis',(0.,-0.707106781186627,0.707106781186469));
#588=DIRECTION('center_axis',(-1.,0.,0.));
#589=DIRECTION('ref_axis',(0.,-0.707106781186627,0.707106781186469));
#590=DIRECTION('',(-1.,0.,0.));
#591=DIRECTION('center_axis',(1.,0.,0.));
#592=DIRECTION('ref_axis',(0.,-0.707106781186627,0.707106781186469));
#593=DIRECTION('',(1.,0.,0.));
#594=DIRECTION('center_axis',(1.,0.,0.));
#595=DIRECTION('ref_axis',(0.,1.,0.));
#596=DIRECTION('',(0.,-1.,3.77540960522298E-13));
#597=DIRECTION('center_axis',(1.,0.,0.));
#598=DIRECTION('ref_axis',(0.,0.707106781188392,0.707106781184703));
#599=DIRECTION('',(0.,1.,0.));
#600=DIRECTION('center_axis',(1.,0.,0.));
#601=DIRECTION('ref_axis',(0.,0.,-1.));
#602=DIRECTION('center_axis',(1.,0.,0.));
#603=DIRECTION('ref_axis',(0.,0.814888625121374,-0.579617571030932));
#604=DIRECTION('center_axis',(1.,0.,0.));
#605=DIRECTION('ref_axis',(0.,1.50119499988635E-7,-0.999999999999989));
#606=DIRECTION('',(0.,1.,-2.6509008307115E-13));
#607=DIRECTION('center_axis',(1.,0.,0.));
#608=DIRECTION('ref_axis',(0.,2.36769668198719E-13,1.));
#609=DIRECTION('center_axis',(1.,0.,0.));
#610=DIRECTION('ref_axis',(0.,-0.814888625122211,-0.579617571029754));
#611=DIRECTION('center_axis',(1.,0.,0.));
#612=DIRECTION('ref_axis',(0.,-1.41704829688467E-13,1.));
#613=DIRECTION('',(0.,-1.,1.20176773016461E-13));
#614=DIRECTION('center_axis',(-1.,0.,0.));
#615=DIRECTION('ref_axis',(0.,-0.814888625122211,-0.579617571029754));
#616=DIRECTION('',(1.,0.,0.));
#617=DIRECTION('center_axis',(-1.,0.,0.));
#618=DIRECTION('ref_axis',(0.,-0.814888625122211,-0.579617571029754));
#619=DIRECTION('',(1.,0.,0.));
#620=DIRECTION('center_axis',(1.,0.,0.));
#621=DIRECTION('ref_axis',(0.,2.36769668198719E-13,1.));
#622=DIRECTION('',(1.,0.,0.));
#623=DIRECTION('center_axis',(1.,0.,0.));
#624=DIRECTION('ref_axis',(0.,2.36769668198719E-13,1.));
#625=DIRECTION('center_axis',(1.,0.,0.));
#626=DIRECTION('ref_axis',(0.,0.707106781188392,0.707106781184703));
#627=DIRECTION('center_axis',(-1.,0.,0.));
#628=DIRECTION('ref_axis',(0.,0.707106781188392,0.707106781184703));
#629=DIRECTION('',(1.,0.,0.));
#630=DIRECTION('center_axis',(0.,3.77540960522298E-13,1.));
#631=DIRECTION('ref_axis',(0.,-1.,3.77540960522298E-13));
#632=DIRECTION('',(0.,-1.,3.77540960522298E-13));
#633=DIRECTION('center_axis',(0.,-3.77540960522298E-13,-1.));
#634=DIRECTION('ref_axis',(1.,0.,0.));
#635=DIRECTION('center_axis',(1.,0.,0.));
#636=DIRECTION('ref_axis',(0.,0.814888625121374,-0.579617571030932));
#637=DIRECTION('center_axis',(-1.,0.,0.));
#638=DIRECTION('ref_axis',(0.,0.814888625121374,-0.579617571030932));
#639=DIRECTION('',(-1.,0.,0.));
#640=DIRECTION('',(1.,0.,0.));
#641=DIRECTION('center_axis',(1.,0.,0.));
#642=DIRECTION('ref_axis',(0.,1.50119499988635E-7,-0.999999999999989));
#643=DIRECTION('center_axis',(1.,0.,0.));
#644=DIRECTION('ref_axis',(0.,1.50119499988635E-7,-0.999999999999989));
#645=DIRECTION('',(1.,0.,0.));
#646=DIRECTION('center_axis',(0.,0.,1.));
#647=DIRECTION('ref_axis',(1.,0.,0.));
#648=DIRECTION('center_axis',(0.,2.6509008307115E-13,1.));
#649=DIRECTION('ref_axis',(1.,0.,0.));
#650=DIRECTION('',(0.,0.,1.));
#651=DIRECTION('center_axis',(0.,0.,1.));
#652=DIRECTION('ref_axis',(1.,0.,0.));
#653=DIRECTION('center_axis',(0.,0.,-1.));
#654=DIRECTION('ref_axis',(1.,0.,0.));
#655=DIRECTION('center_axis',(0.,0.,-1.));
#656=DIRECTION('ref_axis',(1.,0.,0.));
#657=DIRECTION('center_axis',(0.,0.,1.));
#658=DIRECTION('ref_axis',(1.,0.,0.));
#659=DIRECTION('',(0.,0.,1.));
#660=DIRECTION('center_axis',(0.,0.,1.));
#661=DIRECTION('ref_axis',(0.,-1.,0.));
#662=DIRECTION('',(0.,-1.,0.));
#663=DIRECTION('',(1.,0.,0.));
#664=DIRECTION('center_axis',(1.,0.,0.));
#665=DIRECTION('ref_axis',(0.,0.,-1.));
#666=DIRECTION('center_axis',(-1.,0.,0.));
#667=DIRECTION('ref_axis',(0.,0.,-1.));
#668=DIRECTION('center_axis',(0.,-2.6509008307115E-13,-1.));
#669=DIRECTION('ref_axis',(0.,1.,-2.6509008307115E-13));
#670=DIRECTION('',(0.,1.,-2.6509008307115E-13));
#671=DIRECTION('center_axis',(1.,0.,0.));
#672=DIRECTION('ref_axis',(0.,-1.41704829688467E-13,1.));
#673=DIRECTION('center_axis',(-1.,0.,0.));
#674=DIRECTION('ref_axis',(0.,-1.41704829688467E-13,1.));
#675=DIRECTION('center_axis',(0.,-1.20176773016461E-13,-1.));
#676=DIRECTION('ref_axis',(0.,1.,-1.20176773016461E-13));
#677=DIRECTION('',(0.,1.,-1.20176773016461E-13));
#678=DIRECTION('center_axis',(1.,0.,0.));
#679=DIRECTION('ref_axis',(0.,1.,0.));
#680=CARTESIAN_POINT('',(0.,0.,0.));
#681=CARTESIAN_POINT('Origin',(-5.,5.99999999999993,2.74999999999725));
#682=CARTESIAN_POINT('',(-5.,4.99999999999993,2.74999999999726));
#683=CARTESIAN_POINT('',(-5.,6.00000000000005,3.74999999999725));
#684=CARTESIAN_POINT('Origin',(-5.,5.99999999999993,2.74999999999725));
#685=CARTESIAN_POINT('',(5.,6.00000000000005,3.74999999999725));
#686=CARTESIAN_POINT('',(-5.,6.00000000000005,3.74999999999725));
#687=CARTESIAN_POINT('',(5.,4.99999999999993,2.74999999999726));
#688=CARTESIAN_POINT('Origin',(5.,5.99999999999993,2.74999999999725));
#689=CARTESIAN_POINT('',(-5.,4.99999999999993,2.74999999999726));
#690=CARTESIAN_POINT('Origin',(-5.,4.99999999999994,3.74999999999737));
#691=CARTESIAN_POINT('',(-5.,7.99999063217078,3.75000000000078));
#692=CARTESIAN_POINT('',(-5.,7.99999999999968,3.74999999999701));
#693=CARTESIAN_POINT('',(5.,7.99999063217078,3.75000000000078));
#694=CARTESIAN_POINT('',(-5.,7.99999063217078,3.75000000000078));
#695=CARTESIAN_POINT('',(5.,7.99999999999968,3.74999999999701));
#696=CARTESIAN_POINT('Origin',(-5.,-6.00000000000025,2.74999999999869));
#697=CARTESIAN_POINT('',(-5.,-6.00000000000013,3.74999999999869));
#698=CARTESIAN_POINT('',(-5.,-5.00000000000025,2.74999999999844));
#699=CARTESIAN_POINT('Origin',(-5.,-6.00000000000025,2.74999999999869));
#700=CARTESIAN_POINT('',(5.,-5.00000000000025,2.74999999999844));
#701=CARTESIAN_POINT('',(-5.,-5.00000000000025,2.74999999999844));
#702=CARTESIAN_POINT('',(5.,-6.00000000000013,3.74999999999869));
#703=CARTESIAN_POINT('Origin',(5.,-6.00000000000025,2.74999999999869));
#704=CARTESIAN_POINT('',(-5.,-6.00000000000013,3.74999999999869));
#705=CARTESIAN_POINT('Origin',(-5.,-5.,3.75000000000514));
#706=CARTESIAN_POINT('',(-5.,-5.00000000000068,0.99999999999633));
#707=CARTESIAN_POINT('',(-5.,-5.,3.75000000000514));
#708=CARTESIAN_POINT('',(5.,-5.00000000000068,0.99999999999633));
#709=CARTESIAN_POINT('',(-5.,-5.00000000000068,0.99999999999633));
#710=CARTESIAN_POINT('',(5.,-5.,3.75000000000514));
#711=CARTESIAN_POINT('Origin',(-5.,7.74999999999991,0.999999999997009));
#712=CARTESIAN_POINT('',(-5.,7.74999999999991,-1.75000000000299));
#713=CARTESIAN_POINT('',(-5.,4.99999999999991,0.999999999997037));
#714=CARTESIAN_POINT('Origin',(-5.,7.74999999999991,0.999999999997009));
#715=CARTESIAN_POINT('',(5.,4.99999999999991,0.999999999997037));
#716=CARTESIAN_POINT('',(-5.,4.99999999999991,0.999999999997037));
#717=CARTESIAN_POINT('',(5.,7.74999999999991,-1.75000000000299));
#718=CARTESIAN_POINT('Origin',(5.,7.74999999999991,0.999999999997009));
#719=CARTESIAN_POINT('',(-5.,7.74999999999991,-1.75000000000299));
#720=CARTESIAN_POINT('Origin',(-5.,4.99999999999988,-1.75000000000795));
#721=CARTESIAN_POINT('',(5.,4.99999999999988,-1.75000000000795));
#722=CARTESIAN_POINT('',(-5.,4.99999999999988,-1.75000000000795));
#723=CARTESIAN_POINT('Origin',(-5.,-7.75000000000068,0.999999999997009));
#724=CARTESIAN_POINT('',(-5.,-7.75000000000068,-1.75000000000299));
#725=CARTESIAN_POINT('Origin',(-5.,-7.75000000000068,0.999999999997009));
#726=CARTESIAN_POINT('',(5.,-7.75000000000068,-1.75000000000299));
#727=CARTESIAN_POINT('',(-5.,-7.75000000000068,-1.75000000000299));
#728=CARTESIAN_POINT('Origin',(5.,-7.75000000000068,0.999999999997009));
#729=CARTESIAN_POINT('Origin',(-5.,-5.00000000000136,-1.75000000000299));
#730=CARTESIAN_POINT('',(-5.,-9.09999999999689,-1.75000000000299));
#731=CARTESIAN_POINT('',(-5.,-9.09999999999728,-1.75000000000299));
#732=CARTESIAN_POINT('',(5.,-9.09999999999689,-1.75000000000299));
#733=CARTESIAN_POINT('',(-5.,-9.09999999999689,-1.75000000000299));
#734=CARTESIAN_POINT('',(5.,-9.09999999999728,-1.75000000000299));
#735=CARTESIAN_POINT('Origin',(-5.,-7.09999999999767,3.75000000000306));
#736=CARTESIAN_POINT('',(5.,-9.09999999999767,3.74999999999906));
#737=CARTESIAN_POINT('',(5.,-7.09999999999692,5.75000000000306));
#738=CARTESIAN_POINT('Origin',(5.,-7.09999999999767,3.75000000000306));
#739=CARTESIAN_POINT('',(-5.,-7.09999999999692,5.75000000000306));
#740=CARTESIAN_POINT('',(-5.,-7.09999999999692,5.75000000000306));
#741=CARTESIAN_POINT('',(-5.,-9.09999999999767,3.74999999999906));
#742=CARTESIAN_POINT('Origin',(-5.,-7.09999999999767,3.75000000000306));
#743=CARTESIAN_POINT('',(-5.,-9.09999999999767,3.74999999999906));
#744=CARTESIAN_POINT('Origin',(-5.,-0.550000000000523,0.999999999998037));
#745=CARTESIAN_POINT('',(-5.,5.99999063217153,5.74999999999812));
#746=CARTESIAN_POINT('',(-5.,7.99999063218046,5.74999999999736));
#747=CARTESIAN_POINT('Origin',(-5.,5.99999063217078,3.74999999999812));
#748=CARTESIAN_POINT('',(-5.,8.00000000000007,-1.75000000000299));
#749=CARTESIAN_POINT('',(-5.,-9.09999999999728,-1.75000000000299));
#750=CARTESIAN_POINT('',(-5.,10.7281729146283,1.3457926371111));
#751=CARTESIAN_POINT('Origin',(-5.,8.00000000000007,0.999999999997009));
#752=CARTESIAN_POINT('',(-5.,11.8707209693304,-1.75318346240262));
#753=CARTESIAN_POINT('Origin',(-5.,10.2409437190876,-0.593948320340759));
#754=CARTESIAN_POINT('',(-5.,8.00000071306769,-3.7500000000076));
#755=CARTESIAN_POINT('Origin',(-5.,8.00000000000007,0.999999999997009));
#756=CARTESIAN_POINT('',(-5.,-9.10000000000113,-3.75000000000774));
#757=CARTESIAN_POINT('',(-5.,-9.10000000000257,-3.75000000000307));
#758=CARTESIAN_POINT('',(-5.,-12.9707209693352,-1.75318346239665));
#759=CARTESIAN_POINT('Origin',(-5.,-9.1,0.999999999998037));
#760=CARTESIAN_POINT('',(-5.,-11.8281729146283,1.3457926371155));
#761=CARTESIAN_POINT('Origin',(-5.,-11.3409437190908,-0.593948320337139));
#762=CARTESIAN_POINT('Origin',(-5.,-9.09999999999728,0.999999999998037));
#763=CARTESIAN_POINT('',(-5.,7.99999999999968,3.74999999999701));
#764=CARTESIAN_POINT('Origin',(-5.,-11.3409437190908,-0.593948320337139));
#765=CARTESIAN_POINT('',(5.,-12.9707209693352,-1.75318346239665));
#766=CARTESIAN_POINT('',(-5.,-12.9707209693352,-1.75318346239665));
#767=CARTESIAN_POINT('',(5.,-11.8281729146283,1.3457926371155));
#768=CARTESIAN_POINT('Origin',(5.,-11.3409437190908,-0.593948320337139));
#769=CARTESIAN_POINT('',(-5.,-11.8281729146283,1.3457926371155));
#770=CARTESIAN_POINT('Origin',(-5.,-9.1,0.999999999998037));
#771=CARTESIAN_POINT('',(5.,-9.10000000000113,-3.75000000000774));
#772=CARTESIAN_POINT('',(-5.,-9.10000000000113,-3.75000000000774));
#773=CARTESIAN_POINT('Origin',(5.,-9.1,0.999999999998037));
#774=CARTESIAN_POINT('Origin',(-5.,5.99999063217078,3.74999999999812));
#775=CARTESIAN_POINT('',(5.,5.99999063217153,5.74999999999812));
#776=CARTESIAN_POINT('Origin',(5.,5.99999063217078,3.74999999999812));
#777=CARTESIAN_POINT('',(-5.,5.99999063217153,5.74999999999812));
#778=CARTESIAN_POINT('Origin',(-5.,7.99999063218046,5.74999999999736));
#779=CARTESIAN_POINT('',(5.,7.99999063218046,5.74999999999736));
#780=CARTESIAN_POINT('',(-2.,-6.18833807490344E-6,5.74999999999736));
#781=CARTESIAN_POINT('Origin',(0.,-6.18833807514837E-6,5.74999999999736));
#782=CARTESIAN_POINT('Origin',(-5.,10.2409437190876,-0.593948320340759));
#783=CARTESIAN_POINT('',(5.,10.7281729146283,1.3457926371111));
#784=CARTESIAN_POINT('',(5.,11.8707209693304,-1.75318346240262));
#785=CARTESIAN_POINT('Origin',(5.,10.2409437190876,-0.593948320340759));
#786=CARTESIAN_POINT('',(-5.,11.8707209693304,-1.75318346240262));
#787=CARTESIAN_POINT('',(-5.,10.7281729146283,1.3457926371111));
#788=CARTESIAN_POINT('Origin',(-5.,8.00000000000007,0.999999999997009));
#789=CARTESIAN_POINT('',(5.,8.00000071306769,-3.7500000000076));
#790=CARTESIAN_POINT('Origin',(5.,8.00000000000007,0.999999999997009));
#791=CARTESIAN_POINT('',(-5.,8.00000071306769,-3.7500000000076));
#792=CARTESIAN_POINT('Origin',(0.,-6.18833807514837E-6,-3.75000000000548));
#793=CARTESIAN_POINT('',(-4.,-6.18833807465851E-6,-3.75000000000548));
#794=CARTESIAN_POINT('Origin',(0.,-6.18833807514837E-6,-3.75000000000307));
#795=CARTESIAN_POINT('',(-4.,-6.18833807465851E-6,4.24999999999452));
#796=CARTESIAN_POINT('',(-4.,-6.18833807563823E-6,-3.75000000000548));
#797=CARTESIAN_POINT('Origin',(0.,-6.18833807514837E-6,4.24999999999452));
#798=CARTESIAN_POINT('Origin',(0.,-6.18833807514837E-6,4.24999999999452));
#799=CARTESIAN_POINT('',(-2.,-6.18833807490344E-6,4.24999999999452));
#800=CARTESIAN_POINT('Origin',(0.,-6.18833807514837E-6,4.24999999999452));
#801=CARTESIAN_POINT('Origin',(0.,-6.18833807514837E-6,-3.75000000000548));
#802=CARTESIAN_POINT('',(-2.,-6.1883380753933E-6,-3.75000000000548));
#803=CARTESIAN_POINT('Origin',(-5.,8.00000000000007,-1.75000000000299));
#804=CARTESIAN_POINT('',(5.,8.00000000000007,-1.75000000000299));
#805=CARTESIAN_POINT('',(5.,-9.09999999999728,-1.75000000000299));
#806=CARTESIAN_POINT('',(-5.,8.00000000000007,-1.75000000000299));
#807=CARTESIAN_POINT('Origin',(-5.,8.00000000000007,0.999999999997009));
#808=CARTESIAN_POINT('Origin',(5.,8.00000000000007,0.999999999997009));
#809=CARTESIAN_POINT('Origin',(-5.,-9.10000000000113,-3.75000000000307));
#810=CARTESIAN_POINT('',(5.,-9.10000000000257,-3.75000000000307));
#811=CARTESIAN_POINT('Origin',(-5.,-9.09999999999728,0.999999999998037));
#812=CARTESIAN_POINT('Origin',(5.,-9.09999999999728,0.999999999998037));
#813=CARTESIAN_POINT('Origin',(-5.,-9.09999999999767,3.74999999999906));
#814=CARTESIAN_POINT('',(5.,7.99999999999968,3.74999999999701));
#815=CARTESIAN_POINT('Origin',(5.,-0.550000000000523,0.999999999998037));
#816=UNCERTAINTY_MEASURE_WITH_UNIT(LENGTH_MEASURE(0.01),#820,
'DISTANCE_ACCURACY_VALUE',
'Maximum model space distance between geometric entities at asserted c
onnectivities');
#817=UNCERTAINTY_MEASURE_WITH_UNIT(LENGTH_MEASURE(0.01),#820,
'DISTANCE_ACCURACY_VALUE',
'Maximum model space distance between geometric entities at asserted c
onnectivities');
#818=(
GEOMETRIC_REPRESENTATION_CONTEXT(3)
GLOBAL_UNCERTAINTY_ASSIGNED_CONTEXT((#816))
GLOBAL_UNIT_ASSIGNED_CONTEXT((#820,#822,#823))
REPRESENTATION_CONTEXT('','3D')
);
#819=(
GEOMETRIC_REPRESENTATION_CONTEXT(3)
GLOBAL_UNCERTAINTY_ASSIGNED_CONTEXT((#817))
GLOBAL_UNIT_ASSIGNED_CONTEXT((#820,#822,#823))
REPRESENTATION_CONTEXT('','3D')
);
#820=(
LENGTH_UNIT()
NAMED_UNIT(*)
SI_UNIT(.MILLI.,.METRE.)
);
#821=(
LENGTH_UNIT()
NAMED_UNIT(*)
SI_UNIT($,.METRE.)
);
#822=(
NAMED_UNIT(*)
PLANE_ANGLE_UNIT()
SI_UNIT($,.RADIAN.)
);
#823=(
NAMED_UNIT(*)
SI_UNIT($,.STERADIAN.)
SOLID_ANGLE_UNIT()
);
#824=SHAPE_DEFINITION_REPRESENTATION(#825,#826);
#825=PRODUCT_DEFINITION_SHAPE('',$,#828);
#826=SHAPE_REPRESENTATION('',(#480),#818);
#827=PRODUCT_DEFINITION_CONTEXT('part definition',#832,'design');
#828=PRODUCT_DEFINITION('2026-09-29-17-29-41-598','cableClipScrew',#829,
#827);
#829=PRODUCT_DEFINITION_FORMATION('',$,#834);
#830=PRODUCT_RELATED_PRODUCT_CATEGORY('cableClipScrew','cableClipScrew',
(#834));
#831=APPLICATION_PROTOCOL_DEFINITION('international standard',
'automotive_design',2009,#832);
#832=APPLICATION_CONTEXT(
'Core Data for Automotive Mechanical Design Process');
#833=PRODUCT_CONTEXT('part definition',#832,'mechanical');
#834=PRODUCT('2026-09-29-17-29-41-598','cableClipScrew',$,(#833));
#835=PRESENTATION_STYLE_ASSIGNMENT((#836));
#836=SURFACE_STYLE_USAGE(.BOTH.,#837);
#837=SURFACE_SIDE_STYLE('',(#838));
#838=SURFACE_STYLE_FILL_AREA(#839);
#839=FILL_AREA_STYLE('Steel - Satin',(#840));
#840=FILL_AREA_STYLE_COLOUR('Steel - Satin',#841);
#841=COLOUR_RGB('Steel - Satin',0.627450980392157,0.627450980392157,0.627450980392157);
ENDSEC;
END-ISO-10303-21;
