ISO-10303-21;
HEADER;
/* Generated by software containing ST-Developer
 * from STEP Tools, Inc. (www.steptools.com) 
 */

FILE_DESCRIPTION(
/* description */ (''),
/* implementation_level */ '2;1');

FILE_NAME(
/* name */ 'cableClipScrewSingle.step',
/* time_stamp */ '2026-10-07T16:14:53+01:00',
/* author */ (''),
/* organization */ (''),
/* preprocessor_version */ 'ST-DEVELOPER v20.1',
/* originating_system */ 'Autodesk Translation Framework v15.8.0.0',
/* authorisation */ '');

FILE_SCHEMA (('AUTOMOTIVE_DESIGN { 1 0 10303 214 3 1 1 }'));
ENDSEC;

DATA;
#10=MECHANICAL_DESIGN_GEOMETRIC_PRESENTATION_REPRESENTATION('',(#13),#704);
#11=SHAPE_REPRESENTATION_RELATIONSHIP('SRR','None',#711,#12);
#12=ADVANCED_BREP_SHAPE_REPRESENTATION('',(#14),#703);
#13=STYLED_ITEM('',(#720),#14);
#14=MANIFOLD_SOLID_BREP('Body1',#404);
#15=FACE_BOUND('',#58,.T.);
#16=FACE_BOUND('',#70,.T.);
#17=PLANE('',#421);
#18=PLANE('',#431);
#19=PLANE('',#439);
#20=PLANE('',#441);
#21=PLANE('',#445);
#22=PLANE('',#448);
#23=PLANE('',#453);
#24=PLANE('',#454);
#25=PLANE('',#459);
#26=PLANE('',#460);
#27=FACE_OUTER_BOUND('',#48,.T.);
#28=FACE_OUTER_BOUND('',#49,.T.);
#29=FACE_OUTER_BOUND('',#50,.T.);
#30=FACE_OUTER_BOUND('',#51,.T.);
#31=FACE_OUTER_BOUND('',#52,.T.);
#32=FACE_OUTER_BOUND('',#53,.T.);
#33=FACE_OUTER_BOUND('',#54,.T.);
#34=FACE_OUTER_BOUND('',#55,.T.);
#35=FACE_OUTER_BOUND('',#56,.T.);
#36=FACE_OUTER_BOUND('',#57,.T.);
#37=FACE_OUTER_BOUND('',#59,.T.);
#38=FACE_OUTER_BOUND('',#60,.T.);
#39=FACE_OUTER_BOUND('',#61,.T.);
#40=FACE_OUTER_BOUND('',#62,.T.);
#41=FACE_OUTER_BOUND('',#63,.T.);
#42=FACE_OUTER_BOUND('',#64,.T.);
#43=FACE_OUTER_BOUND('',#65,.T.);
#44=FACE_OUTER_BOUND('',#66,.T.);
#45=FACE_OUTER_BOUND('',#67,.T.);
#46=FACE_OUTER_BOUND('',#68,.T.);
#47=FACE_OUTER_BOUND('',#69,.T.);
#48=EDGE_LOOP('',(#258,#259,#260,#261));
#49=EDGE_LOOP('',(#262,#263,#264,#265,#266,#267,#268,#269,#270,#271,#272,
#273,#274,#275,#276,#277));
#50=EDGE_LOOP('',(#278,#279,#280,#281));
#51=EDGE_LOOP('',(#282,#283,#284,#285,#286,#287,#288,#289,#290,#291,#292,
#293,#294,#295,#296,#297));
#52=EDGE_LOOP('',(#298,#299,#300,#301));
#53=EDGE_LOOP('',(#302,#303,#304,#305));
#54=EDGE_LOOP('',(#306,#307,#308,#309));
#55=EDGE_LOOP('',(#310,#311,#312,#313));
#56=EDGE_LOOP('',(#314,#315,#316,#317));
#57=EDGE_LOOP('',(#318,#319,#320,#321,#322,#323));
#58=EDGE_LOOP('',(#324));
#59=EDGE_LOOP('',(#325,#326,#327,#328));
#60=EDGE_LOOP('',(#329,#330,#331,#332));
#61=EDGE_LOOP('',(#333,#334,#335,#336));
#62=EDGE_LOOP('',(#337,#338,#339,#340));
#63=EDGE_LOOP('',(#341,#342,#343,#344));
#64=EDGE_LOOP('',(#345,#346,#347,#348));
#65=EDGE_LOOP('',(#349,#350,#351,#352));
#66=EDGE_LOOP('',(#353,#354,#355,#356));
#67=EDGE_LOOP('',(#357,#358,#359,#360));
#68=EDGE_LOOP('',(#361,#362,#363,#364));
#69=EDGE_LOOP('',(#365,#366,#367,#368,#369,#370));
#70=EDGE_LOOP('',(#371));
#71=LINE('',#590,#106);
#72=LINE('',#593,#107);
#73=LINE('',#598,#108);
#74=LINE('',#602,#109);
#75=LINE('',#606,#110);
#76=LINE('',#608,#111);
#77=LINE('',#610,#112);
#78=LINE('',#614,#113);
#79=LINE('',#618,#114);
#80=LINE('',#622,#115);
#81=LINE('',#626,#116);
#82=LINE('',#629,#117);
#83=LINE('',#634,#118);
#84=LINE('',#638,#119);
#85=LINE('',#641,#120);
#86=LINE('',#643,#121);
#87=LINE('',#645,#122);
#88=LINE('',#647,#123);
#89=LINE('',#651,#124);
#90=LINE('',#655,#125);
#91=LINE('',#658,#126);
#92=LINE('',#659,#127);
#93=LINE('',#661,#128);
#94=LINE('',#663,#129);
#95=LINE('',#665,#130);
#96=LINE('',#671,#131);
#97=LINE('',#674,#132);
#98=LINE('',#676,#133);
#99=LINE('',#681,#134);
#100=LINE('',#682,#135);
#101=LINE('',#686,#136);
#102=LINE('',#688,#137);
#103=LINE('',#689,#138);
#104=LINE('',#691,#139);
#105=LINE('',#695,#140);
#106=VECTOR('',#467,1.);
#107=VECTOR('',#470,10.);
#108=VECTOR('',#475,10.);
#109=VECTOR('',#478,10.);
#110=VECTOR('',#481,10.);
#111=VECTOR('',#482,10.);
#112=VECTOR('',#483,10.);
#113=VECTOR('',#486,10.);
#114=VECTOR('',#489,10.);
#115=VECTOR('',#492,10.);
#116=VECTOR('',#497,10.);
#117=VECTOR('',#500,10.);
#118=VECTOR('',#505,10.);
#119=VECTOR('',#508,10.);
#120=VECTOR('',#511,10.);
#121=VECTOR('',#512,10.);
#122=VECTOR('',#513,10.);
#123=VECTOR('',#514,10.);
#124=VECTOR('',#517,10.);
#125=VECTOR('',#520,10.);
#126=VECTOR('',#525,10.);
#127=VECTOR('',#526,10.);
#128=VECTOR('',#529,10.);
#129=VECTOR('',#532,10.);
#130=VECTOR('',#535,10.);
#131=VECTOR('',#542,10.);
#132=VECTOR('',#545,10.);
#133=VECTOR('',#548,10.);
#134=VECTOR('',#553,10.);
#135=VECTOR('',#554,10.);
#136=VECTOR('',#561,10.);
#137=VECTOR('',#564,10.);
#138=VECTOR('',#565,10.);
#139=VECTOR('',#568,10.);
#140=VECTOR('',#573,1.);
#141=CIRCLE('',#419,1.);
#142=CIRCLE('',#420,1.);
#143=CIRCLE('',#422,3.20000000000623);
#144=CIRCLE('',#423,1.);
#145=CIRCLE('',#424,0.4);
#146=CIRCLE('',#425,1.);
#147=CIRCLE('',#426,1.33333333333333);
#148=CIRCLE('',#427,2.2);
#149=CIRCLE('',#428,2.19999999999774);
#150=CIRCLE('',#430,1.);
#151=CIRCLE('',#432,2.19999999999774);
#152=CIRCLE('',#433,2.2);
#153=CIRCLE('',#434,1.33333333333333);
#154=CIRCLE('',#435,0.4);
#155=CIRCLE('',#436,1.);
#156=CIRCLE('',#437,3.20000000000623);
#157=CIRCLE('',#443,1.);
#158=CIRCLE('',#444,1.);
#159=CIRCLE('',#446,1.);
#160=CIRCLE('',#447,1.);
#161=CIRCLE('',#450,1.);
#162=CIRCLE('',#456,1.);
#163=VERTEX_POINT('',#586);
#164=VERTEX_POINT('',#587);
#165=VERTEX_POINT('',#589);
#166=VERTEX_POINT('',#591);
#167=VERTEX_POINT('',#595);
#168=VERTEX_POINT('',#597);
#169=VERTEX_POINT('',#599);
#170=VERTEX_POINT('',#601);
#171=VERTEX_POINT('',#603);
#172=VERTEX_POINT('',#605);
#173=VERTEX_POINT('',#607);
#174=VERTEX_POINT('',#609);
#175=VERTEX_POINT('',#611);
#176=VERTEX_POINT('',#613);
#177=VERTEX_POINT('',#615);
#178=VERTEX_POINT('',#617);
#179=VERTEX_POINT('',#619);
#180=VERTEX_POINT('',#621);
#181=VERTEX_POINT('',#625);
#182=VERTEX_POINT('',#627);
#183=VERTEX_POINT('',#631);
#184=VERTEX_POINT('',#633);
#185=VERTEX_POINT('',#635);
#186=VERTEX_POINT('',#637);
#187=VERTEX_POINT('',#639);
#188=VERTEX_POINT('',#642);
#189=VERTEX_POINT('',#644);
#190=VERTEX_POINT('',#646);
#191=VERTEX_POINT('',#648);
#192=VERTEX_POINT('',#650);
#193=VERTEX_POINT('',#652);
#194=VERTEX_POINT('',#654);
#195=VERTEX_POINT('',#667);
#196=VERTEX_POINT('',#669);
#197=VERTEX_POINT('',#673);
#198=VERTEX_POINT('',#677);
#199=VERTEX_POINT('',#680);
#200=VERTEX_POINT('',#694);
#201=EDGE_CURVE('',#163,#164,#141,.T.);
#202=EDGE_CURVE('',#164,#165,#71,.T.);
#203=EDGE_CURVE('',#165,#166,#142,.T.);
#204=EDGE_CURVE('',#163,#166,#72,.T.);
#205=EDGE_CURVE('',#165,#167,#143,.T.);
#206=EDGE_CURVE('',#167,#168,#73,.T.);
#207=EDGE_CURVE('',#169,#168,#144,.T.);
#208=EDGE_CURVE('',#169,#170,#74,.T.);
#209=EDGE_CURVE('',#171,#170,#145,.T.);
#210=EDGE_CURVE('',#171,#172,#75,.T.);
#211=EDGE_CURVE('',#173,#172,#76,.T.);
#212=EDGE_CURVE('',#173,#174,#77,.T.);
#213=EDGE_CURVE('',#175,#174,#146,.T.);
#214=EDGE_CURVE('',#175,#176,#78,.T.);
#215=EDGE_CURVE('',#177,#176,#147,.T.);
#216=EDGE_CURVE('',#177,#178,#79,.T.);
#217=EDGE_CURVE('',#179,#178,#148,.T.);
#218=EDGE_CURVE('',#179,#180,#80,.T.);
#219=EDGE_CURVE('',#180,#166,#149,.T.);
#220=EDGE_CURVE('',#174,#181,#81,.T.);
#221=EDGE_CURVE('',#181,#182,#150,.T.);
#222=EDGE_CURVE('',#182,#175,#82,.T.);
#223=EDGE_CURVE('',#163,#183,#151,.T.);
#224=EDGE_CURVE('',#183,#184,#83,.T.);
#225=EDGE_CURVE('',#185,#184,#152,.T.);
#226=EDGE_CURVE('',#186,#185,#84,.T.);
#227=EDGE_CURVE('',#187,#186,#153,.T.);
#228=EDGE_CURVE('',#187,#182,#85,.T.);
#229=EDGE_CURVE('',#188,#181,#86,.T.);
#230=EDGE_CURVE('',#189,#188,#87,.T.);
#231=EDGE_CURVE('',#189,#190,#88,.T.);
#232=EDGE_CURVE('',#191,#190,#154,.T.);
#233=EDGE_CURVE('',#191,#192,#89,.T.);
#234=EDGE_CURVE('',#193,#192,#155,.T.);
#235=EDGE_CURVE('',#194,#193,#90,.T.);
#236=EDGE_CURVE('',#164,#194,#156,.T.);
#237=EDGE_CURVE('',#186,#177,#91,.T.);
#238=EDGE_CURVE('',#176,#187,#92,.T.);
#239=EDGE_CURVE('',#178,#185,#93,.T.);
#240=EDGE_CURVE('',#184,#179,#94,.T.);
#241=EDGE_CURVE('',#183,#180,#95,.T.);
#242=EDGE_CURVE('',#195,#189,#157,.T.);
#243=EDGE_CURVE('',#188,#196,#158,.T.);
#244=EDGE_CURVE('',#196,#195,#96,.T.);
#245=EDGE_CURVE('',#197,#195,#97,.T.);
#246=EDGE_CURVE('',#172,#197,#159,.T.);
#247=EDGE_CURVE('',#190,#171,#98,.T.);
#248=EDGE_CURVE('',#198,#198,#160,.T.);
#249=EDGE_CURVE('',#199,#196,#99,.T.);
#250=EDGE_CURVE('',#197,#199,#100,.T.);
#251=EDGE_CURVE('',#199,#173,#161,.T.);
#252=EDGE_CURVE('',#170,#191,#101,.T.);
#253=EDGE_CURVE('',#168,#193,#102,.T.);
#254=EDGE_CURVE('',#192,#169,#103,.T.);
#255=EDGE_CURVE('',#194,#167,#104,.T.);
#256=EDGE_CURVE('',#198,#200,#105,.T.);
#257=EDGE_CURVE('',#200,#200,#162,.T.);
#258=ORIENTED_EDGE('',*,*,#201,.T.);
#259=ORIENTED_EDGE('',*,*,#202,.T.);
#260=ORIENTED_EDGE('',*,*,#203,.T.);
#261=ORIENTED_EDGE('',*,*,#204,.F.);
#262=ORIENTED_EDGE('',*,*,#203,.F.);
#263=ORIENTED_EDGE('',*,*,#205,.T.);
#264=ORIENTED_EDGE('',*,*,#206,.T.);
#265=ORIENTED_EDGE('',*,*,#207,.F.);
#266=ORIENTED_EDGE('',*,*,#208,.T.);
#267=ORIENTED_EDGE('',*,*,#209,.F.);
#268=ORIENTED_EDGE('',*,*,#210,.T.);
#269=ORIENTED_EDGE('',*,*,#211,.F.);
#270=ORIENTED_EDGE('',*,*,#212,.T.);
#271=ORIENTED_EDGE('',*,*,#213,.F.);
#272=ORIENTED_EDGE('',*,*,#214,.T.);
#273=ORIENTED_EDGE('',*,*,#215,.F.);
#274=ORIENTED_EDGE('',*,*,#216,.T.);
#275=ORIENTED_EDGE('',*,*,#217,.F.);
#276=ORIENTED_EDGE('',*,*,#218,.T.);
#277=ORIENTED_EDGE('',*,*,#219,.T.);
#278=ORIENTED_EDGE('',*,*,#213,.T.);
#279=ORIENTED_EDGE('',*,*,#220,.T.);
#280=ORIENTED_EDGE('',*,*,#221,.T.);
#281=ORIENTED_EDGE('',*,*,#222,.T.);
#282=ORIENTED_EDGE('',*,*,#201,.F.);
#283=ORIENTED_EDGE('',*,*,#223,.T.);
#284=ORIENTED_EDGE('',*,*,#224,.T.);
#285=ORIENTED_EDGE('',*,*,#225,.F.);
#286=ORIENTED_EDGE('',*,*,#226,.F.);
#287=ORIENTED_EDGE('',*,*,#227,.F.);
#288=ORIENTED_EDGE('',*,*,#228,.T.);
#289=ORIENTED_EDGE('',*,*,#221,.F.);
#290=ORIENTED_EDGE('',*,*,#229,.F.);
#291=ORIENTED_EDGE('',*,*,#230,.F.);
#292=ORIENTED_EDGE('',*,*,#231,.T.);
#293=ORIENTED_EDGE('',*,*,#232,.F.);
#294=ORIENTED_EDGE('',*,*,#233,.T.);
#295=ORIENTED_EDGE('',*,*,#234,.F.);
#296=ORIENTED_EDGE('',*,*,#235,.F.);
#297=ORIENTED_EDGE('',*,*,#236,.F.);
#298=ORIENTED_EDGE('',*,*,#227,.T.);
#299=ORIENTED_EDGE('',*,*,#237,.T.);
#300=ORIENTED_EDGE('',*,*,#215,.T.);
#301=ORIENTED_EDGE('',*,*,#238,.T.);
#302=ORIENTED_EDGE('',*,*,#237,.F.);
#303=ORIENTED_EDGE('',*,*,#226,.T.);
#304=ORIENTED_EDGE('',*,*,#239,.F.);
#305=ORIENTED_EDGE('',*,*,#216,.F.);
#306=ORIENTED_EDGE('',*,*,#225,.T.);
#307=ORIENTED_EDGE('',*,*,#240,.T.);
#308=ORIENTED_EDGE('',*,*,#217,.T.);
#309=ORIENTED_EDGE('',*,*,#239,.T.);
#310=ORIENTED_EDGE('',*,*,#240,.F.);
#311=ORIENTED_EDGE('',*,*,#224,.F.);
#312=ORIENTED_EDGE('',*,*,#241,.T.);
#313=ORIENTED_EDGE('',*,*,#218,.F.);
#314=ORIENTED_EDGE('',*,*,#242,.T.);
#315=ORIENTED_EDGE('',*,*,#230,.T.);
#316=ORIENTED_EDGE('',*,*,#243,.T.);
#317=ORIENTED_EDGE('',*,*,#244,.T.);
#318=ORIENTED_EDGE('',*,*,#242,.F.);
#319=ORIENTED_EDGE('',*,*,#245,.F.);
#320=ORIENTED_EDGE('',*,*,#246,.F.);
#321=ORIENTED_EDGE('',*,*,#210,.F.);
#322=ORIENTED_EDGE('',*,*,#247,.F.);
#323=ORIENTED_EDGE('',*,*,#231,.F.);
#324=ORIENTED_EDGE('',*,*,#248,.F.);
#325=ORIENTED_EDGE('',*,*,#244,.F.);
#326=ORIENTED_EDGE('',*,*,#249,.F.);
#327=ORIENTED_EDGE('',*,*,#250,.F.);
#328=ORIENTED_EDGE('',*,*,#245,.T.);
#329=ORIENTED_EDGE('',*,*,#251,.T.);
#330=ORIENTED_EDGE('',*,*,#211,.T.);
#331=ORIENTED_EDGE('',*,*,#246,.T.);
#332=ORIENTED_EDGE('',*,*,#250,.T.);
#333=ORIENTED_EDGE('',*,*,#232,.T.);
#334=ORIENTED_EDGE('',*,*,#247,.T.);
#335=ORIENTED_EDGE('',*,*,#209,.T.);
#336=ORIENTED_EDGE('',*,*,#252,.T.);
#337=ORIENTED_EDGE('',*,*,#207,.T.);
#338=ORIENTED_EDGE('',*,*,#253,.T.);
#339=ORIENTED_EDGE('',*,*,#234,.T.);
#340=ORIENTED_EDGE('',*,*,#254,.T.);
#341=ORIENTED_EDGE('',*,*,#253,.F.);
#342=ORIENTED_EDGE('',*,*,#206,.F.);
#343=ORIENTED_EDGE('',*,*,#255,.F.);
#344=ORIENTED_EDGE('',*,*,#235,.T.);
#345=ORIENTED_EDGE('',*,*,#252,.F.);
#346=ORIENTED_EDGE('',*,*,#208,.F.);
#347=ORIENTED_EDGE('',*,*,#254,.F.);
#348=ORIENTED_EDGE('',*,*,#233,.F.);
#349=ORIENTED_EDGE('',*,*,#248,.T.);
#350=ORIENTED_EDGE('',*,*,#256,.T.);
#351=ORIENTED_EDGE('',*,*,#257,.F.);
#352=ORIENTED_EDGE('',*,*,#256,.F.);
#353=ORIENTED_EDGE('',*,*,#202,.F.);
#354=ORIENTED_EDGE('',*,*,#236,.T.);
#355=ORIENTED_EDGE('',*,*,#255,.T.);
#356=ORIENTED_EDGE('',*,*,#205,.F.);
#357=ORIENTED_EDGE('',*,*,#223,.F.);
#358=ORIENTED_EDGE('',*,*,#204,.T.);
#359=ORIENTED_EDGE('',*,*,#219,.F.);
#360=ORIENTED_EDGE('',*,*,#241,.F.);
#361=ORIENTED_EDGE('',*,*,#238,.F.);
#362=ORIENTED_EDGE('',*,*,#214,.F.);
#363=ORIENTED_EDGE('',*,*,#222,.F.);
#364=ORIENTED_EDGE('',*,*,#228,.F.);
#365=ORIENTED_EDGE('',*,*,#220,.F.);
#366=ORIENTED_EDGE('',*,*,#212,.F.);
#367=ORIENTED_EDGE('',*,*,#251,.F.);
#368=ORIENTED_EDGE('',*,*,#249,.T.);
#369=ORIENTED_EDGE('',*,*,#243,.F.);
#370=ORIENTED_EDGE('',*,*,#229,.T.);
#371=ORIENTED_EDGE('',*,*,#257,.T.);
#372=CYLINDRICAL_SURFACE('',#418,1.);
#373=CYLINDRICAL_SURFACE('',#429,1.);
#374=CYLINDRICAL_SURFACE('',#438,1.33333333333333);
#375=CYLINDRICAL_SURFACE('',#440,2.2);
#376=CYLINDRICAL_SURFACE('',#442,1.);
#377=CYLINDRICAL_SURFACE('',#449,1.);
#378=CYLINDRICAL_SURFACE('',#451,0.4);
#379=CYLINDRICAL_SURFACE('',#452,1.);
#380=CYLINDRICAL_SURFACE('',#455,1.);
#381=CYLINDRICAL_SURFACE('',#457,3.20000000000623);
#382=CYLINDRICAL_SURFACE('',#458,2.19999999999774);
#383=ADVANCED_FACE('',(#27),#372,.T.);
#384=ADVANCED_FACE('',(#28),#17,.T.);
#385=ADVANCED_FACE('',(#29),#373,.T.);
#386=ADVANCED_FACE('',(#30),#18,.F.);
#387=ADVANCED_FACE('',(#31),#374,.F.);
#388=ADVANCED_FACE('',(#32),#19,.T.);
#389=ADVANCED_FACE('',(#33),#375,.F.);
#390=ADVANCED_FACE('',(#34),#20,.T.);
#391=ADVANCED_FACE('',(#35),#376,.T.);
#392=ADVANCED_FACE('',(#36,#15),#21,.T.);
#393=ADVANCED_FACE('',(#37),#22,.F.);
#394=ADVANCED_FACE('',(#38),#377,.T.);
#395=ADVANCED_FACE('',(#39),#378,.F.);
#396=ADVANCED_FACE('',(#40),#379,.T.);
#397=ADVANCED_FACE('',(#41),#23,.T.);
#398=ADVANCED_FACE('',(#42),#24,.F.);
#399=ADVANCED_FACE('',(#43),#380,.F.);
#400=ADVANCED_FACE('',(#44),#381,.T.);
#401=ADVANCED_FACE('',(#45),#382,.F.);
#402=ADVANCED_FACE('',(#46),#25,.T.);
#403=ADVANCED_FACE('',(#47,#16),#26,.T.);
#404=CLOSED_SHELL('',(#383,#384,#385,#386,#387,#388,#389,#390,#391,#392,
#393,#394,#395,#396,#397,#398,#399,#400,#401,#402,#403));
#405=DERIVED_UNIT_ELEMENT(#407,1.);
#406=DERIVED_UNIT_ELEMENT(#706,-3.);
#407=(
MASS_UNIT()
NAMED_UNIT(*)
SI_UNIT(.KILO.,.GRAM.)
);
#408=DERIVED_UNIT((#405,#406));
#409=MEASURE_REPRESENTATION_ITEM('density measure',
POSITIVE_RATIO_MEASURE(7850.),#408);
#410=PROPERTY_DEFINITION_REPRESENTATION(#415,#412);
#411=PROPERTY_DEFINITION_REPRESENTATION(#416,#413);
#412=REPRESENTATION('material name',(#414),#703);
#413=REPRESENTATION('density',(#409),#703);
#414=DESCRIPTIVE_REPRESENTATION_ITEM('Steel','Steel');
#415=PROPERTY_DEFINITION('material property','material name',#713);
#416=PROPERTY_DEFINITION('material property','density of part',#713);
#417=AXIS2_PLACEMENT_3D('',#584,#461,#462);
#418=AXIS2_PLACEMENT_3D('',#585,#463,#464);
#419=AXIS2_PLACEMENT_3D('',#588,#465,#466);
#420=AXIS2_PLACEMENT_3D('',#592,#468,#469);
#421=AXIS2_PLACEMENT_3D('',#594,#471,#472);
#422=AXIS2_PLACEMENT_3D('',#596,#473,#474);
#423=AXIS2_PLACEMENT_3D('',#600,#476,#477);
#424=AXIS2_PLACEMENT_3D('',#604,#479,#480);
#425=AXIS2_PLACEMENT_3D('',#612,#484,#485);
#426=AXIS2_PLACEMENT_3D('',#616,#487,#488);
#427=AXIS2_PLACEMENT_3D('',#620,#490,#491);
#428=AXIS2_PLACEMENT_3D('',#623,#493,#494);
#429=AXIS2_PLACEMENT_3D('',#624,#495,#496);
#430=AXIS2_PLACEMENT_3D('',#628,#498,#499);
#431=AXIS2_PLACEMENT_3D('',#630,#501,#502);
#432=AXIS2_PLACEMENT_3D('',#632,#503,#504);
#433=AXIS2_PLACEMENT_3D('',#636,#506,#507);
#434=AXIS2_PLACEMENT_3D('',#640,#509,#510);
#435=AXIS2_PLACEMENT_3D('',#649,#515,#516);
#436=AXIS2_PLACEMENT_3D('',#653,#518,#519);
#437=AXIS2_PLACEMENT_3D('',#656,#521,#522);
#438=AXIS2_PLACEMENT_3D('',#657,#523,#524);
#439=AXIS2_PLACEMENT_3D('',#660,#527,#528);
#440=AXIS2_PLACEMENT_3D('',#662,#530,#531);
#441=AXIS2_PLACEMENT_3D('',#664,#533,#534);
#442=AXIS2_PLACEMENT_3D('',#666,#536,#537);
#443=AXIS2_PLACEMENT_3D('',#668,#538,#539);
#444=AXIS2_PLACEMENT_3D('',#670,#540,#541);
#445=AXIS2_PLACEMENT_3D('',#672,#543,#544);
#446=AXIS2_PLACEMENT_3D('',#675,#546,#547);
#447=AXIS2_PLACEMENT_3D('',#678,#549,#550);
#448=AXIS2_PLACEMENT_3D('',#679,#551,#552);
#449=AXIS2_PLACEMENT_3D('',#683,#555,#556);
#450=AXIS2_PLACEMENT_3D('',#684,#557,#558);
#451=AXIS2_PLACEMENT_3D('',#685,#559,#560);
#452=AXIS2_PLACEMENT_3D('',#687,#562,#563);
#453=AXIS2_PLACEMENT_3D('',#690,#566,#567);
#454=AXIS2_PLACEMENT_3D('',#692,#569,#570);
#455=AXIS2_PLACEMENT_3D('',#693,#571,#572);
#456=AXIS2_PLACEMENT_3D('',#696,#574,#575);
#457=AXIS2_PLACEMENT_3D('',#697,#576,#577);
#458=AXIS2_PLACEMENT_3D('',#698,#578,#579);
#459=AXIS2_PLACEMENT_3D('',#699,#580,#581);
#460=AXIS2_PLACEMENT_3D('',#700,#582,#583);
#461=DIRECTION('axis',(0.,0.,1.));
#462=DIRECTION('refdir',(1.,0.,0.));
#463=DIRECTION('center_axis',(-1.,0.,0.));
#464=DIRECTION('ref_axis',(0.,-0.945237150062539,-0.326384328884904));
#465=DIRECTION('center_axis',(1.,0.,0.));
#466=DIRECTION('ref_axis',(0.,-0.945237150062539,-0.326384328884904));
#467=DIRECTION('',(1.,0.,0.));
#468=DIRECTION('center_axis',(-1.,0.,0.));
#469=DIRECTION('ref_axis',(0.,-0.945237150062539,-0.326384328884904));
#470=DIRECTION('',(1.,0.,0.));
#471=DIRECTION('center_axis',(1.,0.,0.));
#472=DIRECTION('ref_axis',(0.,1.,0.));
#473=DIRECTION('center_axis',(1.,0.,0.));
#474=DIRECTION('ref_axis',(0.,1.78294878860549E-12,1.));
#475=DIRECTION('',(0.,1.,-3.45086426181204E-12));
#476=DIRECTION('center_axis',(-1.,0.,0.));
#477=DIRECTION('ref_axis',(7.85046229343242E-16,0.707106781185327,-0.707106781187768));
#478=DIRECTION('',(0.,0.,1.));
#479=DIRECTION('center_axis',(1.,0.,0.));
#480=DIRECTION('ref_axis',(0.,-0.707106781186548,0.707106781186548));
#481=DIRECTION('',(0.,1.,0.));
#482=DIRECTION('',(0.,0.,-1.));
#483=DIRECTION('',(0.,-1.,2.10585139451527E-12));
#484=DIRECTION('center_axis',(-1.,0.,0.));
#485=DIRECTION('ref_axis',(0.,-0.70710678118501,0.707106781188085));
#486=DIRECTION('',(0.,1.,-1.84410310151567E-12));
#487=DIRECTION('center_axis',(1.,0.,0.));
#488=DIRECTION('ref_axis',(0.,0.707106781187698,0.707106781185397));
#489=DIRECTION('',(0.,-1.40973091786073E-12,-1.));
#490=DIRECTION('center_axis',(1.,0.,0.));
#491=DIRECTION('ref_axis',(0.,0.707106781185397,-0.707106781187698));
#492=DIRECTION('',(0.,-1.,1.84418806756245E-12));
#493=DIRECTION('center_axis',(-1.,0.,0.));
#494=DIRECTION('ref_axis',(0.,1.57475043106653E-12,1.));
#495=DIRECTION('center_axis',(1.,0.,0.));
#496=DIRECTION('ref_axis',(0.,-0.70710678118501,0.707106781188085));
#497=DIRECTION('',(-1.,0.,0.));
#498=DIRECTION('center_axis',(1.,0.,0.));
#499=DIRECTION('ref_axis',(0.,-0.70710678118501,0.707106781188085));
#500=DIRECTION('',(1.,0.,0.));
#501=DIRECTION('center_axis',(1.,0.,0.));
#502=DIRECTION('ref_axis',(0.,1.,0.));
#503=DIRECTION('center_axis',(1.,0.,0.));
#504=DIRECTION('ref_axis',(0.,1.57475043106653E-12,1.));
#505=DIRECTION('',(0.,1.,-1.84418806756245E-12));
#506=DIRECTION('center_axis',(-1.,0.,0.));
#507=DIRECTION('ref_axis',(0.,0.707106781185397,-0.707106781187698));
#508=DIRECTION('',(0.,-1.40973091786073E-12,-1.));
#509=DIRECTION('center_axis',(-1.,0.,0.));
#510=DIRECTION('ref_axis',(0.,0.707106781187698,0.707106781185397));
#511=DIRECTION('',(0.,-1.,1.84410310151567E-12));
#512=DIRECTION('',(0.,-1.,2.10585139451527E-12));
#513=DIRECTION('',(0.,0.,1.));
#514=DIRECTION('',(0.,-1.,0.));
#515=DIRECTION('center_axis',(-1.,0.,0.));
#516=DIRECTION('ref_axis',(0.,-0.707106781186548,0.707106781186548));
#517=DIRECTION('',(0.,0.,-1.));
#518=DIRECTION('center_axis',(1.,0.,0.));
#519=DIRECTION('ref_axis',(7.85046229343242E-16,0.707106781185327,-0.707106781187768));
#520=DIRECTION('',(0.,1.,-3.45086426181204E-12));
#521=DIRECTION('center_axis',(1.,0.,0.));
#522=DIRECTION('ref_axis',(0.,1.78294878860549E-12,1.));
#523=DIRECTION('center_axis',(1.,0.,0.));
#524=DIRECTION('ref_axis',(0.,0.707106781187698,0.707106781185397));
#525=DIRECTION('',(1.,0.,0.));
#526=DIRECTION('',(-1.,0.,0.));
#527=DIRECTION('center_axis',(0.,-1.,1.40973091786073E-12));
#528=DIRECTION('ref_axis',(0.,-1.40973091786073E-12,-1.));
#529=DIRECTION('',(-1.,0.,0.));
#530=DIRECTION('center_axis',(1.,0.,0.));
#531=DIRECTION('ref_axis',(0.,0.707106781185397,-0.707106781187698));
#532=DIRECTION('',(1.,0.,0.));
#533=DIRECTION('center_axis',(0.,1.84418806756245E-12,1.));
#534=DIRECTION('ref_axis',(0.,-1.,1.84418806756245E-12));
#535=DIRECTION('',(1.,0.,0.));
#536=DIRECTION('center_axis',(0.,0.,-1.));
#537=DIRECTION('ref_axis',(-0.707106781186547,0.707106781186548,0.));
#538=DIRECTION('center_axis',(0.,0.,1.));
#539=DIRECTION('ref_axis',(-0.707106781186547,0.707106781186548,0.));
#540=DIRECTION('center_axis',(0.,-2.10585139451527E-12,-1.));
#541=DIRECTION('ref_axis',(-0.707106781186547,0.707106781186548,0.));
#542=DIRECTION('',(0.,0.,-1.));
#543=DIRECTION('center_axis',(0.,0.,-1.));
#544=DIRECTION('ref_axis',(1.,0.,0.));
#545=DIRECTION('',(-1.,5.82867087928207E-16,0.));
#546=DIRECTION('center_axis',(0.,0.,1.));
#547=DIRECTION('ref_axis',(0.707106781186548,0.707106781186547,0.));
#548=DIRECTION('',(1.,-6.66133814775094E-16,0.));
#549=DIRECTION('center_axis',(0.,0.,-1.));
#550=DIRECTION('ref_axis',(1.,0.,0.));
#551=DIRECTION('center_axis',(-5.82867087928207E-16,-1.,0.));
#552=DIRECTION('ref_axis',(1.,-5.82867087928207E-16,0.));
#553=DIRECTION('',(-1.,5.82867087928207E-16,-1.22743146993067E-27));
#554=DIRECTION('',(0.,0.,1.));
#555=DIRECTION('center_axis',(0.,0.,1.));
#556=DIRECTION('ref_axis',(0.707106781186548,0.707106781186547,0.));
#557=DIRECTION('center_axis',(0.,-2.10585139451527E-12,-1.));
#558=DIRECTION('ref_axis',(0.707106781186548,0.707106781186547,0.));
#559=DIRECTION('center_axis',(1.,-6.66133814775094E-16,0.));
#560=DIRECTION('ref_axis',(0.,-0.707106781186548,0.707106781186548));
#561=DIRECTION('',(-1.,6.66133814775094E-16,0.));
#562=DIRECTION('center_axis',(1.,-6.66133814775094E-16,2.2987373749919E-27));
#563=DIRECTION('ref_axis',(7.85046229343242E-16,0.707106781185327,-0.707106781187768));
#564=DIRECTION('',(-1.,6.66133814775094E-16,-2.2987373749919E-27));
#565=DIRECTION('',(1.,-6.66133814775094E-16,2.2987373749919E-27));
#566=DIRECTION('center_axis',(0.,-3.45086426181204E-12,-1.));
#567=DIRECTION('ref_axis',(0.,1.,-3.45086426181204E-12));
#568=DIRECTION('',(1.,0.,0.));
#569=DIRECTION('center_axis',(-6.66133814775094E-16,-1.,0.));
#570=DIRECTION('ref_axis',(1.,-6.66133814775094E-16,0.));
#571=DIRECTION('center_axis',(0.,0.,1.));
#572=DIRECTION('ref_axis',(1.,0.,0.));
#573=DIRECTION('',(0.,0.,1.));
#574=DIRECTION('center_axis',(0.,-2.10585139451527E-12,-1.));
#575=DIRECTION('ref_axis',(1.,0.,0.));
#576=DIRECTION('center_axis',(1.,0.,0.));
#577=DIRECTION('ref_axis',(0.,1.78294878860549E-12,1.));
#578=DIRECTION('center_axis',(1.,0.,0.));
#579=DIRECTION('ref_axis',(0.,1.57475043106653E-12,1.));
#580=DIRECTION('center_axis',(0.,-1.84410310151567E-12,-1.));
#581=DIRECTION('ref_axis',(0.,1.,-1.84410310151567E-12));
#582=DIRECTION('center_axis',(0.,2.10585139451527E-12,1.));
#583=DIRECTION('ref_axis',(0.,-1.,2.10585139451527E-12));
#584=CARTESIAN_POINT('',(0.,0.,0.));
#585=CARTESIAN_POINT('Origin',(-3.33333333333333,-6.97952173014211,0.0819544764517893));
#586=CARTESIAN_POINT('',(-3.33333333333333,-7.08253833169975,1.07663410970115));
#587=CARTESIAN_POINT('',(-3.33333333333333,-7.92475888020465,-0.244429852433115));
#588=CARTESIAN_POINT('Origin',(-3.33333333333333,-6.97952173014211,0.0819544764517893));
#589=CARTESIAN_POINT('',(3.33333333333333,-7.92475888020465,-0.244429852433115));
#590=CARTESIAN_POINT('',(-3.33333333333333,-7.92475888020465,-0.244429852433115));
#591=CARTESIAN_POINT('',(3.33333333333333,-7.08253833169975,1.07663410970115));
#592=CARTESIAN_POINT('Origin',(3.33333333333333,-6.97952173014211,0.0819544764517893));
#593=CARTESIAN_POINT('',(-3.33333333333333,-7.08253833169975,1.07663410970115));
#594=CARTESIAN_POINT('Origin',(3.33333333333333,7.21644966006352E-14,0.799999999996763));
#595=CARTESIAN_POINT('',(3.33333333333333,-4.90000756865837,-2.39999999999667));
#596=CARTESIAN_POINT('Origin',(3.33333333333333,-4.89999999999864,0.800000000000613));
#597=CARTESIAN_POINT('',(3.33333333333333,-2.50000756866182,-2.39999999998778));
#598=CARTESIAN_POINT('',(3.33333333333333,-4.90000756855825,-2.3999999999795));
#599=CARTESIAN_POINT('',(3.33333333333333,-1.50000756865837,-1.39999999998778));
#600=CARTESIAN_POINT('Origin',(3.33333333333333,-2.50000756865837,-1.39999999998778));
#601=CARTESIAN_POINT('',(3.33333333333333,-1.50000756865837,2.60000000000359));
#602=CARTESIAN_POINT('',(3.33333333333333,-1.50000756865837,-0.799999999999822));
#603=CARTESIAN_POINT('',(3.33333333333333,-1.10000756865837,3.00000000000359));
#604=CARTESIAN_POINT('Origin',(3.33333333333333,-1.10000756865837,2.60000000000359));
#605=CARTESIAN_POINT('',(3.33333333333333,0.499992431341632,3.00000000000359));
#606=CARTESIAN_POINT('',(3.33333333333333,-3.784329147333E-6,3.00000000000359));
#607=CARTESIAN_POINT('',(3.33333333333333,0.499992431341633,3.99999999999547));
#608=CARTESIAN_POINT('',(3.33333333333333,0.499992431341632,-0.799999999999822));
#609=CARTESIAN_POINT('',(3.33333333333333,-3.89999999999307,4.00000000000474));
#610=CARTESIAN_POINT('',(3.33333333333333,4.90001758291683,3.99999999998621));
#611=CARTESIAN_POINT('',(3.33333333333333,-4.89999999999517,3.00000000000763));
#612=CARTESIAN_POINT('Origin',(3.33333333333333,-3.89999999999517,3.00000000000474));
#613=CARTESIAN_POINT('',(3.33333333333333,-3.83333333332805,3.00000000000566));
#614=CARTESIAN_POINT('',(3.33333333333333,4.90000000000199,2.99999999998956));
#615=CARTESIAN_POINT('',(3.33333333333333,-2.49999999999718,1.66666666667045));
#616=CARTESIAN_POINT('Origin',(3.33333333333333,-3.83333333333051,1.66666666667233));
#617=CARTESIAN_POINT('',(3.33333333333333,-2.4999999999984,0.80000000000873));
#618=CARTESIAN_POINT('',(3.33333333333333,-2.4999999999953,3.00000000000208));
#619=CARTESIAN_POINT('',(3.33333333333333,-4.70000000000246,-1.39999999998817));
#620=CARTESIAN_POINT('Origin',(3.33333333333333,-4.6999999999984,0.800000000011831));
#621=CARTESIAN_POINT('',(3.33333333333333,-4.9000000000021,-1.39999999998785));
#622=CARTESIAN_POINT('',(3.33333333333333,-4.9000000000027,-1.3999999999878));
#623=CARTESIAN_POINT('Origin',(3.33333333333333,-4.89999999999864,0.80000000000989));
#624=CARTESIAN_POINT('Origin',(-3.33333333333333,-3.89999999999517,3.00000000000474));
#625=CARTESIAN_POINT('',(-3.33333333333333,-3.89999999999307,4.00000000000474));
#626=CARTESIAN_POINT('',(-3.33333333333333,-3.89999999999307,4.00000000000474));
#627=CARTESIAN_POINT('',(-3.33333333333333,-4.89999999999517,3.00000000000763));
#628=CARTESIAN_POINT('Origin',(-3.33333333333333,-3.89999999999517,3.00000000000474));
#629=CARTESIAN_POINT('',(-3.33333333333333,-4.89999999999517,3.00000000000763));
#630=CARTESIAN_POINT('Origin',(-3.33333333333333,7.21644966006352E-14,0.799999999996763));
#631=CARTESIAN_POINT('',(-3.33333333333333,-4.9000000000021,-1.39999999998785));
#632=CARTESIAN_POINT('Origin',(-3.33333333333333,-4.89999999999864,0.80000000000989));
#633=CARTESIAN_POINT('',(-3.33333333333333,-4.70000000000246,-1.39999999998817));
#634=CARTESIAN_POINT('',(-3.33333333333333,-4.9000000000027,-1.3999999999878));
#635=CARTESIAN_POINT('',(-3.33333333333333,-2.4999999999984,0.80000000000873));
#636=CARTESIAN_POINT('Origin',(-3.33333333333333,-4.6999999999984,0.800000000011831));
#637=CARTESIAN_POINT('',(-3.33333333333333,-2.49999999999718,1.66666666667045));
#638=CARTESIAN_POINT('',(-3.33333333333333,-2.4999999999953,3.00000000000208));
#639=CARTESIAN_POINT('',(-3.33333333333333,-3.83333333332805,3.00000000000566));
#640=CARTESIAN_POINT('Origin',(-3.33333333333333,-3.83333333333051,1.66666666667233));
#641=CARTESIAN_POINT('',(-3.33333333333333,4.90000000000199,2.99999999998956));
#642=CARTESIAN_POINT('',(-3.33333333333333,0.499992431341635,3.99999999999547));
#643=CARTESIAN_POINT('',(-3.33333333333333,4.90001758291683,3.99999999998621));
#644=CARTESIAN_POINT('',(-3.33333333333333,0.499992431341635,3.00000000000359));
#645=CARTESIAN_POINT('',(-3.33333333333333,0.499992431341635,-0.799999999999822));
#646=CARTESIAN_POINT('',(-3.33333333333333,-1.10000756865836,3.00000000000359));
#647=CARTESIAN_POINT('',(-3.33333333333333,-3.784329147333E-6,3.00000000000359));
#648=CARTESIAN_POINT('',(-3.33333333333333,-1.50000756865836,2.60000000000359));
#649=CARTESIAN_POINT('Origin',(-3.33333333333333,-1.10000756865836,2.60000000000359));
#650=CARTESIAN_POINT('',(-3.33333333333333,-1.50000756865836,-1.39999999998778));
#651=CARTESIAN_POINT('',(-3.33333333333333,-1.50000756865836,-0.799999999999822));
#652=CARTESIAN_POINT('',(-3.33333333333333,-2.50000756866182,-2.39999999998778));
#653=CARTESIAN_POINT('Origin',(-3.33333333333333,-2.50000756865836,-1.39999999998778));
#654=CARTESIAN_POINT('',(-3.33333333333333,-4.90000756865837,-2.39999999999667));
#655=CARTESIAN_POINT('',(-3.33333333333333,-4.90000756855825,-2.3999999999795));
#656=CARTESIAN_POINT('Origin',(-3.33333333333333,-4.89999999999864,0.800000000000613));
#657=CARTESIAN_POINT('Origin',(-3.33333333333333,-3.83333333333051,1.66666666667233));
#658=CARTESIAN_POINT('',(-3.33333333333333,-2.49999999999718,1.66666666667045));
#659=CARTESIAN_POINT('',(-3.33333333333333,-3.83333333332805,3.00000000000566));
#660=CARTESIAN_POINT('Origin',(-3.33333333333333,-2.4999999999953,3.00000000000208));
#661=CARTESIAN_POINT('',(-3.33333333333333,-2.4999999999984,0.80000000000873));
#662=CARTESIAN_POINT('Origin',(-3.33333333333333,-4.6999999999984,0.800000000011831));
#663=CARTESIAN_POINT('',(-3.33333333333333,-4.70000000000246,-1.39999999998817));
#664=CARTESIAN_POINT('Origin',(-3.33333333333333,-2.5000000000015,-1.39999999999223));
#665=CARTESIAN_POINT('',(-3.33333333333333,-4.9000000000021,-1.39999999998785));
#666=CARTESIAN_POINT('Origin',(-2.33333333333333,0.499992431341635,-0.799999999999822));
#667=CARTESIAN_POINT('',(-2.33333333333333,1.49999243134164,3.00000000000359));
#668=CARTESIAN_POINT('Origin',(-2.33333333333333,0.499992431341635,3.00000000000359));
#669=CARTESIAN_POINT('',(-2.33333333333333,1.49999243134164,3.99999999999337));
#670=CARTESIAN_POINT('Origin',(-2.33333333333333,0.499992431341635,3.99999999998621));
#671=CARTESIAN_POINT('',(-2.33333333333333,1.49999243134164,-0.799999999999822));
#672=CARTESIAN_POINT('Origin',(0.,-7.5686583668305E-6,3.00000000000359));
#673=CARTESIAN_POINT('',(2.33333333333333,1.49999243134163,3.00000000000359));
#674=CARTESIAN_POINT('',(3.33333333333333,1.49999243134163,3.00000000000359));
#675=CARTESIAN_POINT('Origin',(2.33333333333333,0.499992431341632,3.00000000000359));
#676=CARTESIAN_POINT('',(-1.66666666666667,-1.10000756865837,3.00000000000359));
#677=CARTESIAN_POINT('',(-1.,-7.56865836754071E-6,3.00000000000359));
#678=CARTESIAN_POINT('Origin',(3.03699151425824E-20,-7.56865836766317E-6,
3.00000000000359));
#679=CARTESIAN_POINT('Origin',(-3.33333333333333,1.49999243134164,-2.39999999999641));
#680=CARTESIAN_POINT('',(2.33333333333333,1.49999243134163,3.99999999999337));
#681=CARTESIAN_POINT('',(-3.33333333333333,1.49999243134164,3.99999999999337));
#682=CARTESIAN_POINT('',(2.33333333333333,1.49999243134163,-0.799999999999822));
#683=CARTESIAN_POINT('Origin',(2.33333333333333,0.499992431341632,-0.799999999999822));
#684=CARTESIAN_POINT('Origin',(2.33333333333333,0.499992431341632,3.99999999998621));
#685=CARTESIAN_POINT('Origin',(-1.66666666666667,-1.10000756865837,2.60000000000359));
#686=CARTESIAN_POINT('',(-1.66666666666667,-1.50000756865837,2.60000000000359));
#687=CARTESIAN_POINT('Origin',(-3.33333333333333,-2.50000756865836,-1.39999999998778));
#688=CARTESIAN_POINT('',(-3.33333333333333,-2.50000756866182,-2.39999999998778));
#689=CARTESIAN_POINT('',(-3.33333333333333,-1.50000756865836,-1.39999999998778));
#690=CARTESIAN_POINT('Origin',(-3.33333333333333,-4.90000756855825,-2.3999999999795));
#691=CARTESIAN_POINT('',(-3.33333333333333,-4.90000756865837,-2.39999999999667));
#692=CARTESIAN_POINT('Origin',(-3.33333333333333,-1.50000756865836,-2.39999999999641));
#693=CARTESIAN_POINT('Origin',(3.03699151425824E-20,-7.56865836766317E-6,
-2.39999999999641));
#694=CARTESIAN_POINT('',(-1.,-7.56865836754071E-6,3.99999999998621));
#695=CARTESIAN_POINT('',(-1.,-7.56865836778564E-6,-2.39999999999641));
#696=CARTESIAN_POINT('Origin',(3.03699151425824E-20,-7.56865836766317E-6,
3.99999999998621));
#697=CARTESIAN_POINT('Origin',(-3.33333333333333,-4.89999999999864,0.800000000000613));
#698=CARTESIAN_POINT('Origin',(-3.33333333333333,-4.89999999999864,0.80000000000989));
#699=CARTESIAN_POINT('Origin',(-3.33333333333333,-4.89999999999517,3.00000000000763));
#700=CARTESIAN_POINT('Origin',(-3.33333333333333,4.900017582932,3.99999999998621));
#701=UNCERTAINTY_MEASURE_WITH_UNIT(LENGTH_MEASURE(0.01),#705,
'DISTANCE_ACCURACY_VALUE',
'Maximum model space distance between geometric entities at asserted c
onnectivities');
#702=UNCERTAINTY_MEASURE_WITH_UNIT(LENGTH_MEASURE(0.01),#705,
'DISTANCE_ACCURACY_VALUE',
'Maximum model space distance between geometric entities at asserted c
onnectivities');
#703=(
GEOMETRIC_REPRESENTATION_CONTEXT(3)
GLOBAL_UNCERTAINTY_ASSIGNED_CONTEXT((#701))
GLOBAL_UNIT_ASSIGNED_CONTEXT((#705,#707,#708))
REPRESENTATION_CONTEXT('','3D')
);
#704=(
GEOMETRIC_REPRESENTATION_CONTEXT(3)
GLOBAL_UNCERTAINTY_ASSIGNED_CONTEXT((#702))
GLOBAL_UNIT_ASSIGNED_CONTEXT((#705,#707,#708))
REPRESENTATION_CONTEXT('','3D')
);
#705=(
LENGTH_UNIT()
NAMED_UNIT(*)
SI_UNIT(.MILLI.,.METRE.)
);
#706=(
LENGTH_UNIT()
NAMED_UNIT(*)
SI_UNIT($,.METRE.)
);
#707=(
NAMED_UNIT(*)
PLANE_ANGLE_UNIT()
SI_UNIT($,.RADIAN.)
);
#708=(
NAMED_UNIT(*)
SI_UNIT($,.STERADIAN.)
SOLID_ANGLE_UNIT()
);
#709=SHAPE_DEFINITION_REPRESENTATION(#710,#711);
#710=PRODUCT_DEFINITION_SHAPE('',$,#713);
#711=SHAPE_REPRESENTATION('',(#417),#703);
#712=PRODUCT_DEFINITION_CONTEXT('part definition',#717,'design');
#713=PRODUCT_DEFINITION('2026-09-29-17-29-41-598',
'cableClipScrewSingle',#714,#712);
#714=PRODUCT_DEFINITION_FORMATION('',$,#719);
#715=PRODUCT_RELATED_PRODUCT_CATEGORY('cableClipScrewSingle',
'cableClipScrewSingle',(#719));
#716=APPLICATION_PROTOCOL_DEFINITION('international standard',
'automotive_design',2009,#717);
#717=APPLICATION_CONTEXT(
'Core Data for Automotive Mechanical Design Process');
#718=PRODUCT_CONTEXT('part definition',#717,'mechanical');
#719=PRODUCT('2026-09-29-17-29-41-598','cableClipScrewSingle',$,(#718));
#720=PRESENTATION_STYLE_ASSIGNMENT((#721));
#721=SURFACE_STYLE_USAGE(.BOTH.,#722);
#722=SURFACE_SIDE_STYLE('',(#723));
#723=SURFACE_STYLE_FILL_AREA(#724);
#724=FILL_AREA_STYLE('Steel - Satin',(#725));
#725=FILL_AREA_STYLE_COLOUR('Steel - Satin',#726);
#726=COLOUR_RGB('Steel - Satin',0.627450980392157,0.627450980392157,0.627450980392157);
ENDSEC;
END-ISO-10303-21;
