ISO-10303-21;
HEADER;
/* Generated by software containing ST-Developer
 * from STEP Tools, Inc. (www.steptools.com) 
 */

FILE_DESCRIPTION(
/* description */ (''),
/* implementation_level */ '2;1');

FILE_NAME(
/* name */ 'dowelGripNut.step',
/* time_stamp */ '2026-10-07T16:17:58+01:00',
/* author */ (''),
/* organization */ (''),
/* preprocessor_version */ 'ST-DEVELOPER v20.1',
/* originating_system */ 'Autodesk Translation Framework v15.8.0.0',
/* authorisation */ '');

FILE_SCHEMA (('AUTOMOTIVE_DESIGN { 1 0 10303 214 3 1 1 }'));
ENDSEC;

DATA;
#10=MECHANICAL_DESIGN_GEOMETRIC_PRESENTATION_REPRESENTATION('',(#13),#594);
#11=SHAPE_REPRESENTATION_RELATIONSHIP('SRR','None',#601,#12);
#12=ADVANCED_BREP_SHAPE_REPRESENTATION('',(#14),#593);
#13=STYLED_ITEM('',(#610),#14);
#14=MANIFOLD_SOLID_BREP('Body1',#338);
#15=CYLINDRICAL_SURFACE('',#362,4.);
#16=FACE_BOUND('',#135,.T.);
#17=FACE_BOUND('',#139,.T.);
#18=FACE_BOUND('',#142,.T.);
#19=CIRCLE('',#361,4.);
#20=CIRCLE('',#363,4.);
#21=LINE('',#482,#56);
#22=LINE('',#484,#57);
#23=LINE('',#485,#58);
#24=LINE('',#524,#59);
#25=LINE('',#526,#60);
#26=LINE('',#527,#61);
#27=LINE('',#531,#62);
#28=LINE('',#533,#63);
#29=LINE('',#535,#64);
#30=LINE('',#536,#65);
#31=LINE('',#539,#66);
#32=LINE('',#541,#67);
#33=LINE('',#542,#68);
#34=LINE('',#545,#69);
#35=LINE('',#547,#70);
#36=LINE('',#548,#71);
#37=LINE('',#551,#72);
#38=LINE('',#553,#73);
#39=LINE('',#554,#74);
#40=LINE('',#557,#75);
#41=LINE('',#559,#76);
#42=LINE('',#560,#77);
#43=LINE('',#562,#78);
#44=LINE('',#563,#79);
#45=LINE('',#570,#80);
#46=LINE('',#573,#81);
#47=LINE('',#575,#82);
#48=LINE('',#576,#83);
#49=LINE('',#578,#84);
#50=LINE('',#579,#85);
#51=LINE('',#582,#86);
#52=LINE('',#584,#87);
#53=LINE('',#585,#88);
#54=LINE('',#587,#89);
#55=LINE('',#588,#90);
#56=VECTOR('',#374,10.);
#57=VECTOR('',#375,10.);
#58=VECTOR('',#376,10.);
#59=VECTOR('',#379,10.);
#60=VECTOR('',#380,10.);
#61=VECTOR('',#381,10.);
#62=VECTOR('',#384,10.);
#63=VECTOR('',#385,10.);
#64=VECTOR('',#386,10.);
#65=VECTOR('',#387,10.);
#66=VECTOR('',#390,10.);
#67=VECTOR('',#391,10.);
#68=VECTOR('',#392,10.);
#69=VECTOR('',#395,10.);
#70=VECTOR('',#396,10.);
#71=VECTOR('',#397,10.);
#72=VECTOR('',#400,10.);
#73=VECTOR('',#401,10.);
#74=VECTOR('',#402,10.);
#75=VECTOR('',#405,10.);
#76=VECTOR('',#406,10.);
#77=VECTOR('',#407,10.);
#78=VECTOR('',#410,10.);
#79=VECTOR('',#411,10.);
#80=VECTOR('',#420,4.);
#81=VECTOR('',#423,10.);
#82=VECTOR('',#424,10.);
#83=VECTOR('',#425,10.);
#84=VECTOR('',#428,10.);
#85=VECTOR('',#429,10.);
#86=VECTOR('',#432,10.);
#87=VECTOR('',#433,10.);
#88=VECTOR('',#434,10.);
#89=VECTOR('',#437,10.);
#90=VECTOR('',#438,10.);
#91=PLANE('',#352);
#92=PLANE('',#353);
#93=PLANE('',#354);
#94=PLANE('',#355);
#95=PLANE('',#356);
#96=PLANE('',#357);
#97=PLANE('',#358);
#98=PLANE('',#359);
#99=PLANE('',#360);
#100=PLANE('',#364);
#101=PLANE('',#365);
#102=PLANE('',#366);
#103=PLANE('',#367);
#104=PLANE('',#368);
#105=PLANE('',#369);
#106=FACE_OUTER_BOUND('',#124,.T.);
#107=FACE_OUTER_BOUND('',#125,.T.);
#108=FACE_OUTER_BOUND('',#126,.T.);
#109=FACE_OUTER_BOUND('',#127,.T.);
#110=FACE_OUTER_BOUND('',#128,.T.);
#111=FACE_OUTER_BOUND('',#129,.T.);
#112=FACE_OUTER_BOUND('',#130,.T.);
#113=FACE_OUTER_BOUND('',#131,.T.);
#114=FACE_OUTER_BOUND('',#132,.T.);
#115=FACE_OUTER_BOUND('',#133,.T.);
#116=FACE_OUTER_BOUND('',#134,.T.);
#117=FACE_OUTER_BOUND('',#136,.T.);
#118=FACE_OUTER_BOUND('',#137,.T.);
#119=FACE_OUTER_BOUND('',#138,.T.);
#120=FACE_OUTER_BOUND('',#140,.T.);
#121=FACE_OUTER_BOUND('',#141,.T.);
#122=FACE_OUTER_BOUND('',#143,.T.);
#123=FACE_OUTER_BOUND('',#144,.T.);
#124=EDGE_LOOP('',(#228,#229,#230,#231));
#125=EDGE_LOOP('',(#232,#233,#234,#235));
#126=EDGE_LOOP('',(#236,#237,#238,#239));
#127=EDGE_LOOP('',(#240,#241,#242,#243));
#128=EDGE_LOOP('',(#244,#245,#246,#247));
#129=EDGE_LOOP('',(#248,#249,#250,#251));
#130=EDGE_LOOP('',(#252,#253,#254,#255));
#131=EDGE_LOOP('',(#256,#257,#258,#259));
#132=EDGE_LOOP('',(#260,#261,#262,#263));
#133=EDGE_LOOP('',(#264,#265,#266,#267));
#134=EDGE_LOOP('',(#268,#269,#270,#271,#272,#273));
#135=EDGE_LOOP('',(#274));
#136=EDGE_LOOP('',(#275,#276,#277,#278));
#137=EDGE_LOOP('',(#279,#280,#281,#282));
#138=EDGE_LOOP('',(#283,#284,#285,#286));
#139=EDGE_LOOP('',(#287));
#140=EDGE_LOOP('',(#288,#289,#290,#291));
#141=EDGE_LOOP('',(#292,#293,#294,#295));
#142=EDGE_LOOP('',(#296,#297,#298,#299,#300,#301));
#143=EDGE_LOOP('',(#302,#303,#304,#305,#306,#307,#308,#309));
#144=EDGE_LOOP('',(#310,#311,#312,#313,#314,#315,#316,#317));
#145=B_SPLINE_CURVE_WITH_KNOTS('',3,(#462,#463,#464,#465),.UNSPECIFIED.,
 .F.,.F.,(4,4),(0.,0.731134839388634),.UNSPECIFIED.);
#146=B_SPLINE_CURVE_WITH_KNOTS('',3,(#467,#468,#469,#470),.UNSPECIFIED.,
 .F.,.F.,(4,4),(-1.48454919182981E-25,1.82857142857143),.UNSPECIFIED.);
#147=B_SPLINE_CURVE_WITH_KNOTS('',3,(#472,#473,#474,#475),.UNSPECIFIED.,
 .F.,.F.,(4,4),(0.,0.731134839388634),.UNSPECIFIED.);
#148=B_SPLINE_CURVE_WITH_KNOTS('',3,(#476,#477,#478,#479),.UNSPECIFIED.,
 .F.,.F.,(4,4),(-1.82857142857143,1.48454919182981E-25),.UNSPECIFIED.);
#149=B_SPLINE_CURVE_WITH_KNOTS('',3,(#504,#505,#506,#507),.UNSPECIFIED.,
 .F.,.F.,(4,4),(0.,0.731134839388634),.UNSPECIFIED.);
#150=B_SPLINE_CURVE_WITH_KNOTS('',3,(#509,#510,#511,#512),.UNSPECIFIED.,
 .F.,.F.,(4,4),(0.,1.82857142857143),.UNSPECIFIED.);
#151=B_SPLINE_CURVE_WITH_KNOTS('',3,(#514,#515,#516,#517),.UNSPECIFIED.,
 .F.,.F.,(4,4),(0.,0.731134839388634),.UNSPECIFIED.);
#152=B_SPLINE_CURVE_WITH_KNOTS('',3,(#518,#519,#520,#521),.UNSPECIFIED.,
 .F.,.F.,(4,4),(-1.82857142857143,0.),.UNSPECIFIED.);
#153=VERTEX_POINT('',#460);
#154=VERTEX_POINT('',#461);
#155=VERTEX_POINT('',#466);
#156=VERTEX_POINT('',#471);
#157=VERTEX_POINT('',#481);
#158=VERTEX_POINT('',#483);
#159=VERTEX_POINT('',#502);
#160=VERTEX_POINT('',#503);
#161=VERTEX_POINT('',#508);
#162=VERTEX_POINT('',#513);
#163=VERTEX_POINT('',#523);
#164=VERTEX_POINT('',#525);
#165=VERTEX_POINT('',#529);
#166=VERTEX_POINT('',#530);
#167=VERTEX_POINT('',#532);
#168=VERTEX_POINT('',#534);
#169=VERTEX_POINT('',#538);
#170=VERTEX_POINT('',#540);
#171=VERTEX_POINT('',#544);
#172=VERTEX_POINT('',#546);
#173=VERTEX_POINT('',#550);
#174=VERTEX_POINT('',#552);
#175=VERTEX_POINT('',#556);
#176=VERTEX_POINT('',#558);
#177=VERTEX_POINT('',#565);
#178=VERTEX_POINT('',#568);
#179=VERTEX_POINT('',#572);
#180=VERTEX_POINT('',#574);
#181=VERTEX_POINT('',#581);
#182=VERTEX_POINT('',#583);
#183=EDGE_CURVE('',#153,#154,#145,.T.);
#184=EDGE_CURVE('',#154,#155,#146,.T.);
#185=EDGE_CURVE('',#155,#156,#147,.T.);
#186=EDGE_CURVE('',#156,#153,#148,.T.);
#187=EDGE_CURVE('',#154,#157,#21,.T.);
#188=EDGE_CURVE('',#157,#158,#22,.T.);
#189=EDGE_CURVE('',#155,#158,#23,.T.);
#190=EDGE_CURVE('',#159,#160,#149,.T.);
#191=EDGE_CURVE('',#160,#161,#150,.T.);
#192=EDGE_CURVE('',#161,#162,#151,.T.);
#193=EDGE_CURVE('',#162,#159,#152,.T.);
#194=EDGE_CURVE('',#160,#163,#24,.T.);
#195=EDGE_CURVE('',#163,#164,#25,.T.);
#196=EDGE_CURVE('',#161,#164,#26,.T.);
#197=EDGE_CURVE('',#165,#166,#27,.T.);
#198=EDGE_CURVE('',#165,#167,#28,.T.);
#199=EDGE_CURVE('',#167,#168,#29,.T.);
#200=EDGE_CURVE('',#166,#168,#30,.T.);
#201=EDGE_CURVE('',#169,#165,#31,.T.);
#202=EDGE_CURVE('',#169,#170,#32,.T.);
#203=EDGE_CURVE('',#170,#167,#33,.T.);
#204=EDGE_CURVE('',#171,#169,#34,.T.);
#205=EDGE_CURVE('',#171,#172,#35,.T.);
#206=EDGE_CURVE('',#172,#170,#36,.T.);
#207=EDGE_CURVE('',#173,#171,#37,.T.);
#208=EDGE_CURVE('',#173,#174,#38,.T.);
#209=EDGE_CURVE('',#174,#172,#39,.T.);
#210=EDGE_CURVE('',#175,#173,#40,.T.);
#211=EDGE_CURVE('',#175,#176,#41,.T.);
#212=EDGE_CURVE('',#176,#174,#42,.T.);
#213=EDGE_CURVE('',#166,#175,#43,.T.);
#214=EDGE_CURVE('',#168,#176,#44,.T.);
#215=EDGE_CURVE('',#177,#177,#19,.T.);
#216=EDGE_CURVE('',#178,#178,#20,.T.);
#217=EDGE_CURVE('',#178,#177,#45,.T.);
#218=EDGE_CURVE('',#179,#162,#46,.T.);
#219=EDGE_CURVE('',#180,#179,#47,.T.);
#220=EDGE_CURVE('',#159,#180,#48,.T.);
#221=EDGE_CURVE('',#180,#157,#49,.T.);
#222=EDGE_CURVE('',#158,#179,#50,.T.);
#223=EDGE_CURVE('',#181,#156,#51,.T.);
#224=EDGE_CURVE('',#182,#181,#52,.T.);
#225=EDGE_CURVE('',#153,#182,#53,.T.);
#226=EDGE_CURVE('',#163,#182,#54,.T.);
#227=EDGE_CURVE('',#164,#181,#55,.T.);
#228=ORIENTED_EDGE('',*,*,#183,.T.);
#229=ORIENTED_EDGE('',*,*,#184,.T.);
#230=ORIENTED_EDGE('',*,*,#185,.T.);
#231=ORIENTED_EDGE('',*,*,#186,.T.);
#232=ORIENTED_EDGE('',*,*,#184,.F.);
#233=ORIENTED_EDGE('',*,*,#187,.T.);
#234=ORIENTED_EDGE('',*,*,#188,.T.);
#235=ORIENTED_EDGE('',*,*,#189,.F.);
#236=ORIENTED_EDGE('',*,*,#190,.T.);
#237=ORIENTED_EDGE('',*,*,#191,.T.);
#238=ORIENTED_EDGE('',*,*,#192,.T.);
#239=ORIENTED_EDGE('',*,*,#193,.T.);
#240=ORIENTED_EDGE('',*,*,#191,.F.);
#241=ORIENTED_EDGE('',*,*,#194,.T.);
#242=ORIENTED_EDGE('',*,*,#195,.T.);
#243=ORIENTED_EDGE('',*,*,#196,.F.);
#244=ORIENTED_EDGE('',*,*,#197,.F.);
#245=ORIENTED_EDGE('',*,*,#198,.T.);
#246=ORIENTED_EDGE('',*,*,#199,.T.);
#247=ORIENTED_EDGE('',*,*,#200,.F.);
#248=ORIENTED_EDGE('',*,*,#201,.F.);
#249=ORIENTED_EDGE('',*,*,#202,.T.);
#250=ORIENTED_EDGE('',*,*,#203,.T.);
#251=ORIENTED_EDGE('',*,*,#198,.F.);
#252=ORIENTED_EDGE('',*,*,#204,.F.);
#253=ORIENTED_EDGE('',*,*,#205,.T.);
#254=ORIENTED_EDGE('',*,*,#206,.T.);
#255=ORIENTED_EDGE('',*,*,#202,.F.);
#256=ORIENTED_EDGE('',*,*,#207,.F.);
#257=ORIENTED_EDGE('',*,*,#208,.T.);
#258=ORIENTED_EDGE('',*,*,#209,.T.);
#259=ORIENTED_EDGE('',*,*,#205,.F.);
#260=ORIENTED_EDGE('',*,*,#210,.F.);
#261=ORIENTED_EDGE('',*,*,#211,.T.);
#262=ORIENTED_EDGE('',*,*,#212,.T.);
#263=ORIENTED_EDGE('',*,*,#208,.F.);
#264=ORIENTED_EDGE('',*,*,#213,.F.);
#265=ORIENTED_EDGE('',*,*,#200,.T.);
#266=ORIENTED_EDGE('',*,*,#214,.T.);
#267=ORIENTED_EDGE('',*,*,#211,.F.);
#268=ORIENTED_EDGE('',*,*,#214,.F.);
#269=ORIENTED_EDGE('',*,*,#199,.F.);
#270=ORIENTED_EDGE('',*,*,#203,.F.);
#271=ORIENTED_EDGE('',*,*,#206,.F.);
#272=ORIENTED_EDGE('',*,*,#209,.F.);
#273=ORIENTED_EDGE('',*,*,#212,.F.);
#274=ORIENTED_EDGE('',*,*,#215,.F.);
#275=ORIENTED_EDGE('',*,*,#216,.F.);
#276=ORIENTED_EDGE('',*,*,#217,.T.);
#277=ORIENTED_EDGE('',*,*,#215,.T.);
#278=ORIENTED_EDGE('',*,*,#217,.F.);
#279=ORIENTED_EDGE('',*,*,#193,.F.);
#280=ORIENTED_EDGE('',*,*,#218,.F.);
#281=ORIENTED_EDGE('',*,*,#219,.F.);
#282=ORIENTED_EDGE('',*,*,#220,.F.);
#283=ORIENTED_EDGE('',*,*,#221,.F.);
#284=ORIENTED_EDGE('',*,*,#219,.T.);
#285=ORIENTED_EDGE('',*,*,#222,.F.);
#286=ORIENTED_EDGE('',*,*,#188,.F.);
#287=ORIENTED_EDGE('',*,*,#216,.T.);
#288=ORIENTED_EDGE('',*,*,#186,.F.);
#289=ORIENTED_EDGE('',*,*,#223,.F.);
#290=ORIENTED_EDGE('',*,*,#224,.F.);
#291=ORIENTED_EDGE('',*,*,#225,.F.);
#292=ORIENTED_EDGE('',*,*,#226,.T.);
#293=ORIENTED_EDGE('',*,*,#224,.T.);
#294=ORIENTED_EDGE('',*,*,#227,.F.);
#295=ORIENTED_EDGE('',*,*,#195,.F.);
#296=ORIENTED_EDGE('',*,*,#197,.T.);
#297=ORIENTED_EDGE('',*,*,#213,.T.);
#298=ORIENTED_EDGE('',*,*,#210,.T.);
#299=ORIENTED_EDGE('',*,*,#207,.T.);
#300=ORIENTED_EDGE('',*,*,#204,.T.);
#301=ORIENTED_EDGE('',*,*,#201,.T.);
#302=ORIENTED_EDGE('',*,*,#196,.T.);
#303=ORIENTED_EDGE('',*,*,#227,.T.);
#304=ORIENTED_EDGE('',*,*,#223,.T.);
#305=ORIENTED_EDGE('',*,*,#185,.F.);
#306=ORIENTED_EDGE('',*,*,#189,.T.);
#307=ORIENTED_EDGE('',*,*,#222,.T.);
#308=ORIENTED_EDGE('',*,*,#218,.T.);
#309=ORIENTED_EDGE('',*,*,#192,.F.);
#310=ORIENTED_EDGE('',*,*,#190,.F.);
#311=ORIENTED_EDGE('',*,*,#220,.T.);
#312=ORIENTED_EDGE('',*,*,#221,.T.);
#313=ORIENTED_EDGE('',*,*,#187,.F.);
#314=ORIENTED_EDGE('',*,*,#183,.F.);
#315=ORIENTED_EDGE('',*,*,#225,.T.);
#316=ORIENTED_EDGE('',*,*,#226,.F.);
#317=ORIENTED_EDGE('',*,*,#194,.F.);
#318=B_SPLINE_SURFACE_WITH_KNOTS('',3,3,((#444,#445,#446,#447),(#448,#449,
#450,#451),(#452,#453,#454,#455),(#456,#457,#458,#459)),.UNSPECIFIED.,.F.,
 .F.,.F.,(4,4),(4,4),(0.,1.),(-1.48454919182981E-25,1.82857142857143),
 .UNSPECIFIED.);
#319=B_SPLINE_SURFACE_WITH_KNOTS('',3,3,((#486,#487,#488,#489),(#490,#491,
#492,#493),(#494,#495,#496,#497),(#498,#499,#500,#501)),.UNSPECIFIED.,.F.,
 .F.,.F.,(4,4),(4,4),(0.,1.),(0.,1.82857142857143),.UNSPECIFIED.);
#320=ADVANCED_FACE('',(#106),#318,.T.);
#321=ADVANCED_FACE('',(#107),#91,.T.);
#322=ADVANCED_FACE('',(#108),#319,.T.);
#323=ADVANCED_FACE('',(#109),#92,.T.);
#324=ADVANCED_FACE('',(#110),#93,.F.);
#325=ADVANCED_FACE('',(#111),#94,.F.);
#326=ADVANCED_FACE('',(#112),#95,.F.);
#327=ADVANCED_FACE('',(#113),#96,.F.);
#328=ADVANCED_FACE('',(#114),#97,.F.);
#329=ADVANCED_FACE('',(#115),#98,.F.);
#330=ADVANCED_FACE('',(#116,#16),#99,.F.);
#331=ADVANCED_FACE('',(#117),#15,.F.);
#332=ADVANCED_FACE('',(#118),#100,.T.);
#333=ADVANCED_FACE('',(#119,#17),#101,.T.);
#334=ADVANCED_FACE('',(#120),#102,.T.);
#335=ADVANCED_FACE('',(#121,#18),#103,.T.);
#336=ADVANCED_FACE('',(#122),#104,.T.);
#337=ADVANCED_FACE('',(#123),#105,.F.);
#338=CLOSED_SHELL('',(#320,#321,#322,#323,#324,#325,#326,#327,#328,#329,
#330,#331,#332,#333,#334,#335,#336,#337));
#339=DERIVED_UNIT_ELEMENT(#341,1.);
#340=DERIVED_UNIT_ELEMENT(#596,-3.);
#341=(
MASS_UNIT()
NAMED_UNIT(*)
SI_UNIT(.KILO.,.GRAM.)
);
#342=DERIVED_UNIT((#339,#340));
#343=MEASURE_REPRESENTATION_ITEM('density measure',
POSITIVE_RATIO_MEASURE(7850.),#342);
#344=PROPERTY_DEFINITION_REPRESENTATION(#349,#346);
#345=PROPERTY_DEFINITION_REPRESENTATION(#350,#347);
#346=REPRESENTATION('material name',(#348),#593);
#347=REPRESENTATION('density',(#343),#593);
#348=DESCRIPTIVE_REPRESENTATION_ITEM('Steel','Steel');
#349=PROPERTY_DEFINITION('material property','material name',#603);
#350=PROPERTY_DEFINITION('material property','density of part',#603);
#351=AXIS2_PLACEMENT_3D('',#443,#370,#371);
#352=AXIS2_PLACEMENT_3D('',#480,#372,#373);
#353=AXIS2_PLACEMENT_3D('',#522,#377,#378);
#354=AXIS2_PLACEMENT_3D('',#528,#382,#383);
#355=AXIS2_PLACEMENT_3D('',#537,#388,#389);
#356=AXIS2_PLACEMENT_3D('',#543,#393,#394);
#357=AXIS2_PLACEMENT_3D('',#549,#398,#399);
#358=AXIS2_PLACEMENT_3D('',#555,#403,#404);
#359=AXIS2_PLACEMENT_3D('',#561,#408,#409);
#360=AXIS2_PLACEMENT_3D('',#564,#412,#413);
#361=AXIS2_PLACEMENT_3D('',#566,#414,#415);
#362=AXIS2_PLACEMENT_3D('',#567,#416,#417);
#363=AXIS2_PLACEMENT_3D('',#569,#418,#419);
#364=AXIS2_PLACEMENT_3D('',#571,#421,#422);
#365=AXIS2_PLACEMENT_3D('',#577,#426,#427);
#366=AXIS2_PLACEMENT_3D('',#580,#430,#431);
#367=AXIS2_PLACEMENT_3D('',#586,#435,#436);
#368=AXIS2_PLACEMENT_3D('',#589,#439,#440);
#369=AXIS2_PLACEMENT_3D('',#590,#441,#442);
#370=DIRECTION('axis',(0.,0.,1.));
#371=DIRECTION('refdir',(1.,0.,0.));
#372=DIRECTION('center_axis',(0.,0.964581999229682,0.263783181347997));
#373=DIRECTION('ref_axis',(0.,-0.263783181347997,0.964581999229682));
#374=DIRECTION('',(0.,-0.263783181347997,0.964581999229682));
#375=DIRECTION('',(1.,0.,0.));
#376=DIRECTION('',(0.,-0.263783181347997,0.964581999229682));
#377=DIRECTION('center_axis',(0.,-0.895601114143598,0.444858004698967));
#378=DIRECTION('ref_axis',(0.,-0.444858004698967,-0.895601114143598));
#379=DIRECTION('',(0.,-0.444858004698967,-0.895601114143598));
#380=DIRECTION('',(1.,0.,0.));
#381=DIRECTION('',(0.,-0.444858004698967,-0.895601114143598));
#382=DIRECTION('center_axis',(0.866025403784439,0.499999999999999,0.));
#383=DIRECTION('ref_axis',(-0.499999999999999,0.866025403784439,0.));
#384=DIRECTION('',(-0.499999999999999,0.866025403784439,-1.50231459873716E-16));
#385=DIRECTION('',(0.,0.,1.));
#386=DIRECTION('',(-0.499999999999999,0.866025403784439,0.));
#387=DIRECTION('',(0.,0.,1.));
#388=DIRECTION('center_axis',(0.866025403784438,-0.500000000000001,0.));
#389=DIRECTION('ref_axis',(0.500000000000001,0.866025403784438,0.));
#390=DIRECTION('',(0.500000000000001,0.866025403784438,-1.50231459873716E-16));
#391=DIRECTION('',(0.,0.,1.));
#392=DIRECTION('',(0.500000000000001,0.866025403784438,0.));
#393=DIRECTION('center_axis',(-4.80740671595891E-16,-1.,0.));
#394=DIRECTION('ref_axis',(1.,-4.80740671595891E-16,0.));
#395=DIRECTION('',(1.,-4.80740671595891E-16,8.33952128874249E-32));
#396=DIRECTION('',(0.,0.,1.));
#397=DIRECTION('',(1.,-4.80740671595891E-16,0.));
#398=DIRECTION('center_axis',(-0.866025403784439,-0.5,0.));
#399=DIRECTION('ref_axis',(0.5,-0.866025403784439,0.));
#400=DIRECTION('',(0.5,-0.866025403784439,1.50231459873716E-16));
#401=DIRECTION('',(0.,0.,1.));
#402=DIRECTION('',(0.5,-0.866025403784439,0.));
#403=DIRECTION('center_axis',(-0.866025403784438,0.5,0.));
#404=DIRECTION('ref_axis',(-0.5,-0.866025403784438,0.));
#405=DIRECTION('',(-0.5,-0.866025403784438,1.50231459873716E-16));
#406=DIRECTION('',(0.,0.,1.));
#407=DIRECTION('',(-0.5,-0.866025403784438,0.));
#408=DIRECTION('center_axis',(4.80740671595891E-16,1.,0.));
#409=DIRECTION('ref_axis',(-1.,4.80740671595891E-16,0.));
#410=DIRECTION('',(-1.,4.80740671595891E-16,-8.33952128874249E-32));
#411=DIRECTION('',(-1.,4.80740671595891E-16,0.));
#412=DIRECTION('center_axis',(0.,0.,1.));
#413=DIRECTION('ref_axis',(-1.,0.,0.));
#414=DIRECTION('center_axis',(0.,0.,-1.));
#415=DIRECTION('ref_axis',(-1.,0.,0.));
#416=DIRECTION('center_axis',(0.,0.,-1.));
#417=DIRECTION('ref_axis',(-1.,0.,0.));
#418=DIRECTION('center_axis',(0.,0.,-1.));
#419=DIRECTION('ref_axis',(-1.,0.,0.));
#420=DIRECTION('',(0.,0.,-1.));
#421=DIRECTION('center_axis',(0.,-0.964581999229682,0.263783181347997));
#422=DIRECTION('ref_axis',(0.,-0.263783181347997,-0.964581999229682));
#423=DIRECTION('',(0.,-0.263783181347997,-0.964581999229682));
#424=DIRECTION('',(1.,0.,0.));
#425=DIRECTION('',(0.,0.263783181347997,0.964581999229682));
#426=DIRECTION('center_axis',(0.,0.,1.));
#427=DIRECTION('ref_axis',(0.,-1.,0.));
#428=DIRECTION('',(0.,1.,0.));
#429=DIRECTION('',(0.,-1.,0.));
#430=DIRECTION('center_axis',(0.,0.895601114143598,0.444858004698967));
#431=DIRECTION('ref_axis',(0.,-0.444858004698967,0.895601114143598));
#432=DIRECTION('',(0.,-0.444858004698967,0.895601114143598));
#433=DIRECTION('',(1.,0.,0.));
#434=DIRECTION('',(0.,0.444858004698967,-0.895601114143598));
#435=DIRECTION('center_axis',(0.,-1.73472347597681E-16,-1.));
#436=DIRECTION('ref_axis',(0.,1.,-1.73472347597681E-16));
#437=DIRECTION('',(0.,1.,-1.73472347597681E-16));
#438=DIRECTION('',(0.,1.,-1.73472347597681E-16));
#439=DIRECTION('center_axis',(1.,0.,0.));
#440=DIRECTION('ref_axis',(0.,0.,-1.));
#441=DIRECTION('center_axis',(1.,0.,0.));
#442=DIRECTION('ref_axis',(0.,1.,0.));
#443=CARTESIAN_POINT('',(0.,0.,0.));
#444=CARTESIAN_POINT('Ctrl Pts',(-4.70218327887003E-25,12.1352443801424,
-10.6616945913325));
#445=CARTESIAN_POINT('Ctrl Pts',(6.09587367492305,12.1352443801424,-10.6616945913325));
#446=CARTESIAN_POINT('Ctrl Pts',(12.1898406106703,12.1352443801424,-10.6616945913325));
#447=CARTESIAN_POINT('Ctrl Pts',(18.2857142857143,12.1352443801424,-10.6616945913325));
#448=CARTESIAN_POINT('Ctrl Pts',(-4.70218327887003E-25,11.0529866706956,
-8.4828617949508));
#449=CARTESIAN_POINT('Ctrl Pts',(6.09587367492304,11.0529866706956,-8.4828617949508));
#450=CARTESIAN_POINT('Ctrl Pts',(12.1898406106703,11.0529866706956,-8.4828617949508));
#451=CARTESIAN_POINT('Ctrl Pts',(18.2857142857143,11.0529866706956,-8.4828617949508));
#452=CARTESIAN_POINT('Ctrl Pts',(-4.70218327887003E-25,10.1787668690924,
-6.18803481574224));
#453=CARTESIAN_POINT('Ctrl Pts',(6.09587367492305,10.1787668690924,-6.18803481574224));
#454=CARTESIAN_POINT('Ctrl Pts',(12.1898406106703,10.1787668690924,-6.18803481574224));
#455=CARTESIAN_POINT('Ctrl Pts',(18.2857142857143,10.1787668690924,-6.18803481574224));
#456=CARTESIAN_POINT('Ctrl Pts',(-4.70218327887003E-25,9.53703090251254,
-3.84138421255404));
#457=CARTESIAN_POINT('Ctrl Pts',(6.09587367492305,9.53703090251254,-3.84138421255404));
#458=CARTESIAN_POINT('Ctrl Pts',(12.1898406106703,9.53703090251254,-3.84138421255404));
#459=CARTESIAN_POINT('Ctrl Pts',(18.2857142857143,9.53703090251254,-3.84138421255404));
#460=CARTESIAN_POINT('',(5.07242832500547E-25,12.1352443801424,-10.6616945913325));
#461=CARTESIAN_POINT('',(5.07242832500547E-25,9.53703090251254,-3.84138421255404));
#462=CARTESIAN_POINT('Ctrl Pts',(1.01448566500109E-24,12.1352443801424,
-10.6616945913325));
#463=CARTESIAN_POINT('Ctrl Pts',(1.01448566500109E-24,11.0529866706956,
-8.4828617949508));
#464=CARTESIAN_POINT('Ctrl Pts',(1.0144856650011E-24,10.1787668690924,-6.18803481574224));
#465=CARTESIAN_POINT('Ctrl Pts',(1.01448566500109E-24,9.53703090251254,
-3.84138421255404));
#466=CARTESIAN_POINT('',(18.2857142857143,9.53703090251254,-3.84138421255404));
#467=CARTESIAN_POINT('Ctrl Pts',(-4.70218327887003E-25,9.53703090251254,
-3.84138421255404));
#468=CARTESIAN_POINT('Ctrl Pts',(6.09587367492305,9.53703090251254,-3.84138421255404));
#469=CARTESIAN_POINT('Ctrl Pts',(12.1898406106703,9.53703090251254,-3.84138421255404));
#470=CARTESIAN_POINT('Ctrl Pts',(18.2857142857143,9.53703090251254,-3.84138421255404));
#471=CARTESIAN_POINT('',(18.2857142857143,12.1352443801424,-10.6616945913325));
#472=CARTESIAN_POINT('Ctrl Pts',(18.2857142857143,9.53703090251254,-3.84138421255404));
#473=CARTESIAN_POINT('Ctrl Pts',(18.2857142857143,10.1787668690924,-6.18803481574224));
#474=CARTESIAN_POINT('Ctrl Pts',(18.2857142857143,11.0529866706956,-8.4828617949508));
#475=CARTESIAN_POINT('Ctrl Pts',(18.2857142857143,12.1352443801424,-10.6616945913325));
#476=CARTESIAN_POINT('Ctrl Pts',(18.2857142857143,12.1352443801424,-10.6616945913325));
#477=CARTESIAN_POINT('Ctrl Pts',(12.1898406106703,12.1352443801424,-10.6616945913325));
#478=CARTESIAN_POINT('Ctrl Pts',(6.09587367492305,12.1352443801424,-10.6616945913325));
#479=CARTESIAN_POINT('Ctrl Pts',(-4.70218327887003E-25,12.1352443801424,
-10.6616945913325));
#480=CARTESIAN_POINT('Origin',(0.,10.5041847039641,-7.377997663796));
#481=CARTESIAN_POINT('',(0.,9.14285714285714,-2.4));
#482=CARTESIAN_POINT('',(0.,10.5041847039641,-7.377997663796));
#483=CARTESIAN_POINT('',(18.2857142857143,9.14285714285714,-2.4));
#484=CARTESIAN_POINT('',(0.,9.14285714285714,-2.4));
#485=CARTESIAN_POINT('',(18.2857142857143,10.5041847039641,-7.377997663796));
#486=CARTESIAN_POINT('Ctrl Pts',(-2.01991270021889E-24,-9.53703090251254,
-3.84138421255405));
#487=CARTESIAN_POINT('Ctrl Pts',(6.09587367465642,-9.53703090251254,-3.84138421255405));
#488=CARTESIAN_POINT('Ctrl Pts',(12.1898406102699,-9.53703090251254,-3.84138421255405));
#489=CARTESIAN_POINT('Ctrl Pts',(18.2857142857143,-9.53703090251254,-3.84138421255405));
#490=CARTESIAN_POINT('Ctrl Pts',(-2.01991270021889E-24,-10.1787668690924,
-6.18803481574225));
#491=CARTESIAN_POINT('Ctrl Pts',(6.09587367465642,-10.1787668690924,-6.18803481574225));
#492=CARTESIAN_POINT('Ctrl Pts',(12.1898406102699,-10.1787668690924,-6.18803481574225));
#493=CARTESIAN_POINT('Ctrl Pts',(18.2857142857143,-10.1787668690924,-6.18803481574225));
#494=CARTESIAN_POINT('Ctrl Pts',(-2.01991270021889E-24,-11.0529866706956,
-8.4828617949508));
#495=CARTESIAN_POINT('Ctrl Pts',(6.09587367465642,-11.0529866706956,-8.4828617949508));
#496=CARTESIAN_POINT('Ctrl Pts',(12.1898406102699,-11.0529866706956,-8.4828617949508));
#497=CARTESIAN_POINT('Ctrl Pts',(18.2857142857143,-11.0529866706956,-8.4828617949508));
#498=CARTESIAN_POINT('Ctrl Pts',(-2.01991270021889E-24,-12.1352443801424,
-10.6616945913325));
#499=CARTESIAN_POINT('Ctrl Pts',(6.09587367465642,-12.1352443801424,-10.6616945913325));
#500=CARTESIAN_POINT('Ctrl Pts',(12.1898406102699,-12.1352443801424,-10.6616945913325));
#501=CARTESIAN_POINT('Ctrl Pts',(18.2857142857143,-12.1352443801424,-10.6616945913325));
#502=CARTESIAN_POINT('',(-1.00995635010944E-24,-9.53703090251254,-3.84138421255405));
#503=CARTESIAN_POINT('',(-1.00995635010944E-24,-12.1352443801424,-10.6616945913325));
#504=CARTESIAN_POINT('Ctrl Pts',(-2.01991270021889E-24,-9.53703090251254,
-3.84138421255405));
#505=CARTESIAN_POINT('Ctrl Pts',(-2.01991270021889E-24,-10.1787668690924,
-6.18803481574225));
#506=CARTESIAN_POINT('Ctrl Pts',(-2.01991270021889E-24,-11.0529866706956,
-8.4828617949508));
#507=CARTESIAN_POINT('Ctrl Pts',(-2.01991270021889E-24,-12.1352443801424,
-10.6616945913325));
#508=CARTESIAN_POINT('',(18.2857142857143,-12.1352443801424,-10.6616945913325));
#509=CARTESIAN_POINT('Ctrl Pts',(-2.01991270021889E-24,-12.1352443801424,
-10.6616945913325));
#510=CARTESIAN_POINT('Ctrl Pts',(6.09587367465642,-12.1352443801424,-10.6616945913325));
#511=CARTESIAN_POINT('Ctrl Pts',(12.1898406102699,-12.1352443801424,-10.6616945913325));
#512=CARTESIAN_POINT('Ctrl Pts',(18.2857142857143,-12.1352443801424,-10.6616945913325));
#513=CARTESIAN_POINT('',(18.2857142857143,-9.53703090251254,-3.84138421255405));
#514=CARTESIAN_POINT('Ctrl Pts',(18.2857142857143,-12.1352443801424,-10.6616945913325));
#515=CARTESIAN_POINT('Ctrl Pts',(18.2857142857143,-11.0529866706956,-8.4828617949508));
#516=CARTESIAN_POINT('Ctrl Pts',(18.2857142857143,-10.1787668690924,-6.18803481574225));
#517=CARTESIAN_POINT('Ctrl Pts',(18.2857142857143,-9.53703090251254,-3.84138421255405));
#518=CARTESIAN_POINT('Ctrl Pts',(18.2857142857143,-9.53703090251254,-3.84138421255405));
#519=CARTESIAN_POINT('Ctrl Pts',(12.1898406102699,-9.53703090251254,-3.84138421255405));
#520=CARTESIAN_POINT('Ctrl Pts',(6.09587367465642,-9.53703090251254,-3.84138421255405));
#521=CARTESIAN_POINT('Ctrl Pts',(-2.01991270021889E-24,-9.53703090251254,
-3.84138421255405));
#522=CARTESIAN_POINT('Origin',(0.,-10.5041847039641,-7.37799766379599));
#523=CARTESIAN_POINT('',(0.,-12.8,-12.));
#524=CARTESIAN_POINT('',(0.,-10.5041847039641,-7.37799766379599));
#525=CARTESIAN_POINT('',(18.2857142857143,-12.8,-12.));
#526=CARTESIAN_POINT('',(0.,-12.8,-12.));
#527=CARTESIAN_POINT('',(18.2857142857143,-10.5041847039641,-7.37799766379599));
#528=CARTESIAN_POINT('Origin',(16.0710603731326,-4.9960036108132E-15,-12.));
#529=CARTESIAN_POINT('',(16.0710603731326,-4.9960036108132E-15,-12.));
#530=CARTESIAN_POINT('',(12.6069587579949,6.,-12.));
#531=CARTESIAN_POINT('',(16.8334591186013,-1.32051336277843,-12.));
#532=CARTESIAN_POINT('',(16.0710603731326,-4.9960036108132E-15,-7.));
#533=CARTESIAN_POINT('',(16.0710603731326,-4.9960036108132E-15,-12.));
#534=CARTESIAN_POINT('',(12.6069587579949,6.,-7.));
#535=CARTESIAN_POINT('',(16.0710603731326,-4.9960036108132E-15,-7.));
#536=CARTESIAN_POINT('',(12.6069587579949,6.,-12.));
#537=CARTESIAN_POINT('Origin',(12.6069587579949,-6.,-12.));
#538=CARTESIAN_POINT('',(12.6069587579949,-6.,-12.));
#539=CARTESIAN_POINT('',(9.55884572681198,-11.2794866372216,-12.));
#540=CARTESIAN_POINT('',(12.6069587579949,-6.,-7.));
#541=CARTESIAN_POINT('',(12.6069587579949,-6.,-12.));
#542=CARTESIAN_POINT('',(12.6069587579949,-6.,-7.));
#543=CARTESIAN_POINT('Origin',(5.67875552771939,-6.,-12.));
#544=CARTESIAN_POINT('',(5.67875552771939,-6.,-12.));
#545=CARTESIAN_POINT('',(2.83937776385969,-6.,-12.));
#546=CARTESIAN_POINT('',(5.67875552771939,-6.,-7.));
#547=CARTESIAN_POINT('',(5.67875552771939,-6.,-12.));
#548=CARTESIAN_POINT('',(5.67875552771939,-6.,-7.));
#549=CARTESIAN_POINT('Origin',(2.21465391258163,2.77555756156289E-15,-12.));
#550=CARTESIAN_POINT('',(2.21465391258163,2.77555756156289E-15,-12.));
#551=CARTESIAN_POINT('',(4.70910346561913,-4.32051336277843,-12.));
#552=CARTESIAN_POINT('',(2.21465391258163,2.77555756156289E-15,-7.));
#553=CARTESIAN_POINT('',(2.21465391258163,2.77555756156289E-15,-12.));
#554=CARTESIAN_POINT('',(2.21465391258163,2.77555756156289E-15,-7.));
#555=CARTESIAN_POINT('Origin',(5.67875552771939,6.,-12.));
#556=CARTESIAN_POINT('',(5.67875552771939,6.,-12.));
#557=CARTESIAN_POINT('',(0.898591688967601,-2.27948663722157,-12.));
#558=CARTESIAN_POINT('',(5.67875552771939,6.,-7.));
#559=CARTESIAN_POINT('',(5.67875552771939,6.,-12.));
#560=CARTESIAN_POINT('',(5.67875552771939,6.,-7.));
#561=CARTESIAN_POINT('Origin',(12.6069587579949,6.,-12.));
#562=CARTESIAN_POINT('',(6.30347937899746,6.,-12.));
#563=CARTESIAN_POINT('',(12.6069587579949,6.,-7.));
#564=CARTESIAN_POINT('Origin',(9.14285714285714,-1.11022302462516E-15,-7.));
#565=CARTESIAN_POINT('',(13.1428571428571,4.89858719658941E-16,-7.));
#566=CARTESIAN_POINT('Origin',(9.14285714285714,0.,-7.));
#567=CARTESIAN_POINT('Origin',(9.14285714285714,0.,-2.4));
#568=CARTESIAN_POINT('',(13.1428571428571,4.89858719658941E-16,-2.4));
#569=CARTESIAN_POINT('Origin',(9.14285714285714,0.,-2.4));
#570=CARTESIAN_POINT('',(13.1428571428571,-4.89858719658941E-16,-2.4));
#571=CARTESIAN_POINT('Origin',(0.,-9.14285714285714,-2.4));
#572=CARTESIAN_POINT('',(18.2857142857143,-9.14285714285714,-2.4));
#573=CARTESIAN_POINT('',(18.2857142857143,-10.5041847039641,-7.37799766379599));
#574=CARTESIAN_POINT('',(0.,-9.14285714285714,-2.4));
#575=CARTESIAN_POINT('',(0.,-9.14285714285714,-2.4));
#576=CARTESIAN_POINT('',(0.,-10.5041847039641,-7.37799766379599));
#577=CARTESIAN_POINT('Origin',(0.,9.14285714285714,-2.4));
#578=CARTESIAN_POINT('',(0.,0.,-2.4));
#579=CARTESIAN_POINT('',(18.2857142857143,0.,-2.4));
#580=CARTESIAN_POINT('Origin',(0.,12.8,-12.));
#581=CARTESIAN_POINT('',(18.2857142857143,12.8,-12.));
#582=CARTESIAN_POINT('',(18.2857142857143,10.5041847039641,-7.377997663796));
#583=CARTESIAN_POINT('',(0.,12.8,-12.));
#584=CARTESIAN_POINT('',(0.,12.8,-12.));
#585=CARTESIAN_POINT('',(0.,10.5041847039641,-7.377997663796));
#586=CARTESIAN_POINT('Origin',(0.,-12.8,-12.));
#587=CARTESIAN_POINT('',(0.,-12.8,-12.));
#588=CARTESIAN_POINT('',(18.2857142857143,-12.8,-12.));
#589=CARTESIAN_POINT('Origin',(18.2857142857143,0.,-7.2));
#590=CARTESIAN_POINT('Origin',(0.,0.,-7.2));
#591=UNCERTAINTY_MEASURE_WITH_UNIT(LENGTH_MEASURE(0.01),#595,
'DISTANCE_ACCURACY_VALUE',
'Maximum model space distance between geometric entities at asserted c
onnectivities');
#592=UNCERTAINTY_MEASURE_WITH_UNIT(LENGTH_MEASURE(0.01),#595,
'DISTANCE_ACCURACY_VALUE',
'Maximum model space distance between geometric entities at asserted c
onnectivities');
#593=(
GEOMETRIC_REPRESENTATION_CONTEXT(3)
GLOBAL_UNCERTAINTY_ASSIGNED_CONTEXT((#591))
GLOBAL_UNIT_ASSIGNED_CONTEXT((#595,#597,#598))
REPRESENTATION_CONTEXT('','3D')
);
#594=(
GEOMETRIC_REPRESENTATION_CONTEXT(3)
GLOBAL_UNCERTAINTY_ASSIGNED_CONTEXT((#592))
GLOBAL_UNIT_ASSIGNED_CONTEXT((#595,#597,#598))
REPRESENTATION_CONTEXT('','3D')
);
#595=(
LENGTH_UNIT()
NAMED_UNIT(*)
SI_UNIT(.MILLI.,.METRE.)
);
#596=(
LENGTH_UNIT()
NAMED_UNIT(*)
SI_UNIT($,.METRE.)
);
#597=(
NAMED_UNIT(*)
PLANE_ANGLE_UNIT()
SI_UNIT($,.RADIAN.)
);
#598=(
NAMED_UNIT(*)
SI_UNIT($,.STERADIAN.)
SOLID_ANGLE_UNIT()
);
#599=SHAPE_DEFINITION_REPRESENTATION(#600,#601);
#600=PRODUCT_DEFINITION_SHAPE('',$,#603);
#601=SHAPE_REPRESENTATION('',(#351),#593);
#602=PRODUCT_DEFINITION_CONTEXT('part definition',#607,'design');
#603=PRODUCT_DEFINITION('2026-09-26-19-45-17-720','dowelGripNut',#604,#602);
#604=PRODUCT_DEFINITION_FORMATION('',$,#609);
#605=PRODUCT_RELATED_PRODUCT_CATEGORY('dowelGripNut','dowelGripNut',(#609));
#606=APPLICATION_PROTOCOL_DEFINITION('international standard',
'automotive_design',2009,#607);
#607=APPLICATION_CONTEXT(
'Core Data for Automotive Mechanical Design Process');
#608=PRODUCT_CONTEXT('part definition',#607,'mechanical');
#609=PRODUCT('2026-09-26-19-45-17-720','dowelGripNut',$,(#608));
#610=PRESENTATION_STYLE_ASSIGNMENT((#611));
#611=SURFACE_STYLE_USAGE(.BOTH.,#612);
#612=SURFACE_SIDE_STYLE('',(#613));
#613=SURFACE_STYLE_FILL_AREA(#614);
#614=FILL_AREA_STYLE('Steel - Satin',(#615));
#615=FILL_AREA_STYLE_COLOUR('Steel - Satin',#616);
#616=COLOUR_RGB('Steel - Satin',0.627450980392157,0.627450980392157,0.627450980392157);
ENDSEC;
END-ISO-10303-21;
