ISO-10303-21;
HEADER;
/* Generated by software containing ST-Developer
 * from STEP Tools, Inc. (www.steptools.com) 
 */

FILE_DESCRIPTION(
/* description */ (''),
/* implementation_level */ '2;1');

FILE_NAME(
/* name */ 'screenTopMount.step',
/* time_stamp */ '2026-10-07T16:24:40+01:00',
/* author */ (''),
/* organization */ (''),
/* preprocessor_version */ 'ST-DEVELOPER v20.1',
/* originating_system */ 'Autodesk Translation Framework v15.8.0.0',
/* authorisation */ '');

FILE_SCHEMA (('AUTOMOTIVE_DESIGN { 1 0 10303 214 3 1 1 }'));
ENDSEC;

DATA;
#10=MECHANICAL_DESIGN_GEOMETRIC_PRESENTATION_REPRESENTATION('',(#13),#546);
#11=SHAPE_REPRESENTATION_RELATIONSHIP('SRR','None',#553,#12);
#12=ADVANCED_BREP_SHAPE_REPRESENTATION('',(#14),#545);
#13=STYLED_ITEM('',(#562),#14);
#14=MANIFOLD_SOLID_BREP('Body1',#338);
#15=FACE_OUTER_BOUND('',#32,.T.);
#16=FACE_OUTER_BOUND('',#33,.T.);
#17=FACE_OUTER_BOUND('',#34,.T.);
#18=FACE_OUTER_BOUND('',#35,.T.);
#19=FACE_OUTER_BOUND('',#36,.T.);
#20=FACE_OUTER_BOUND('',#37,.T.);
#21=FACE_OUTER_BOUND('',#38,.T.);
#22=FACE_OUTER_BOUND('',#39,.T.);
#23=FACE_OUTER_BOUND('',#40,.T.);
#24=FACE_OUTER_BOUND('',#41,.T.);
#25=FACE_OUTER_BOUND('',#42,.T.);
#26=FACE_OUTER_BOUND('',#43,.T.);
#27=FACE_OUTER_BOUND('',#44,.T.);
#28=FACE_OUTER_BOUND('',#45,.T.);
#29=FACE_OUTER_BOUND('',#46,.T.);
#30=FACE_OUTER_BOUND('',#47,.T.);
#31=FACE_OUTER_BOUND('',#48,.T.);
#32=EDGE_LOOP('',(#214,#215,#216,#217));
#33=EDGE_LOOP('',(#218,#219,#220,#221,#222,#223,#224,#225,#226,#227,#228,
#229,#230,#231,#232));
#34=EDGE_LOOP('',(#233,#234,#235,#236));
#35=EDGE_LOOP('',(#237,#238,#239,#240));
#36=EDGE_LOOP('',(#241,#242,#243,#244));
#37=EDGE_LOOP('',(#245,#246,#247,#248));
#38=EDGE_LOOP('',(#249,#250,#251,#252));
#39=EDGE_LOOP('',(#253,#254,#255,#256));
#40=EDGE_LOOP('',(#257,#258,#259,#260));
#41=EDGE_LOOP('',(#261,#262,#263,#264));
#42=EDGE_LOOP('',(#265,#266,#267,#268));
#43=EDGE_LOOP('',(#269,#270,#271,#272));
#44=EDGE_LOOP('',(#273,#274,#275,#276));
#45=EDGE_LOOP('',(#277,#278,#279,#280));
#46=EDGE_LOOP('',(#281,#282,#283,#284));
#47=EDGE_LOOP('',(#285,#286,#287,#288));
#48=EDGE_LOOP('',(#289,#290,#291,#292,#293,#294,#295,#296,#297,#298,#299,
#300,#301,#302,#303));
#49=LINE('',#454,#94);
#50=LINE('',#456,#95);
#51=LINE('',#458,#96);
#52=LINE('',#459,#97);
#53=LINE('',#462,#98);
#54=LINE('',#464,#99);
#55=LINE('',#466,#100);
#56=LINE('',#468,#101);
#57=LINE('',#470,#102);
#58=LINE('',#472,#103);
#59=LINE('',#474,#104);
#60=LINE('',#476,#105);
#61=LINE('',#478,#106);
#62=LINE('',#480,#107);
#63=LINE('',#482,#108);
#64=LINE('',#484,#109);
#65=LINE('',#486,#110);
#66=LINE('',#487,#111);
#67=LINE('',#490,#112);
#68=LINE('',#492,#113);
#69=LINE('',#493,#114);
#70=LINE('',#496,#115);
#71=LINE('',#497,#116);
#72=LINE('',#500,#117);
#73=LINE('',#502,#118);
#74=LINE('',#503,#119);
#75=LINE('',#506,#120);
#76=LINE('',#507,#121);
#77=LINE('',#510,#122);
#78=LINE('',#512,#123);
#79=LINE('',#513,#124);
#80=LINE('',#516,#125);
#81=LINE('',#517,#126);
#82=LINE('',#519,#127);
#83=LINE('',#522,#128);
#84=LINE('',#523,#129);
#85=LINE('',#526,#130);
#86=LINE('',#527,#131);
#87=LINE('',#530,#132);
#88=LINE('',#531,#133);
#89=LINE('',#533,#134);
#90=LINE('',#535,#135);
#91=LINE('',#538,#136);
#92=LINE('',#539,#137);
#93=LINE('',#541,#138);
#94=VECTOR('',#373,10.);
#95=VECTOR('',#374,10.);
#96=VECTOR('',#375,10.);
#97=VECTOR('',#376,10.);
#98=VECTOR('',#379,10.);
#99=VECTOR('',#380,10.);
#100=VECTOR('',#381,10.);
#101=VECTOR('',#382,10.);
#102=VECTOR('',#383,10.);
#103=VECTOR('',#384,10.);
#104=VECTOR('',#385,10.);
#105=VECTOR('',#386,10.);
#106=VECTOR('',#387,10.);
#107=VECTOR('',#388,10.);
#108=VECTOR('',#389,10.);
#109=VECTOR('',#390,10.);
#110=VECTOR('',#391,10.);
#111=VECTOR('',#392,10.);
#112=VECTOR('',#395,10.);
#113=VECTOR('',#396,10.);
#114=VECTOR('',#397,10.);
#115=VECTOR('',#400,10.);
#116=VECTOR('',#401,10.);
#117=VECTOR('',#404,10.);
#118=VECTOR('',#405,10.);
#119=VECTOR('',#406,10.);
#120=VECTOR('',#409,10.);
#121=VECTOR('',#410,10.);
#122=VECTOR('',#413,10.);
#123=VECTOR('',#414,10.);
#124=VECTOR('',#415,10.);
#125=VECTOR('',#418,10.);
#126=VECTOR('',#419,10.);
#127=VECTOR('',#422,10.);
#128=VECTOR('',#425,10.);
#129=VECTOR('',#426,10.);
#130=VECTOR('',#429,10.);
#131=VECTOR('',#430,10.);
#132=VECTOR('',#433,10.);
#133=VECTOR('',#434,10.);
#134=VECTOR('',#437,10.);
#135=VECTOR('',#440,10.);
#136=VECTOR('',#443,10.);
#137=VECTOR('',#444,10.);
#138=VECTOR('',#447,10.);
#139=VERTEX_POINT('',#452);
#140=VERTEX_POINT('',#453);
#141=VERTEX_POINT('',#455);
#142=VERTEX_POINT('',#457);
#143=VERTEX_POINT('',#461);
#144=VERTEX_POINT('',#463);
#145=VERTEX_POINT('',#465);
#146=VERTEX_POINT('',#467);
#147=VERTEX_POINT('',#469);
#148=VERTEX_POINT('',#471);
#149=VERTEX_POINT('',#473);
#150=VERTEX_POINT('',#475);
#151=VERTEX_POINT('',#477);
#152=VERTEX_POINT('',#479);
#153=VERTEX_POINT('',#481);
#154=VERTEX_POINT('',#483);
#155=VERTEX_POINT('',#485);
#156=VERTEX_POINT('',#489);
#157=VERTEX_POINT('',#491);
#158=VERTEX_POINT('',#495);
#159=VERTEX_POINT('',#499);
#160=VERTEX_POINT('',#501);
#161=VERTEX_POINT('',#505);
#162=VERTEX_POINT('',#509);
#163=VERTEX_POINT('',#511);
#164=VERTEX_POINT('',#515);
#165=VERTEX_POINT('',#521);
#166=VERTEX_POINT('',#525);
#167=VERTEX_POINT('',#529);
#168=VERTEX_POINT('',#537);
#169=EDGE_CURVE('',#139,#140,#49,.T.);
#170=EDGE_CURVE('',#141,#140,#50,.T.);
#171=EDGE_CURVE('',#141,#142,#51,.T.);
#172=EDGE_CURVE('',#142,#139,#52,.T.);
#173=EDGE_CURVE('',#139,#143,#53,.T.);
#174=EDGE_CURVE('',#143,#144,#54,.T.);
#175=EDGE_CURVE('',#144,#145,#55,.T.);
#176=EDGE_CURVE('',#145,#146,#56,.T.);
#177=EDGE_CURVE('',#146,#147,#57,.T.);
#178=EDGE_CURVE('',#148,#147,#58,.T.);
#179=EDGE_CURVE('',#148,#149,#59,.T.);
#180=EDGE_CURVE('',#150,#149,#60,.T.);
#181=EDGE_CURVE('',#150,#151,#61,.T.);
#182=EDGE_CURVE('',#151,#152,#62,.T.);
#183=EDGE_CURVE('',#152,#153,#63,.T.);
#184=EDGE_CURVE('',#153,#154,#64,.T.);
#185=EDGE_CURVE('',#155,#154,#65,.T.);
#186=EDGE_CURVE('',#155,#140,#66,.T.);
#187=EDGE_CURVE('',#154,#156,#67,.T.);
#188=EDGE_CURVE('',#156,#157,#68,.T.);
#189=EDGE_CURVE('',#157,#155,#69,.T.);
#190=EDGE_CURVE('',#158,#153,#70,.T.);
#191=EDGE_CURVE('',#156,#158,#71,.T.);
#192=EDGE_CURVE('',#147,#159,#72,.T.);
#193=EDGE_CURVE('',#159,#160,#73,.T.);
#194=EDGE_CURVE('',#160,#148,#74,.T.);
#195=EDGE_CURVE('',#161,#146,#75,.T.);
#196=EDGE_CURVE('',#159,#161,#76,.T.);
#197=EDGE_CURVE('',#162,#149,#77,.T.);
#198=EDGE_CURVE('',#162,#163,#78,.T.);
#199=EDGE_CURVE('',#163,#150,#79,.T.);
#200=EDGE_CURVE('',#163,#164,#80,.T.);
#201=EDGE_CURVE('',#164,#151,#81,.T.);
#202=EDGE_CURVE('',#162,#160,#82,.T.);
#203=EDGE_CURVE('',#161,#165,#83,.T.);
#204=EDGE_CURVE('',#165,#145,#84,.T.);
#205=EDGE_CURVE('',#165,#166,#85,.T.);
#206=EDGE_CURVE('',#166,#144,#86,.T.);
#207=EDGE_CURVE('',#167,#166,#87,.T.);
#208=EDGE_CURVE('',#167,#143,#88,.T.);
#209=EDGE_CURVE('',#167,#142,#89,.T.);
#210=EDGE_CURVE('',#141,#157,#90,.T.);
#211=EDGE_CURVE('',#158,#168,#91,.T.);
#212=EDGE_CURVE('',#168,#152,#92,.T.);
#213=EDGE_CURVE('',#164,#168,#93,.T.);
#214=ORIENTED_EDGE('',*,*,#169,.T.);
#215=ORIENTED_EDGE('',*,*,#170,.F.);
#216=ORIENTED_EDGE('',*,*,#171,.T.);
#217=ORIENTED_EDGE('',*,*,#172,.T.);
#218=ORIENTED_EDGE('',*,*,#169,.F.);
#219=ORIENTED_EDGE('',*,*,#173,.T.);
#220=ORIENTED_EDGE('',*,*,#174,.T.);
#221=ORIENTED_EDGE('',*,*,#175,.T.);
#222=ORIENTED_EDGE('',*,*,#176,.T.);
#223=ORIENTED_EDGE('',*,*,#177,.T.);
#224=ORIENTED_EDGE('',*,*,#178,.F.);
#225=ORIENTED_EDGE('',*,*,#179,.T.);
#226=ORIENTED_EDGE('',*,*,#180,.F.);
#227=ORIENTED_EDGE('',*,*,#181,.T.);
#228=ORIENTED_EDGE('',*,*,#182,.T.);
#229=ORIENTED_EDGE('',*,*,#183,.T.);
#230=ORIENTED_EDGE('',*,*,#184,.T.);
#231=ORIENTED_EDGE('',*,*,#185,.F.);
#232=ORIENTED_EDGE('',*,*,#186,.T.);
#233=ORIENTED_EDGE('',*,*,#185,.T.);
#234=ORIENTED_EDGE('',*,*,#187,.T.);
#235=ORIENTED_EDGE('',*,*,#188,.T.);
#236=ORIENTED_EDGE('',*,*,#189,.T.);
#237=ORIENTED_EDGE('',*,*,#187,.F.);
#238=ORIENTED_EDGE('',*,*,#184,.F.);
#239=ORIENTED_EDGE('',*,*,#190,.F.);
#240=ORIENTED_EDGE('',*,*,#191,.F.);
#241=ORIENTED_EDGE('',*,*,#178,.T.);
#242=ORIENTED_EDGE('',*,*,#192,.T.);
#243=ORIENTED_EDGE('',*,*,#193,.T.);
#244=ORIENTED_EDGE('',*,*,#194,.T.);
#245=ORIENTED_EDGE('',*,*,#192,.F.);
#246=ORIENTED_EDGE('',*,*,#177,.F.);
#247=ORIENTED_EDGE('',*,*,#195,.F.);
#248=ORIENTED_EDGE('',*,*,#196,.F.);
#249=ORIENTED_EDGE('',*,*,#180,.T.);
#250=ORIENTED_EDGE('',*,*,#197,.F.);
#251=ORIENTED_EDGE('',*,*,#198,.T.);
#252=ORIENTED_EDGE('',*,*,#199,.T.);
#253=ORIENTED_EDGE('',*,*,#199,.F.);
#254=ORIENTED_EDGE('',*,*,#200,.T.);
#255=ORIENTED_EDGE('',*,*,#201,.T.);
#256=ORIENTED_EDGE('',*,*,#181,.F.);
#257=ORIENTED_EDGE('',*,*,#202,.F.);
#258=ORIENTED_EDGE('',*,*,#197,.T.);
#259=ORIENTED_EDGE('',*,*,#179,.F.);
#260=ORIENTED_EDGE('',*,*,#194,.F.);
#261=ORIENTED_EDGE('',*,*,#203,.F.);
#262=ORIENTED_EDGE('',*,*,#195,.T.);
#263=ORIENTED_EDGE('',*,*,#176,.F.);
#264=ORIENTED_EDGE('',*,*,#204,.F.);
#265=ORIENTED_EDGE('',*,*,#205,.F.);
#266=ORIENTED_EDGE('',*,*,#204,.T.);
#267=ORIENTED_EDGE('',*,*,#175,.F.);
#268=ORIENTED_EDGE('',*,*,#206,.F.);
#269=ORIENTED_EDGE('',*,*,#207,.T.);
#270=ORIENTED_EDGE('',*,*,#206,.T.);
#271=ORIENTED_EDGE('',*,*,#174,.F.);
#272=ORIENTED_EDGE('',*,*,#208,.F.);
#273=ORIENTED_EDGE('',*,*,#172,.F.);
#274=ORIENTED_EDGE('',*,*,#209,.F.);
#275=ORIENTED_EDGE('',*,*,#208,.T.);
#276=ORIENTED_EDGE('',*,*,#173,.F.);
#277=ORIENTED_EDGE('',*,*,#210,.F.);
#278=ORIENTED_EDGE('',*,*,#170,.T.);
#279=ORIENTED_EDGE('',*,*,#186,.F.);
#280=ORIENTED_EDGE('',*,*,#189,.F.);
#281=ORIENTED_EDGE('',*,*,#211,.F.);
#282=ORIENTED_EDGE('',*,*,#190,.T.);
#283=ORIENTED_EDGE('',*,*,#183,.F.);
#284=ORIENTED_EDGE('',*,*,#212,.F.);
#285=ORIENTED_EDGE('',*,*,#213,.T.);
#286=ORIENTED_EDGE('',*,*,#212,.T.);
#287=ORIENTED_EDGE('',*,*,#182,.F.);
#288=ORIENTED_EDGE('',*,*,#201,.F.);
#289=ORIENTED_EDGE('',*,*,#171,.F.);
#290=ORIENTED_EDGE('',*,*,#210,.T.);
#291=ORIENTED_EDGE('',*,*,#188,.F.);
#292=ORIENTED_EDGE('',*,*,#191,.T.);
#293=ORIENTED_EDGE('',*,*,#211,.T.);
#294=ORIENTED_EDGE('',*,*,#213,.F.);
#295=ORIENTED_EDGE('',*,*,#200,.F.);
#296=ORIENTED_EDGE('',*,*,#198,.F.);
#297=ORIENTED_EDGE('',*,*,#202,.T.);
#298=ORIENTED_EDGE('',*,*,#193,.F.);
#299=ORIENTED_EDGE('',*,*,#196,.T.);
#300=ORIENTED_EDGE('',*,*,#203,.T.);
#301=ORIENTED_EDGE('',*,*,#205,.T.);
#302=ORIENTED_EDGE('',*,*,#207,.F.);
#303=ORIENTED_EDGE('',*,*,#209,.T.);
#304=PLANE('',#352);
#305=PLANE('',#353);
#306=PLANE('',#354);
#307=PLANE('',#355);
#308=PLANE('',#356);
#309=PLANE('',#357);
#310=PLANE('',#358);
#311=PLANE('',#359);
#312=PLANE('',#360);
#313=PLANE('',#361);
#314=PLANE('',#362);
#315=PLANE('',#363);
#316=PLANE('',#364);
#317=PLANE('',#365);
#318=PLANE('',#366);
#319=PLANE('',#367);
#320=PLANE('',#368);
#321=ADVANCED_FACE('',(#15),#304,.T.);
#322=ADVANCED_FACE('',(#16),#305,.T.);
#323=ADVANCED_FACE('',(#17),#306,.T.);
#324=ADVANCED_FACE('',(#18),#307,.T.);
#325=ADVANCED_FACE('',(#19),#308,.T.);
#326=ADVANCED_FACE('',(#20),#309,.T.);
#327=ADVANCED_FACE('',(#21),#310,.T.);
#328=ADVANCED_FACE('',(#22),#311,.T.);
#329=ADVANCED_FACE('',(#23),#312,.T.);
#330=ADVANCED_FACE('',(#24),#313,.T.);
#331=ADVANCED_FACE('',(#25),#314,.T.);
#332=ADVANCED_FACE('',(#26),#315,.T.);
#333=ADVANCED_FACE('',(#27),#316,.T.);
#334=ADVANCED_FACE('',(#28),#317,.T.);
#335=ADVANCED_FACE('',(#29),#318,.T.);
#336=ADVANCED_FACE('',(#30),#319,.T.);
#337=ADVANCED_FACE('',(#31),#320,.F.);
#338=CLOSED_SHELL('',(#321,#322,#323,#324,#325,#326,#327,#328,#329,#330,
#331,#332,#333,#334,#335,#336,#337));
#339=DERIVED_UNIT_ELEMENT(#341,1.);
#340=DERIVED_UNIT_ELEMENT(#548,-3.);
#341=(
MASS_UNIT()
NAMED_UNIT(*)
SI_UNIT(.KILO.,.GRAM.)
);
#342=DERIVED_UNIT((#339,#340));
#343=MEASURE_REPRESENTATION_ITEM('density measure',
POSITIVE_RATIO_MEASURE(7850.),#342);
#344=PROPERTY_DEFINITION_REPRESENTATION(#349,#346);
#345=PROPERTY_DEFINITION_REPRESENTATION(#350,#347);
#346=REPRESENTATION('material name',(#348),#545);
#347=REPRESENTATION('density',(#343),#545);
#348=DESCRIPTIVE_REPRESENTATION_ITEM('Steel','Steel');
#349=PROPERTY_DEFINITION('material property','material name',#555);
#350=PROPERTY_DEFINITION('material property','density of part',#555);
#351=AXIS2_PLACEMENT_3D('',#450,#369,#370);
#352=AXIS2_PLACEMENT_3D('',#451,#371,#372);
#353=AXIS2_PLACEMENT_3D('',#460,#377,#378);
#354=AXIS2_PLACEMENT_3D('',#488,#393,#394);
#355=AXIS2_PLACEMENT_3D('',#494,#398,#399);
#356=AXIS2_PLACEMENT_3D('',#498,#402,#403);
#357=AXIS2_PLACEMENT_3D('',#504,#407,#408);
#358=AXIS2_PLACEMENT_3D('',#508,#411,#412);
#359=AXIS2_PLACEMENT_3D('',#514,#416,#417);
#360=AXIS2_PLACEMENT_3D('',#518,#420,#421);
#361=AXIS2_PLACEMENT_3D('',#520,#423,#424);
#362=AXIS2_PLACEMENT_3D('',#524,#427,#428);
#363=AXIS2_PLACEMENT_3D('',#528,#431,#432);
#364=AXIS2_PLACEMENT_3D('',#532,#435,#436);
#365=AXIS2_PLACEMENT_3D('',#534,#438,#439);
#366=AXIS2_PLACEMENT_3D('',#536,#441,#442);
#367=AXIS2_PLACEMENT_3D('',#540,#445,#446);
#368=AXIS2_PLACEMENT_3D('',#542,#448,#449);
#369=DIRECTION('axis',(0.,0.,1.));
#370=DIRECTION('refdir',(1.,0.,0.));
#371=DIRECTION('center_axis',(0.,-0.99654575824488,-0.08304547985374));
#372=DIRECTION('ref_axis',(0.,0.08304547985374,-0.99654575824488));
#373=DIRECTION('',(0.,-0.08304547985374,0.99654575824488));
#374=DIRECTION('',(1.,0.,0.));
#375=DIRECTION('',(0.,0.08304547985374,-0.99654575824488));
#376=DIRECTION('',(1.,0.,0.));
#377=DIRECTION('center_axis',(1.,0.,0.));
#378=DIRECTION('ref_axis',(0.,0.,-1.));
#379=DIRECTION('',(0.,1.,3.99680288865056E-15));
#380=DIRECTION('',(0.,-3.80647894157195E-15,1.));
#381=DIRECTION('',(0.,0.985281488389488,0.170939722232708));
#382=DIRECTION('',(0.,-0.0523359562437781,0.99862953475453));
#383=DIRECTION('',(0.,-0.998629534754557,-0.0523359562432635));
#384=DIRECTION('',(0.,0.0719329377591172,0.997409470811934));
#385=DIRECTION('',(0.,-0.998629534754568,-0.0523359562430543));
#386=DIRECTION('',(0.,0.20587386668847,-0.978578535946266));
#387=DIRECTION('',(0.,-0.998629534754892,-0.0523359562368811));
#388=DIRECTION('',(0.,0.0523359562417364,-0.998629534754637));
#389=DIRECTION('',(0.,-2.96059473233375E-16,-1.));
#390=DIRECTION('',(0.,1.,8.88178419700125E-16));
#391=DIRECTION('',(0.,-0.242535625036333,-0.970142500145332));
#392=DIRECTION('',(0.,1.,4.93432455388958E-16));
#393=DIRECTION('center_axis',(0.,0.970142500145332,-0.242535625036333));
#394=DIRECTION('ref_axis',(0.,0.242535625036333,0.970142500145332));
#395=DIRECTION('',(-1.,0.,0.));
#396=DIRECTION('',(0.,0.242535625036333,0.970142500145332));
#397=DIRECTION('',(1.,0.,0.));
#398=DIRECTION('center_axis',(0.,8.88178419700125E-16,-1.));
#399=DIRECTION('ref_axis',(0.,1.,8.88178419700125E-16));
#400=DIRECTION('',(1.,0.,0.));
#401=DIRECTION('',(0.,-1.,-8.88178419700125E-16));
#402=DIRECTION('center_axis',(0.,-0.997409470811934,0.0719329377591172));
#403=DIRECTION('ref_axis',(0.,-0.0719329377591172,-0.997409470811934));
#404=DIRECTION('',(-1.,0.,0.));
#405=DIRECTION('',(0.,-0.0719329377591172,-0.997409470811934));
#406=DIRECTION('',(1.,0.,0.));
#407=DIRECTION('center_axis',(0.,-0.0523359562432635,0.998629534754557));
#408=DIRECTION('ref_axis',(0.,-0.998629534754557,-0.0523359562432635));
#409=DIRECTION('',(1.,0.,0.));
#410=DIRECTION('',(0.,0.998629534754557,0.0523359562432635));
#411=DIRECTION('center_axis',(0.,0.978578535946266,0.20587386668847));
#412=DIRECTION('ref_axis',(0.,-0.20587386668847,0.978578535946266));
#413=DIRECTION('',(1.,0.,0.));
#414=DIRECTION('',(0.,-0.20587386668847,0.978578535946266));
#415=DIRECTION('',(1.,0.,0.));
#416=DIRECTION('center_axis',(0.,-0.0523359562368811,0.998629534754892));
#417=DIRECTION('ref_axis',(0.,-0.998629534754892,-0.0523359562368811));
#418=DIRECTION('',(0.,-0.998629534754892,-0.0523359562368811));
#419=DIRECTION('',(1.,0.,0.));
#420=DIRECTION('center_axis',(0.,-0.0523359562430543,0.998629534754568));
#421=DIRECTION('ref_axis',(0.,-0.998629534754568,-0.0523359562430543));
#422=DIRECTION('',(0.,0.998629534754568,0.0523359562430543));
#423=DIRECTION('center_axis',(0.,0.99862953475453,0.0523359562437781));
#424=DIRECTION('ref_axis',(0.,-0.0523359562437781,0.99862953475453));
#425=DIRECTION('',(0.,0.0523359562437781,-0.99862953475453));
#426=DIRECTION('',(1.,0.,0.));
#427=DIRECTION('center_axis',(0.,0.170939722232708,-0.985281488389488));
#428=DIRECTION('ref_axis',(0.,0.985281488389488,0.170939722232708));
#429=DIRECTION('',(0.,-0.985281488389488,-0.170939722232708));
#430=DIRECTION('',(1.,0.,0.));
#431=DIRECTION('center_axis',(0.,1.,3.80647894157195E-15));
#432=DIRECTION('ref_axis',(0.,-3.80647894157195E-15,1.));
#433=DIRECTION('',(0.,-3.80647894157195E-15,1.));
#434=DIRECTION('',(1.,0.,0.));
#435=DIRECTION('center_axis',(0.,3.99680288865056E-15,-1.));
#436=DIRECTION('ref_axis',(0.,1.,3.99680288865056E-15));
#437=DIRECTION('',(0.,-1.,-3.99680288865056E-15));
#438=DIRECTION('center_axis',(0.,4.93432455388958E-16,-1.));
#439=DIRECTION('ref_axis',(0.,1.,4.93432455388958E-16));
#440=DIRECTION('',(0.,-1.,-4.93432455388958E-16));
#441=DIRECTION('center_axis',(0.,-1.,2.96059473233375E-16));
#442=DIRECTION('ref_axis',(0.,-2.96059473233375E-16,-1.));
#443=DIRECTION('',(0.,2.96059473233375E-16,1.));
#444=DIRECTION('',(1.,0.,0.));
#445=DIRECTION('center_axis',(0.,-0.998629534754637,-0.0523359562417364));
#446=DIRECTION('ref_axis',(0.,0.0523359562417364,-0.998629534754637));
#447=DIRECTION('',(0.,0.0523359562417364,-0.998629534754637));
#448=DIRECTION('center_axis',(1.,0.,0.));
#449=DIRECTION('ref_axis',(0.,1.,0.));
#450=CARTESIAN_POINT('',(0.,0.,0.));
#451=CARTESIAN_POINT('Origin',(0.,9.625,5.4974116702508));
#452=CARTESIAN_POINT('',(50.,10.25,-2.0025883297492));
#453=CARTESIAN_POINT('',(50.,9.,12.9974116702508));
#454=CARTESIAN_POINT('',(50.,9.26230306588689,9.84977487960812));
#455=CARTESIAN_POINT('',(0.,9.,12.9974116702508));
#456=CARTESIAN_POINT('',(0.,9.,12.9974116702508));
#457=CARTESIAN_POINT('',(0.,10.25,-2.0025883297492));
#458=CARTESIAN_POINT('',(0.,9.26230306588689,9.84977487960812));
#459=CARTESIAN_POINT('',(0.,10.25,-2.0025883297492));
#460=CARTESIAN_POINT('Origin',(50.,4.7026235531536,13.8523895407471));
#461=CARTESIAN_POINT('',(50.,11.5,-2.00258832974919));
#462=CARTESIAN_POINT('',(50.,11.5,-2.00258832974919));
#463=CARTESIAN_POINT('',(50.,11.4999999999999,15.4974116702509));
#464=CARTESIAN_POINT('',(50.,11.5,-2.00258832974919));
#465=CARTESIAN_POINT('',(50.,21.4547746468747,17.224498226812));
#466=CARTESIAN_POINT('',(50.,21.4547746468747,17.224498226812));
#467=CARTESIAN_POINT('',(50.,20.8005751938275,29.7073674112434));
#468=CARTESIAN_POINT('',(50.,20.8005751938275,29.7073674112434));
#469=CARTESIAN_POINT('',(50.,19.5522882753843,29.6419474659393));
#470=CARTESIAN_POINT('',(50.,18.3040013569411,29.5765275206352));
#471=CARTESIAN_POINT('',(50.,18.8273609193764,19.5902321730898));
#472=CARTESIAN_POINT('',(50.,18.7662142772713,18.7423835818333));
#473=CARTESIAN_POINT('',(50.,-9.13426605375168,18.1248253982884));
#474=CARTESIAN_POINT('',(50.,4.84654743281249,18.857528785687));
#475=CARTESIAN_POINT('',(50.,-10.8012406221239,26.0484417310297));
#476=CARTESIAN_POINT('',(50.,-8.82740752394016,16.6662373041522));
#477=CARTESIAN_POINT('',(50.,-12.0495275405675,25.9830217857336));
#478=CARTESIAN_POINT('',(50.,-9.5529537036803,26.1138616763258));
#479=CARTESIAN_POINT('',(50.,-11.5,15.4974116702508));
#480=CARTESIAN_POINT('',(50.,-12.0495275405675,25.9830217857336));
#481=CARTESIAN_POINT('',(50.,-11.5,7.99741167025079));
#482=CARTESIAN_POINT('',(50.,-11.5,7.99741167025079));
#483=CARTESIAN_POINT('',(50.,-10.25,7.99741167025079));
#484=CARTESIAN_POINT('',(50.,-9.,7.9974116702508));
#485=CARTESIAN_POINT('',(50.,-9.,12.9974116702508));
#486=CARTESIAN_POINT('',(50.,-8.80889602837827,13.7618275567377));
#487=CARTESIAN_POINT('',(50.,-3.72763609630703E-16,12.9974116702508));
#488=CARTESIAN_POINT('Origin',(0.,-9.625,10.4974116702508));
#489=CARTESIAN_POINT('',(0.,-10.25,7.99741167025079));
#490=CARTESIAN_POINT('',(0.,-10.25,7.99741167025079));
#491=CARTESIAN_POINT('',(0.,-9.,12.9974116702508));
#492=CARTESIAN_POINT('',(0.,-8.80889602837827,13.7618275567377));
#493=CARTESIAN_POINT('',(0.,-9.,12.9974116702508));
#494=CARTESIAN_POINT('Origin',(0.,-11.5,7.99741167025079));
#495=CARTESIAN_POINT('',(0.,-11.5,7.99741167025079));
#496=CARTESIAN_POINT('',(0.,-11.5,7.99741167025079));
#497=CARTESIAN_POINT('',(0.,-9.,7.9974116702508));
#498=CARTESIAN_POINT('Origin',(0.,19.1898245973804,24.6160898195145));
#499=CARTESIAN_POINT('',(0.,19.5522882753843,29.6419474659393));
#500=CARTESIAN_POINT('',(0.,19.5522882753843,29.6419474659393));
#501=CARTESIAN_POINT('',(0.,18.8273609193764,19.5902321730898));
#502=CARTESIAN_POINT('',(0.,18.7662142772713,18.7423835818333));
#503=CARTESIAN_POINT('',(0.,18.8273609193764,19.5902321730898));
#504=CARTESIAN_POINT('Origin',(0.,20.8005751938275,29.7073674112434));
#505=CARTESIAN_POINT('',(0.,20.8005751938275,29.7073674112434));
#506=CARTESIAN_POINT('',(0.,20.8005751938275,29.7073674112434));
#507=CARTESIAN_POINT('',(0.,18.3040013569411,29.5765275206352));
#508=CARTESIAN_POINT('Origin',(0.,-9.9677533379378,22.086633564659));
#509=CARTESIAN_POINT('',(0.,-9.13426605375168,18.1248253982884));
#510=CARTESIAN_POINT('',(0.,-9.13426605375168,18.1248253982884));
#511=CARTESIAN_POINT('',(0.,-10.8012406221239,26.0484417310297));
#512=CARTESIAN_POINT('',(0.,-8.82740752394016,16.6662373041522));
#513=CARTESIAN_POINT('',(0.,-10.8012406221239,26.0484417310297));
#514=CARTESIAN_POINT('Origin',(0.,-9.5529537036803,26.1138616763258));
#515=CARTESIAN_POINT('',(0.,-12.0495275405675,25.9830217857336));
#516=CARTESIAN_POINT('',(0.,-9.5529537036803,26.1138616763258));
#517=CARTESIAN_POINT('',(0.,-12.0495275405675,25.9830217857336));
#518=CARTESIAN_POINT('Origin',(0.,18.8273609193764,19.5902321730898));
#519=CARTESIAN_POINT('',(0.,4.84654743281249,18.857528785687));
#520=CARTESIAN_POINT('Origin',(0.,21.4547746468747,17.224498226812));
#521=CARTESIAN_POINT('',(0.,21.4547746468747,17.224498226812));
#522=CARTESIAN_POINT('',(0.,20.8005751938275,29.7073674112434));
#523=CARTESIAN_POINT('',(0.,21.4547746468747,17.224498226812));
#524=CARTESIAN_POINT('Origin',(0.,11.4999999999999,15.4974116702509));
#525=CARTESIAN_POINT('',(0.,11.4999999999999,15.4974116702509));
#526=CARTESIAN_POINT('',(0.,21.4547746468747,17.224498226812));
#527=CARTESIAN_POINT('',(0.,11.4999999999999,15.4974116702509));
#528=CARTESIAN_POINT('Origin',(0.,11.5,-2.00258832974919));
#529=CARTESIAN_POINT('',(0.,11.5,-2.00258832974919));
#530=CARTESIAN_POINT('',(0.,11.5,-2.00258832974919));
#531=CARTESIAN_POINT('',(0.,11.5,-2.00258832974919));
#532=CARTESIAN_POINT('Origin',(0.,9.,-2.0025883297492));
#533=CARTESIAN_POINT('',(0.,11.5,-2.00258832974919));
#534=CARTESIAN_POINT('Origin',(0.,-9.,12.9974116702508));
#535=CARTESIAN_POINT('',(0.,-3.72763609630703E-16,12.9974116702508));
#536=CARTESIAN_POINT('Origin',(0.,-11.5,15.4974116702508));
#537=CARTESIAN_POINT('',(0.,-11.5,15.4974116702508));
#538=CARTESIAN_POINT('',(0.,-11.5,7.99741167025079));
#539=CARTESIAN_POINT('',(0.,-11.5,15.4974116702508));
#540=CARTESIAN_POINT('Origin',(0.,-12.0495275405675,25.9830217857336));
#541=CARTESIAN_POINT('',(0.,-12.0495275405675,25.9830217857336));
#542=CARTESIAN_POINT('Origin',(0.,4.7026235531536,13.8523895407471));
#543=UNCERTAINTY_MEASURE_WITH_UNIT(LENGTH_MEASURE(0.01),#547,
'DISTANCE_ACCURACY_VALUE',
'Maximum model space distance between geometric entities at asserted c
onnectivities');
#544=UNCERTAINTY_MEASURE_WITH_UNIT(LENGTH_MEASURE(0.01),#547,
'DISTANCE_ACCURACY_VALUE',
'Maximum model space distance between geometric entities at asserted c
onnectivities');
#545=(
GEOMETRIC_REPRESENTATION_CONTEXT(3)
GLOBAL_UNCERTAINTY_ASSIGNED_CONTEXT((#543))
GLOBAL_UNIT_ASSIGNED_CONTEXT((#547,#549,#550))
REPRESENTATION_CONTEXT('','3D')
);
#546=(
GEOMETRIC_REPRESENTATION_CONTEXT(3)
GLOBAL_UNCERTAINTY_ASSIGNED_CONTEXT((#544))
GLOBAL_UNIT_ASSIGNED_CONTEXT((#547,#549,#550))
REPRESENTATION_CONTEXT('','3D')
);
#547=(
LENGTH_UNIT()
NAMED_UNIT(*)
SI_UNIT(.MILLI.,.METRE.)
);
#548=(
LENGTH_UNIT()
NAMED_UNIT(*)
SI_UNIT($,.METRE.)
);
#549=(
NAMED_UNIT(*)
PLANE_ANGLE_UNIT()
SI_UNIT($,.RADIAN.)
);
#550=(
NAMED_UNIT(*)
SI_UNIT($,.STERADIAN.)
SOLID_ANGLE_UNIT()
);
#551=SHAPE_DEFINITION_REPRESENTATION(#552,#553);
#552=PRODUCT_DEFINITION_SHAPE('',$,#555);
#553=SHAPE_REPRESENTATION('',(#351),#545);
#554=PRODUCT_DEFINITION_CONTEXT('part definition',#559,'design');
#555=PRODUCT_DEFINITION('2026-10-02-13-04-16-415','screenTopMount',#556,
#554);
#556=PRODUCT_DEFINITION_FORMATION('',$,#561);
#557=PRODUCT_RELATED_PRODUCT_CATEGORY('screenTopMount','screenTopMount',
(#561));
#558=APPLICATION_PROTOCOL_DEFINITION('international standard',
'automotive_design',2009,#559);
#559=APPLICATION_CONTEXT(
'Core Data for Automotive Mechanical Design Process');
#560=PRODUCT_CONTEXT('part definition',#559,'mechanical');
#561=PRODUCT('2026-10-02-13-04-16-415','screenTopMount',$,(#560));
#562=PRESENTATION_STYLE_ASSIGNMENT((#563));
#563=SURFACE_STYLE_USAGE(.BOTH.,#564);
#564=SURFACE_SIDE_STYLE('',(#565));
#565=SURFACE_STYLE_FILL_AREA(#566);
#566=FILL_AREA_STYLE('Steel - Satin',(#567));
#567=FILL_AREA_STYLE_COLOUR('Steel - Satin',#568);
#568=COLOUR_RGB('Steel - Satin',0.627450980392157,0.627450980392157,0.627450980392157);
ENDSEC;
END-ISO-10303-21;
