ISO-10303-21;
HEADER;
/* Generated by software containing ST-Developer
 * from STEP Tools, Inc. (www.steptools.com) 
 */

FILE_DESCRIPTION(
/* description */ (''),
/* implementation_level */ '2;1');

FILE_NAME(
/* name */ 'verticalStand.step',
/* time_stamp */ '2026-10-07T16:14:22+01:00',
/* author */ (''),
/* organization */ (''),
/* preprocessor_version */ 'ST-DEVELOPER v20.1',
/* originating_system */ 'Autodesk Translation Framework v15.8.0.0',
/* authorisation */ '');

FILE_SCHEMA (('AUTOMOTIVE_DESIGN { 1 0 10303 214 3 1 1 }'));
ENDSEC;

DATA;
#10=MECHANICAL_DESIGN_GEOMETRIC_PRESENTATION_REPRESENTATION('',(#13),#786);
#11=SHAPE_REPRESENTATION_RELATIONSHIP('SRR','None',#793,#12);
#12=ADVANCED_BREP_SHAPE_REPRESENTATION('',(#14),#785);
#13=STYLED_ITEM('',(#802),#14);
#14=MANIFOLD_SOLID_BREP('Body1',#462);
#15=FACE_BOUND('',#82,.T.);
#16=FACE_BOUND('',#83,.T.);
#17=FACE_BOUND('',#84,.T.);
#18=FACE_BOUND('',#85,.T.);
#19=FACE_BOUND('',#86,.T.);
#20=FACE_BOUND('',#88,.T.);
#21=FACE_BOUND('',#89,.T.);
#22=FACE_BOUND('',#90,.T.);
#23=FACE_BOUND('',#91,.T.);
#24=FACE_BOUND('',#92,.T.);
#25=PLANE('',#494);
#26=PLANE('',#498);
#27=PLANE('',#499);
#28=PLANE('',#500);
#29=PLANE('',#504);
#30=PLANE('',#508);
#31=PLANE('',#509);
#32=PLANE('',#510);
#33=PLANE('',#514);
#34=PLANE('',#518);
#35=PLANE('',#519);
#36=PLANE('',#520);
#37=FACE_OUTER_BOUND('',#60,.T.);
#38=FACE_OUTER_BOUND('',#61,.T.);
#39=FACE_OUTER_BOUND('',#62,.T.);
#40=FACE_OUTER_BOUND('',#63,.T.);
#41=FACE_OUTER_BOUND('',#64,.T.);
#42=FACE_OUTER_BOUND('',#65,.T.);
#43=FACE_OUTER_BOUND('',#66,.T.);
#44=FACE_OUTER_BOUND('',#67,.T.);
#45=FACE_OUTER_BOUND('',#68,.T.);
#46=FACE_OUTER_BOUND('',#69,.T.);
#47=FACE_OUTER_BOUND('',#70,.T.);
#48=FACE_OUTER_BOUND('',#71,.T.);
#49=FACE_OUTER_BOUND('',#72,.T.);
#50=FACE_OUTER_BOUND('',#73,.T.);
#51=FACE_OUTER_BOUND('',#74,.T.);
#52=FACE_OUTER_BOUND('',#75,.T.);
#53=FACE_OUTER_BOUND('',#76,.T.);
#54=FACE_OUTER_BOUND('',#77,.T.);
#55=FACE_OUTER_BOUND('',#78,.T.);
#56=FACE_OUTER_BOUND('',#79,.T.);
#57=FACE_OUTER_BOUND('',#80,.T.);
#58=FACE_OUTER_BOUND('',#81,.T.);
#59=FACE_OUTER_BOUND('',#87,.T.);
#60=EDGE_LOOP('',(#302,#303,#304,#305));
#61=EDGE_LOOP('',(#306,#307,#308,#309));
#62=EDGE_LOOP('',(#310,#311,#312,#313));
#63=EDGE_LOOP('',(#314,#315,#316,#317));
#64=EDGE_LOOP('',(#318,#319,#320,#321));
#65=EDGE_LOOP('',(#322,#323,#324,#325));
#66=EDGE_LOOP('',(#326,#327,#328,#329));
#67=EDGE_LOOP('',(#330,#331,#332,#333));
#68=EDGE_LOOP('',(#334,#335,#336,#337));
#69=EDGE_LOOP('',(#338,#339,#340,#341));
#70=EDGE_LOOP('',(#342,#343,#344,#345));
#71=EDGE_LOOP('',(#346,#347,#348,#349));
#72=EDGE_LOOP('',(#350,#351,#352,#353));
#73=EDGE_LOOP('',(#354,#355,#356,#357));
#74=EDGE_LOOP('',(#358,#359,#360,#361));
#75=EDGE_LOOP('',(#362,#363,#364,#365));
#76=EDGE_LOOP('',(#366,#367,#368,#369));
#77=EDGE_LOOP('',(#370,#371,#372,#373));
#78=EDGE_LOOP('',(#374,#375,#376,#377));
#79=EDGE_LOOP('',(#378,#379,#380,#381));
#80=EDGE_LOOP('',(#382,#383,#384,#385));
#81=EDGE_LOOP('',(#386,#387,#388,#389,#390,#391,#392,#393,#394,#395,#396,
#397,#398,#399,#400,#401));
#82=EDGE_LOOP('',(#402));
#83=EDGE_LOOP('',(#403));
#84=EDGE_LOOP('',(#404));
#85=EDGE_LOOP('',(#405));
#86=EDGE_LOOP('',(#406));
#87=EDGE_LOOP('',(#407,#408,#409,#410,#411,#412,#413,#414,#415,#416,#417,
#418,#419,#420,#421,#422));
#88=EDGE_LOOP('',(#423));
#89=EDGE_LOOP('',(#424));
#90=EDGE_LOOP('',(#425));
#91=EDGE_LOOP('',(#426));
#92=EDGE_LOOP('',(#427));
#93=LINE('',#659,#134);
#94=LINE('',#665,#135);
#95=LINE('',#671,#136);
#96=LINE('',#677,#137);
#97=LINE('',#683,#138);
#98=LINE('',#690,#139);
#99=LINE('',#693,#140);
#100=LINE('',#696,#141);
#101=LINE('',#698,#142);
#102=LINE('',#699,#143);
#103=LINE('',#705,#144);
#104=LINE('',#708,#145);
#105=LINE('',#710,#146);
#106=LINE('',#711,#147);
#107=LINE('',#714,#148);
#108=LINE('',#716,#149);
#109=LINE('',#717,#150);
#110=LINE('',#720,#151);
#111=LINE('',#722,#152);
#112=LINE('',#723,#153);
#113=LINE('',#729,#154);
#114=LINE('',#732,#155);
#115=LINE('',#734,#156);
#116=LINE('',#735,#157);
#117=LINE('',#741,#158);
#118=LINE('',#744,#159);
#119=LINE('',#746,#160);
#120=LINE('',#747,#161);
#121=LINE('',#750,#162);
#122=LINE('',#752,#163);
#123=LINE('',#753,#164);
#124=LINE('',#756,#165);
#125=LINE('',#758,#166);
#126=LINE('',#759,#167);
#127=LINE('',#765,#168);
#128=LINE('',#768,#169);
#129=LINE('',#770,#170);
#130=LINE('',#771,#171);
#131=LINE('',#777,#172);
#132=LINE('',#779,#173);
#133=LINE('',#780,#174);
#134=VECTOR('',#527,12.25);
#135=VECTOR('',#534,12.25);
#136=VECTOR('',#541,12.25);
#137=VECTOR('',#548,12.25);
#138=VECTOR('',#555,12.25);
#139=VECTOR('',#562,10.);
#140=VECTOR('',#565,10.);
#141=VECTOR('',#568,10.);
#142=VECTOR('',#569,10.);
#143=VECTOR('',#570,10.);
#144=VECTOR('',#577,10.);
#145=VECTOR('',#580,10.);
#146=VECTOR('',#581,10.);
#147=VECTOR('',#582,10.);
#148=VECTOR('',#585,10.);
#149=VECTOR('',#586,10.);
#150=VECTOR('',#587,10.);
#151=VECTOR('',#590,10.);
#152=VECTOR('',#591,10.);
#153=VECTOR('',#592,10.);
#154=VECTOR('',#599,10.);
#155=VECTOR('',#602,10.);
#156=VECTOR('',#603,10.);
#157=VECTOR('',#604,10.);
#158=VECTOR('',#611,10.);
#159=VECTOR('',#614,10.);
#160=VECTOR('',#615,10.);
#161=VECTOR('',#616,10.);
#162=VECTOR('',#619,10.);
#163=VECTOR('',#620,10.);
#164=VECTOR('',#621,10.);
#165=VECTOR('',#624,10.);
#166=VECTOR('',#625,10.);
#167=VECTOR('',#626,10.);
#168=VECTOR('',#633,10.);
#169=VECTOR('',#636,10.);
#170=VECTOR('',#637,10.);
#171=VECTOR('',#638,10.);
#172=VECTOR('',#645,10.);
#173=VECTOR('',#648,10.);
#174=VECTOR('',#649,10.);
#175=CIRCLE('',#477,12.25);
#176=CIRCLE('',#478,12.25);
#177=CIRCLE('',#480,12.25);
#178=CIRCLE('',#481,12.25);
#179=CIRCLE('',#483,12.25);
#180=CIRCLE('',#484,12.25);
#181=CIRCLE('',#486,12.25);
#182=CIRCLE('',#487,12.25);
#183=CIRCLE('',#489,12.25);
#184=CIRCLE('',#490,12.25);
#185=CIRCLE('',#492,10.);
#186=CIRCLE('',#493,10.);
#187=CIRCLE('',#496,10.0000000000001);
#188=CIRCLE('',#497,10.0000000000001);
#189=CIRCLE('',#502,22.);
#190=CIRCLE('',#503,22.);
#191=CIRCLE('',#506,22.);
#192=CIRCLE('',#507,22.);
#193=CIRCLE('',#512,10.0000000000002);
#194=CIRCLE('',#513,10.0000000000002);
#195=CIRCLE('',#516,9.99999999999978);
#196=CIRCLE('',#517,9.99999999999978);
#197=VERTEX_POINT('',#656);
#198=VERTEX_POINT('',#658);
#199=VERTEX_POINT('',#662);
#200=VERTEX_POINT('',#664);
#201=VERTEX_POINT('',#668);
#202=VERTEX_POINT('',#670);
#203=VERTEX_POINT('',#674);
#204=VERTEX_POINT('',#676);
#205=VERTEX_POINT('',#680);
#206=VERTEX_POINT('',#682);
#207=VERTEX_POINT('',#686);
#208=VERTEX_POINT('',#687);
#209=VERTEX_POINT('',#689);
#210=VERTEX_POINT('',#691);
#211=VERTEX_POINT('',#695);
#212=VERTEX_POINT('',#697);
#213=VERTEX_POINT('',#701);
#214=VERTEX_POINT('',#703);
#215=VERTEX_POINT('',#707);
#216=VERTEX_POINT('',#709);
#217=VERTEX_POINT('',#713);
#218=VERTEX_POINT('',#715);
#219=VERTEX_POINT('',#719);
#220=VERTEX_POINT('',#721);
#221=VERTEX_POINT('',#725);
#222=VERTEX_POINT('',#727);
#223=VERTEX_POINT('',#731);
#224=VERTEX_POINT('',#733);
#225=VERTEX_POINT('',#737);
#226=VERTEX_POINT('',#739);
#227=VERTEX_POINT('',#743);
#228=VERTEX_POINT('',#745);
#229=VERTEX_POINT('',#749);
#230=VERTEX_POINT('',#751);
#231=VERTEX_POINT('',#755);
#232=VERTEX_POINT('',#757);
#233=VERTEX_POINT('',#761);
#234=VERTEX_POINT('',#763);
#235=VERTEX_POINT('',#767);
#236=VERTEX_POINT('',#769);
#237=VERTEX_POINT('',#773);
#238=VERTEX_POINT('',#775);
#239=EDGE_CURVE('',#197,#197,#175,.T.);
#240=EDGE_CURVE('',#197,#198,#93,.T.);
#241=EDGE_CURVE('',#198,#198,#176,.T.);
#242=EDGE_CURVE('',#199,#199,#177,.T.);
#243=EDGE_CURVE('',#199,#200,#94,.T.);
#244=EDGE_CURVE('',#200,#200,#178,.T.);
#245=EDGE_CURVE('',#201,#201,#179,.T.);
#246=EDGE_CURVE('',#201,#202,#95,.T.);
#247=EDGE_CURVE('',#202,#202,#180,.T.);
#248=EDGE_CURVE('',#203,#203,#181,.T.);
#249=EDGE_CURVE('',#203,#204,#96,.T.);
#250=EDGE_CURVE('',#204,#204,#182,.T.);
#251=EDGE_CURVE('',#205,#205,#183,.T.);
#252=EDGE_CURVE('',#205,#206,#97,.T.);
#253=EDGE_CURVE('',#206,#206,#184,.T.);
#254=EDGE_CURVE('',#207,#208,#185,.T.);
#255=EDGE_CURVE('',#207,#209,#98,.T.);
#256=EDGE_CURVE('',#210,#209,#186,.T.);
#257=EDGE_CURVE('',#208,#210,#99,.T.);
#258=EDGE_CURVE('',#211,#208,#100,.T.);
#259=EDGE_CURVE('',#212,#210,#101,.T.);
#260=EDGE_CURVE('',#211,#212,#102,.T.);
#261=EDGE_CURVE('',#211,#213,#187,.T.);
#262=EDGE_CURVE('',#214,#212,#188,.T.);
#263=EDGE_CURVE('',#213,#214,#103,.T.);
#264=EDGE_CURVE('',#215,#213,#104,.T.);
#265=EDGE_CURVE('',#216,#214,#105,.T.);
#266=EDGE_CURVE('',#215,#216,#106,.T.);
#267=EDGE_CURVE('',#217,#215,#107,.T.);
#268=EDGE_CURVE('',#218,#216,#108,.T.);
#269=EDGE_CURVE('',#217,#218,#109,.T.);
#270=EDGE_CURVE('',#217,#219,#110,.T.);
#271=EDGE_CURVE('',#220,#218,#111,.T.);
#272=EDGE_CURVE('',#219,#220,#112,.T.);
#273=EDGE_CURVE('',#221,#219,#189,.T.);
#274=EDGE_CURVE('',#222,#220,#190,.T.);
#275=EDGE_CURVE('',#221,#222,#113,.T.);
#276=EDGE_CURVE('',#221,#223,#114,.T.);
#277=EDGE_CURVE('',#224,#222,#115,.T.);
#278=EDGE_CURVE('',#223,#224,#116,.T.);
#279=EDGE_CURVE('',#225,#223,#191,.T.);
#280=EDGE_CURVE('',#226,#224,#192,.T.);
#281=EDGE_CURVE('',#225,#226,#117,.T.);
#282=EDGE_CURVE('',#227,#225,#118,.T.);
#283=EDGE_CURVE('',#228,#226,#119,.T.);
#284=EDGE_CURVE('',#227,#228,#120,.T.);
#285=EDGE_CURVE('',#229,#227,#121,.T.);
#286=EDGE_CURVE('',#230,#228,#122,.T.);
#287=EDGE_CURVE('',#229,#230,#123,.T.);
#288=EDGE_CURVE('',#231,#229,#124,.T.);
#289=EDGE_CURVE('',#232,#230,#125,.T.);
#290=EDGE_CURVE('',#231,#232,#126,.T.);
#291=EDGE_CURVE('',#231,#233,#193,.T.);
#292=EDGE_CURVE('',#234,#232,#194,.T.);
#293=EDGE_CURVE('',#233,#234,#127,.T.);
#294=EDGE_CURVE('',#235,#233,#128,.T.);
#295=EDGE_CURVE('',#236,#234,#129,.T.);
#296=EDGE_CURVE('',#235,#236,#130,.T.);
#297=EDGE_CURVE('',#235,#237,#195,.T.);
#298=EDGE_CURVE('',#238,#236,#196,.T.);
#299=EDGE_CURVE('',#237,#238,#131,.T.);
#300=EDGE_CURVE('',#207,#237,#132,.T.);
#301=EDGE_CURVE('',#209,#238,#133,.T.);
#302=ORIENTED_EDGE('',*,*,#239,.F.);
#303=ORIENTED_EDGE('',*,*,#240,.T.);
#304=ORIENTED_EDGE('',*,*,#241,.F.);
#305=ORIENTED_EDGE('',*,*,#240,.F.);
#306=ORIENTED_EDGE('',*,*,#242,.F.);
#307=ORIENTED_EDGE('',*,*,#243,.T.);
#308=ORIENTED_EDGE('',*,*,#244,.F.);
#309=ORIENTED_EDGE('',*,*,#243,.F.);
#310=ORIENTED_EDGE('',*,*,#245,.F.);
#311=ORIENTED_EDGE('',*,*,#246,.T.);
#312=ORIENTED_EDGE('',*,*,#247,.F.);
#313=ORIENTED_EDGE('',*,*,#246,.F.);
#314=ORIENTED_EDGE('',*,*,#248,.F.);
#315=ORIENTED_EDGE('',*,*,#249,.T.);
#316=ORIENTED_EDGE('',*,*,#250,.F.);
#317=ORIENTED_EDGE('',*,*,#249,.F.);
#318=ORIENTED_EDGE('',*,*,#251,.F.);
#319=ORIENTED_EDGE('',*,*,#252,.T.);
#320=ORIENTED_EDGE('',*,*,#253,.F.);
#321=ORIENTED_EDGE('',*,*,#252,.F.);
#322=ORIENTED_EDGE('',*,*,#254,.F.);
#323=ORIENTED_EDGE('',*,*,#255,.T.);
#324=ORIENTED_EDGE('',*,*,#256,.F.);
#325=ORIENTED_EDGE('',*,*,#257,.F.);
#326=ORIENTED_EDGE('',*,*,#258,.T.);
#327=ORIENTED_EDGE('',*,*,#257,.T.);
#328=ORIENTED_EDGE('',*,*,#259,.F.);
#329=ORIENTED_EDGE('',*,*,#260,.F.);
#330=ORIENTED_EDGE('',*,*,#261,.F.);
#331=ORIENTED_EDGE('',*,*,#260,.T.);
#332=ORIENTED_EDGE('',*,*,#262,.F.);
#333=ORIENTED_EDGE('',*,*,#263,.F.);
#334=ORIENTED_EDGE('',*,*,#264,.T.);
#335=ORIENTED_EDGE('',*,*,#263,.T.);
#336=ORIENTED_EDGE('',*,*,#265,.F.);
#337=ORIENTED_EDGE('',*,*,#266,.F.);
#338=ORIENTED_EDGE('',*,*,#267,.T.);
#339=ORIENTED_EDGE('',*,*,#266,.T.);
#340=ORIENTED_EDGE('',*,*,#268,.F.);
#341=ORIENTED_EDGE('',*,*,#269,.F.);
#342=ORIENTED_EDGE('',*,*,#270,.F.);
#343=ORIENTED_EDGE('',*,*,#269,.T.);
#344=ORIENTED_EDGE('',*,*,#271,.F.);
#345=ORIENTED_EDGE('',*,*,#272,.F.);
#346=ORIENTED_EDGE('',*,*,#273,.T.);
#347=ORIENTED_EDGE('',*,*,#272,.T.);
#348=ORIENTED_EDGE('',*,*,#274,.F.);
#349=ORIENTED_EDGE('',*,*,#275,.F.);
#350=ORIENTED_EDGE('',*,*,#276,.F.);
#351=ORIENTED_EDGE('',*,*,#275,.T.);
#352=ORIENTED_EDGE('',*,*,#277,.F.);
#353=ORIENTED_EDGE('',*,*,#278,.F.);
#354=ORIENTED_EDGE('',*,*,#279,.T.);
#355=ORIENTED_EDGE('',*,*,#278,.T.);
#356=ORIENTED_EDGE('',*,*,#280,.F.);
#357=ORIENTED_EDGE('',*,*,#281,.F.);
#358=ORIENTED_EDGE('',*,*,#282,.T.);
#359=ORIENTED_EDGE('',*,*,#281,.T.);
#360=ORIENTED_EDGE('',*,*,#283,.F.);
#361=ORIENTED_EDGE('',*,*,#284,.F.);
#362=ORIENTED_EDGE('',*,*,#285,.T.);
#363=ORIENTED_EDGE('',*,*,#284,.T.);
#364=ORIENTED_EDGE('',*,*,#286,.F.);
#365=ORIENTED_EDGE('',*,*,#287,.F.);
#366=ORIENTED_EDGE('',*,*,#288,.T.);
#367=ORIENTED_EDGE('',*,*,#287,.T.);
#368=ORIENTED_EDGE('',*,*,#289,.F.);
#369=ORIENTED_EDGE('',*,*,#290,.F.);
#370=ORIENTED_EDGE('',*,*,#291,.F.);
#371=ORIENTED_EDGE('',*,*,#290,.T.);
#372=ORIENTED_EDGE('',*,*,#292,.F.);
#373=ORIENTED_EDGE('',*,*,#293,.F.);
#374=ORIENTED_EDGE('',*,*,#294,.T.);
#375=ORIENTED_EDGE('',*,*,#293,.T.);
#376=ORIENTED_EDGE('',*,*,#295,.F.);
#377=ORIENTED_EDGE('',*,*,#296,.F.);
#378=ORIENTED_EDGE('',*,*,#297,.F.);
#379=ORIENTED_EDGE('',*,*,#296,.T.);
#380=ORIENTED_EDGE('',*,*,#298,.F.);
#381=ORIENTED_EDGE('',*,*,#299,.F.);
#382=ORIENTED_EDGE('',*,*,#300,.T.);
#383=ORIENTED_EDGE('',*,*,#299,.T.);
#384=ORIENTED_EDGE('',*,*,#301,.F.);
#385=ORIENTED_EDGE('',*,*,#255,.F.);
#386=ORIENTED_EDGE('',*,*,#301,.T.);
#387=ORIENTED_EDGE('',*,*,#298,.T.);
#388=ORIENTED_EDGE('',*,*,#295,.T.);
#389=ORIENTED_EDGE('',*,*,#292,.T.);
#390=ORIENTED_EDGE('',*,*,#289,.T.);
#391=ORIENTED_EDGE('',*,*,#286,.T.);
#392=ORIENTED_EDGE('',*,*,#283,.T.);
#393=ORIENTED_EDGE('',*,*,#280,.T.);
#394=ORIENTED_EDGE('',*,*,#277,.T.);
#395=ORIENTED_EDGE('',*,*,#274,.T.);
#396=ORIENTED_EDGE('',*,*,#271,.T.);
#397=ORIENTED_EDGE('',*,*,#268,.T.);
#398=ORIENTED_EDGE('',*,*,#265,.T.);
#399=ORIENTED_EDGE('',*,*,#262,.T.);
#400=ORIENTED_EDGE('',*,*,#259,.T.);
#401=ORIENTED_EDGE('',*,*,#256,.T.);
#402=ORIENTED_EDGE('',*,*,#253,.T.);
#403=ORIENTED_EDGE('',*,*,#250,.T.);
#404=ORIENTED_EDGE('',*,*,#247,.T.);
#405=ORIENTED_EDGE('',*,*,#244,.T.);
#406=ORIENTED_EDGE('',*,*,#241,.T.);
#407=ORIENTED_EDGE('',*,*,#300,.F.);
#408=ORIENTED_EDGE('',*,*,#254,.T.);
#409=ORIENTED_EDGE('',*,*,#258,.F.);
#410=ORIENTED_EDGE('',*,*,#261,.T.);
#411=ORIENTED_EDGE('',*,*,#264,.F.);
#412=ORIENTED_EDGE('',*,*,#267,.F.);
#413=ORIENTED_EDGE('',*,*,#270,.T.);
#414=ORIENTED_EDGE('',*,*,#273,.F.);
#415=ORIENTED_EDGE('',*,*,#276,.T.);
#416=ORIENTED_EDGE('',*,*,#279,.F.);
#417=ORIENTED_EDGE('',*,*,#282,.F.);
#418=ORIENTED_EDGE('',*,*,#285,.F.);
#419=ORIENTED_EDGE('',*,*,#288,.F.);
#420=ORIENTED_EDGE('',*,*,#291,.T.);
#421=ORIENTED_EDGE('',*,*,#294,.F.);
#422=ORIENTED_EDGE('',*,*,#297,.T.);
#423=ORIENTED_EDGE('',*,*,#251,.T.);
#424=ORIENTED_EDGE('',*,*,#248,.T.);
#425=ORIENTED_EDGE('',*,*,#245,.T.);
#426=ORIENTED_EDGE('',*,*,#242,.T.);
#427=ORIENTED_EDGE('',*,*,#239,.T.);
#428=CYLINDRICAL_SURFACE('',#476,12.25);
#429=CYLINDRICAL_SURFACE('',#479,12.25);
#430=CYLINDRICAL_SURFACE('',#482,12.25);
#431=CYLINDRICAL_SURFACE('',#485,12.25);
#432=CYLINDRICAL_SURFACE('',#488,12.25);
#433=CYLINDRICAL_SURFACE('',#491,10.);
#434=CYLINDRICAL_SURFACE('',#495,10.0000000000001);
#435=CYLINDRICAL_SURFACE('',#501,22.);
#436=CYLINDRICAL_SURFACE('',#505,22.);
#437=CYLINDRICAL_SURFACE('',#511,10.0000000000002);
#438=CYLINDRICAL_SURFACE('',#515,9.99999999999978);
#439=ADVANCED_FACE('',(#37),#428,.F.);
#440=ADVANCED_FACE('',(#38),#429,.F.);
#441=ADVANCED_FACE('',(#39),#430,.F.);
#442=ADVANCED_FACE('',(#40),#431,.F.);
#443=ADVANCED_FACE('',(#41),#432,.F.);
#444=ADVANCED_FACE('',(#42),#433,.F.);
#445=ADVANCED_FACE('',(#43),#25,.T.);
#446=ADVANCED_FACE('',(#44),#434,.F.);
#447=ADVANCED_FACE('',(#45),#26,.T.);
#448=ADVANCED_FACE('',(#46),#27,.T.);
#449=ADVANCED_FACE('',(#47),#28,.T.);
#450=ADVANCED_FACE('',(#48),#435,.T.);
#451=ADVANCED_FACE('',(#49),#29,.T.);
#452=ADVANCED_FACE('',(#50),#436,.T.);
#453=ADVANCED_FACE('',(#51),#30,.T.);
#454=ADVANCED_FACE('',(#52),#31,.T.);
#455=ADVANCED_FACE('',(#53),#32,.T.);
#456=ADVANCED_FACE('',(#54),#437,.F.);
#457=ADVANCED_FACE('',(#55),#33,.T.);
#458=ADVANCED_FACE('',(#56),#438,.F.);
#459=ADVANCED_FACE('',(#57),#34,.T.);
#460=ADVANCED_FACE('',(#58,#15,#16,#17,#18,#19),#35,.T.);
#461=ADVANCED_FACE('',(#59,#20,#21,#22,#23,#24),#36,.F.);
#462=CLOSED_SHELL('',(#439,#440,#441,#442,#443,#444,#445,#446,#447,#448,
#449,#450,#451,#452,#453,#454,#455,#456,#457,#458,#459,#460,#461));
#463=DERIVED_UNIT_ELEMENT(#465,1.);
#464=DERIVED_UNIT_ELEMENT(#788,-3.);
#465=(
MASS_UNIT()
NAMED_UNIT(*)
SI_UNIT(.KILO.,.GRAM.)
);
#466=DERIVED_UNIT((#463,#464));
#467=MEASURE_REPRESENTATION_ITEM('density measure',
POSITIVE_RATIO_MEASURE(7850.),#466);
#468=PROPERTY_DEFINITION_REPRESENTATION(#473,#470);
#469=PROPERTY_DEFINITION_REPRESENTATION(#474,#471);
#470=REPRESENTATION('material name',(#472),#785);
#471=REPRESENTATION('density',(#467),#785);
#472=DESCRIPTIVE_REPRESENTATION_ITEM('Steel','Steel');
#473=PROPERTY_DEFINITION('material property','material name',#795);
#474=PROPERTY_DEFINITION('material property','density of part',#795);
#475=AXIS2_PLACEMENT_3D('',#654,#521,#522);
#476=AXIS2_PLACEMENT_3D('',#655,#523,#524);
#477=AXIS2_PLACEMENT_3D('',#657,#525,#526);
#478=AXIS2_PLACEMENT_3D('',#660,#528,#529);
#479=AXIS2_PLACEMENT_3D('',#661,#530,#531);
#480=AXIS2_PLACEMENT_3D('',#663,#532,#533);
#481=AXIS2_PLACEMENT_3D('',#666,#535,#536);
#482=AXIS2_PLACEMENT_3D('',#667,#537,#538);
#483=AXIS2_PLACEMENT_3D('',#669,#539,#540);
#484=AXIS2_PLACEMENT_3D('',#672,#542,#543);
#485=AXIS2_PLACEMENT_3D('',#673,#544,#545);
#486=AXIS2_PLACEMENT_3D('',#675,#546,#547);
#487=AXIS2_PLACEMENT_3D('',#678,#549,#550);
#488=AXIS2_PLACEMENT_3D('',#679,#551,#552);
#489=AXIS2_PLACEMENT_3D('',#681,#553,#554);
#490=AXIS2_PLACEMENT_3D('',#684,#556,#557);
#491=AXIS2_PLACEMENT_3D('',#685,#558,#559);
#492=AXIS2_PLACEMENT_3D('',#688,#560,#561);
#493=AXIS2_PLACEMENT_3D('',#692,#563,#564);
#494=AXIS2_PLACEMENT_3D('',#694,#566,#567);
#495=AXIS2_PLACEMENT_3D('',#700,#571,#572);
#496=AXIS2_PLACEMENT_3D('',#702,#573,#574);
#497=AXIS2_PLACEMENT_3D('',#704,#575,#576);
#498=AXIS2_PLACEMENT_3D('',#706,#578,#579);
#499=AXIS2_PLACEMENT_3D('',#712,#583,#584);
#500=AXIS2_PLACEMENT_3D('',#718,#588,#589);
#501=AXIS2_PLACEMENT_3D('',#724,#593,#594);
#502=AXIS2_PLACEMENT_3D('',#726,#595,#596);
#503=AXIS2_PLACEMENT_3D('',#728,#597,#598);
#504=AXIS2_PLACEMENT_3D('',#730,#600,#601);
#505=AXIS2_PLACEMENT_3D('',#736,#605,#606);
#506=AXIS2_PLACEMENT_3D('',#738,#607,#608);
#507=AXIS2_PLACEMENT_3D('',#740,#609,#610);
#508=AXIS2_PLACEMENT_3D('',#742,#612,#613);
#509=AXIS2_PLACEMENT_3D('',#748,#617,#618);
#510=AXIS2_PLACEMENT_3D('',#754,#622,#623);
#511=AXIS2_PLACEMENT_3D('',#760,#627,#628);
#512=AXIS2_PLACEMENT_3D('',#762,#629,#630);
#513=AXIS2_PLACEMENT_3D('',#764,#631,#632);
#514=AXIS2_PLACEMENT_3D('',#766,#634,#635);
#515=AXIS2_PLACEMENT_3D('',#772,#639,#640);
#516=AXIS2_PLACEMENT_3D('',#774,#641,#642);
#517=AXIS2_PLACEMENT_3D('',#776,#643,#644);
#518=AXIS2_PLACEMENT_3D('',#778,#646,#647);
#519=AXIS2_PLACEMENT_3D('',#781,#650,#651);
#520=AXIS2_PLACEMENT_3D('',#782,#652,#653);
#521=DIRECTION('axis',(0.,0.,1.));
#522=DIRECTION('refdir',(1.,0.,0.));
#523=DIRECTION('center_axis',(1.,0.,0.));
#524=DIRECTION('ref_axis',(0.,1.,0.));
#525=DIRECTION('center_axis',(1.,0.,0.));
#526=DIRECTION('ref_axis',(0.,1.,0.));
#527=DIRECTION('',(1.,0.,0.));
#528=DIRECTION('center_axis',(-1.,0.,0.));
#529=DIRECTION('ref_axis',(0.,1.,0.));
#530=DIRECTION('center_axis',(1.,0.,0.));
#531=DIRECTION('ref_axis',(0.,1.,0.));
#532=DIRECTION('center_axis',(1.,0.,0.));
#533=DIRECTION('ref_axis',(0.,1.,0.));
#534=DIRECTION('',(1.,0.,0.));
#535=DIRECTION('center_axis',(-1.,0.,0.));
#536=DIRECTION('ref_axis',(0.,1.,0.));
#537=DIRECTION('center_axis',(1.,0.,0.));
#538=DIRECTION('ref_axis',(0.,1.,0.));
#539=DIRECTION('center_axis',(1.,0.,0.));
#540=DIRECTION('ref_axis',(0.,1.,0.));
#541=DIRECTION('',(1.,0.,0.));
#542=DIRECTION('center_axis',(-1.,0.,0.));
#543=DIRECTION('ref_axis',(0.,1.,0.));
#544=DIRECTION('center_axis',(1.,0.,0.));
#545=DIRECTION('ref_axis',(0.,1.,0.));
#546=DIRECTION('center_axis',(1.,0.,0.));
#547=DIRECTION('ref_axis',(0.,1.,0.));
#548=DIRECTION('',(1.,0.,0.));
#549=DIRECTION('center_axis',(-1.,0.,0.));
#550=DIRECTION('ref_axis',(0.,1.,0.));
#551=DIRECTION('center_axis',(1.,0.,0.));
#552=DIRECTION('ref_axis',(0.,1.,0.));
#553=DIRECTION('center_axis',(1.,0.,0.));
#554=DIRECTION('ref_axis',(0.,1.,0.));
#555=DIRECTION('',(1.,0.,0.));
#556=DIRECTION('center_axis',(-1.,0.,0.));
#557=DIRECTION('ref_axis',(0.,1.,0.));
#558=DIRECTION('center_axis',(1.,0.,0.));
#559=DIRECTION('ref_axis',(0.,0.,1.));
#560=DIRECTION('center_axis',(1.,0.,0.));
#561=DIRECTION('ref_axis',(0.,0.,1.));
#562=DIRECTION('',(1.,0.,0.));
#563=DIRECTION('center_axis',(-1.,0.,0.));
#564=DIRECTION('ref_axis',(0.,0.,1.));
#565=DIRECTION('',(1.,0.,0.));
#566=DIRECTION('center_axis',(0.,0.707106781186547,-0.707106781186548));
#567=DIRECTION('ref_axis',(0.,0.707106781186548,0.707106781186547));
#568=DIRECTION('',(0.,0.707106781186548,0.707106781186547));
#569=DIRECTION('',(0.,0.707106781186548,0.707106781186547));
#570=DIRECTION('',(1.,0.,0.));
#571=DIRECTION('center_axis',(1.,0.,0.));
#572=DIRECTION('ref_axis',(0.,-0.707106781186547,0.707106781186548));
#573=DIRECTION('center_axis',(1.,0.,0.));
#574=DIRECTION('ref_axis',(0.,-0.707106781186547,0.707106781186548));
#575=DIRECTION('center_axis',(-1.,0.,0.));
#576=DIRECTION('ref_axis',(0.,-0.707106781186547,0.707106781186548));
#577=DIRECTION('',(1.,0.,0.));
#578=DIRECTION('center_axis',(0.,1.,0.));
#579=DIRECTION('ref_axis',(0.,0.,1.));
#580=DIRECTION('',(0.,0.,1.));
#581=DIRECTION('',(0.,0.,1.));
#582=DIRECTION('',(1.,0.,0.));
#583=DIRECTION('center_axis',(0.,-3.39762955310926E-34,-1.));
#584=DIRECTION('ref_axis',(0.,1.,-3.39762955310926E-34));
#585=DIRECTION('',(0.,1.,-3.39762955310926E-34));
#586=DIRECTION('',(0.,1.,-3.39762955310926E-34));
#587=DIRECTION('',(1.,0.,0.));
#588=DIRECTION('center_axis',(0.,-1.,0.));
#589=DIRECTION('ref_axis',(0.,0.,-1.));
#590=DIRECTION('',(0.,0.,1.));
#591=DIRECTION('',(0.,0.,-1.));
#592=DIRECTION('',(1.,0.,0.));
#593=DIRECTION('center_axis',(1.,0.,0.));
#594=DIRECTION('ref_axis',(0.,0.,1.));
#595=DIRECTION('center_axis',(1.,0.,0.));
#596=DIRECTION('ref_axis',(0.,0.,1.));
#597=DIRECTION('center_axis',(1.,0.,0.));
#598=DIRECTION('ref_axis',(0.,0.,1.));
#599=DIRECTION('',(1.,0.,0.));
#600=DIRECTION('center_axis',(0.,0.,1.));
#601=DIRECTION('ref_axis',(0.,-1.,0.));
#602=DIRECTION('',(0.,1.,0.));
#603=DIRECTION('',(0.,-1.,0.));
#604=DIRECTION('',(1.,0.,0.));
#605=DIRECTION('center_axis',(1.,0.,0.));
#606=DIRECTION('ref_axis',(0.,1.,-4.03717463500056E-16));
#607=DIRECTION('center_axis',(1.,0.,0.));
#608=DIRECTION('ref_axis',(0.,1.,-4.03717463500056E-16));
#609=DIRECTION('center_axis',(1.,0.,0.));
#610=DIRECTION('ref_axis',(0.,1.,-4.03717463500056E-16));
#611=DIRECTION('',(1.,0.,0.));
#612=DIRECTION('center_axis',(0.,1.,0.));
#613=DIRECTION('ref_axis',(0.,0.,1.));
#614=DIRECTION('',(0.,0.,1.));
#615=DIRECTION('',(0.,0.,1.));
#616=DIRECTION('',(1.,0.,0.));
#617=DIRECTION('center_axis',(0.,3.06161699786839E-16,-1.));
#618=DIRECTION('ref_axis',(0.,1.,3.06161699786839E-16));
#619=DIRECTION('',(0.,1.,3.06161699786839E-16));
#620=DIRECTION('',(0.,1.,3.06161699786839E-16));
#621=DIRECTION('',(1.,0.,0.));
#622=DIRECTION('center_axis',(0.,-1.,0.));
#623=DIRECTION('ref_axis',(0.,0.,-1.));
#624=DIRECTION('',(0.,0.,-1.));
#625=DIRECTION('',(0.,0.,-1.));
#626=DIRECTION('',(1.,0.,0.));
#627=DIRECTION('center_axis',(1.,0.,0.));
#628=DIRECTION('ref_axis',(0.,1.,0.));
#629=DIRECTION('center_axis',(1.,0.,0.));
#630=DIRECTION('ref_axis',(0.,1.,0.));
#631=DIRECTION('center_axis',(-1.,0.,0.));
#632=DIRECTION('ref_axis',(0.,1.,0.));
#633=DIRECTION('',(1.,0.,0.));
#634=DIRECTION('center_axis',(0.,-0.707106781186548,-0.707106781186547));
#635=DIRECTION('ref_axis',(0.,0.707106781186547,-0.707106781186548));
#636=DIRECTION('',(0.,0.707106781186547,-0.707106781186548));
#637=DIRECTION('',(0.,0.707106781186547,-0.707106781186548));
#638=DIRECTION('',(1.,0.,0.));
#639=DIRECTION('center_axis',(1.,0.,0.));
#640=DIRECTION('ref_axis',(0.,0.707106781186547,0.707106781186547));
#641=DIRECTION('center_axis',(1.,0.,0.));
#642=DIRECTION('ref_axis',(0.,0.707106781186547,0.707106781186547));
#643=DIRECTION('center_axis',(-1.,0.,0.));
#644=DIRECTION('ref_axis',(0.,0.707106781186547,0.707106781186547));
#645=DIRECTION('',(1.,0.,0.));
#646=DIRECTION('center_axis',(0.,1.25308442404912E-16,-1.));
#647=DIRECTION('ref_axis',(0.,1.,1.25308442404912E-16));
#648=DIRECTION('',(0.,1.,1.25308442404912E-16));
#649=DIRECTION('',(0.,1.,1.25308442404912E-16));
#650=DIRECTION('center_axis',(1.,0.,0.));
#651=DIRECTION('ref_axis',(0.,1.,0.));
#652=DIRECTION('center_axis',(1.,0.,0.));
#653=DIRECTION('ref_axis',(0.,1.,0.));
#654=CARTESIAN_POINT('',(0.,0.,0.));
#655=CARTESIAN_POINT('Origin',(0.,198.,80.));
#656=CARTESIAN_POINT('',(0.,185.75,80.));
#657=CARTESIAN_POINT('Origin',(0.,198.,80.));
#658=CARTESIAN_POINT('',(25.,185.75,80.));
#659=CARTESIAN_POINT('',(0.,185.75,80.));
#660=CARTESIAN_POINT('Origin',(25.,198.,80.));
#661=CARTESIAN_POINT('Origin',(0.,154.,80.));
#662=CARTESIAN_POINT('',(0.,141.75,80.));
#663=CARTESIAN_POINT('Origin',(0.,154.,80.));
#664=CARTESIAN_POINT('',(25.,141.75,80.));
#665=CARTESIAN_POINT('',(0.,141.75,80.));
#666=CARTESIAN_POINT('Origin',(25.,154.,80.));
#667=CARTESIAN_POINT('Origin',(0.,110.,80.));
#668=CARTESIAN_POINT('',(0.,97.75,80.));
#669=CARTESIAN_POINT('Origin',(0.,110.,80.));
#670=CARTESIAN_POINT('',(25.,97.75,80.));
#671=CARTESIAN_POINT('',(0.,97.75,80.));
#672=CARTESIAN_POINT('Origin',(25.,110.,80.));
#673=CARTESIAN_POINT('Origin',(0.,66.,80.));
#674=CARTESIAN_POINT('',(0.,53.75,80.));
#675=CARTESIAN_POINT('Origin',(0.,66.,80.));
#676=CARTESIAN_POINT('',(25.,53.75,80.));
#677=CARTESIAN_POINT('',(0.,53.75,80.));
#678=CARTESIAN_POINT('Origin',(25.,66.,80.));
#679=CARTESIAN_POINT('Origin',(0.,22.,80.));
#680=CARTESIAN_POINT('',(0.,9.75000000000001,80.));
#681=CARTESIAN_POINT('Origin',(0.,22.,80.));
#682=CARTESIAN_POINT('',(25.,9.75000000000001,80.));
#683=CARTESIAN_POINT('',(0.,9.75000000000001,80.));
#684=CARTESIAN_POINT('Origin',(25.,22.,80.));
#685=CARTESIAN_POINT('Origin',(0.,39.9569768832697,55.));
#686=CARTESIAN_POINT('',(0.,39.9569768832697,65.));
#687=CARTESIAN_POINT('',(0.,32.8859090714042,62.0710678118655));
#688=CARTESIAN_POINT('Origin',(0.,39.9569768832697,55.));
#689=CARTESIAN_POINT('',(25.,39.9569768832697,65.));
#690=CARTESIAN_POINT('',(0.,39.9569768832697,65.));
#691=CARTESIAN_POINT('',(25.,32.8859090714042,62.0710678118655));
#692=CARTESIAN_POINT('Origin',(25.,39.9569768832697,55.));
#693=CARTESIAN_POINT('',(0.,32.8859090714042,62.0710678118655));
#694=CARTESIAN_POINT('Origin',(0.,22.9289321881346,52.1140909285959));
#695=CARTESIAN_POINT('',(0.,22.9289321881346,52.1140909285959));
#696=CARTESIAN_POINT('',(0.,22.9289321881346,52.1140909285959));
#697=CARTESIAN_POINT('',(25.,22.9289321881346,52.1140909285959));
#698=CARTESIAN_POINT('',(25.,22.9289321881346,52.1140909285959));
#699=CARTESIAN_POINT('',(0.,22.9289321881346,52.1140909285959));
#700=CARTESIAN_POINT('Origin',(0.,30.0000000000001,45.0430231167303));
#701=CARTESIAN_POINT('',(0.,20.,45.0430231167303));
#702=CARTESIAN_POINT('Origin',(0.,30.0000000000001,45.0430231167303));
#703=CARTESIAN_POINT('',(25.,20.,45.0430231167303));
#704=CARTESIAN_POINT('Origin',(25.,30.0000000000001,45.0430231167303));
#705=CARTESIAN_POINT('',(0.,20.,45.0430231167303));
#706=CARTESIAN_POINT('Origin',(0.,20.,-6.79525910621852E-33));
#707=CARTESIAN_POINT('',(0.,20.,-6.79525910621852E-33));
#708=CARTESIAN_POINT('',(0.,20.,-6.79525910621852E-33));
#709=CARTESIAN_POINT('',(25.,20.,0.));
#710=CARTESIAN_POINT('',(25.,20.,-6.79525910621852E-33));
#711=CARTESIAN_POINT('',(0.,20.,-6.79525910621852E-33));
#712=CARTESIAN_POINT('Origin',(0.,0.,0.));
#713=CARTESIAN_POINT('',(0.,0.,0.));
#714=CARTESIAN_POINT('',(0.,0.,0.));
#715=CARTESIAN_POINT('',(25.,0.,0.));
#716=CARTESIAN_POINT('',(25.,0.,0.));
#717=CARTESIAN_POINT('',(0.,0.,0.));
#718=CARTESIAN_POINT('Origin',(0.,0.,71.));
#719=CARTESIAN_POINT('',(0.,-1.77635683940025E-14,71.));
#720=CARTESIAN_POINT('',(0.,0.,0.));
#721=CARTESIAN_POINT('',(25.,-1.77635683940025E-14,71.));
#722=CARTESIAN_POINT('',(25.,0.,0.));
#723=CARTESIAN_POINT('',(0.,-1.77635683940025E-14,71.));
#724=CARTESIAN_POINT('Origin',(0.,22.,71.));
#725=CARTESIAN_POINT('',(0.,22.,93.));
#726=CARTESIAN_POINT('Origin',(0.,22.,71.));
#727=CARTESIAN_POINT('',(25.,22.,93.));
#728=CARTESIAN_POINT('Origin',(25.,22.,71.));
#729=CARTESIAN_POINT('',(0.,22.,93.));
#730=CARTESIAN_POINT('Origin',(0.,198.,93.));
#731=CARTESIAN_POINT('',(0.,198.,93.));
#732=CARTESIAN_POINT('',(0.,22.,93.));
#733=CARTESIAN_POINT('',(25.,198.,93.));
#734=CARTESIAN_POINT('',(25.,22.,93.));
#735=CARTESIAN_POINT('',(0.,198.,93.));
#736=CARTESIAN_POINT('Origin',(0.,198.,71.));
#737=CARTESIAN_POINT('',(0.,220.,71.));
#738=CARTESIAN_POINT('Origin',(0.,198.,71.));
#739=CARTESIAN_POINT('',(25.,220.,71.));
#740=CARTESIAN_POINT('Origin',(25.,198.,71.));
#741=CARTESIAN_POINT('',(0.,220.,71.));
#742=CARTESIAN_POINT('Origin',(0.,220.,3.57835434135854E-14));
#743=CARTESIAN_POINT('',(0.,220.,3.57835434135854E-14));
#744=CARTESIAN_POINT('',(0.,220.,3.57835434135854E-14));
#745=CARTESIAN_POINT('',(25.,220.,3.5527136788005E-14));
#746=CARTESIAN_POINT('',(25.,220.,3.57835434135854E-14));
#747=CARTESIAN_POINT('',(0.,220.,3.57835434135854E-14));
#748=CARTESIAN_POINT('Origin',(0.,200.,2.96603094178487E-14));
#749=CARTESIAN_POINT('',(0.,200.,2.96603094178487E-14));
#750=CARTESIAN_POINT('',(0.,200.,2.96603094178487E-14));
#751=CARTESIAN_POINT('',(25.,200.,2.66453525910038E-14));
#752=CARTESIAN_POINT('',(25.,200.,2.96603094178487E-14));
#753=CARTESIAN_POINT('',(0.,200.,2.96603094178487E-14));
#754=CARTESIAN_POINT('Origin',(0.,200.,46.7157287525379));
#755=CARTESIAN_POINT('',(0.,200.,46.7157287525379));
#756=CARTESIAN_POINT('',(0.,200.,46.7157287525379));
#757=CARTESIAN_POINT('',(25.,200.,46.7157287525379));
#758=CARTESIAN_POINT('',(25.,200.,46.7157287525379));
#759=CARTESIAN_POINT('',(0.,200.,46.7157287525379));
#760=CARTESIAN_POINT('Origin',(0.,190.,46.7157287525379));
#761=CARTESIAN_POINT('',(0.,197.071067811866,53.7867965644035));
#762=CARTESIAN_POINT('Origin',(0.,190.,46.7157287525379));
#763=CARTESIAN_POINT('',(25.,197.071067811866,53.7867965644035));
#764=CARTESIAN_POINT('Origin',(25.,190.,46.7157287525379));
#765=CARTESIAN_POINT('',(0.,197.071067811866,53.7867965644035));
#766=CARTESIAN_POINT('Origin',(0.,188.786796564404,62.0710678118656));
#767=CARTESIAN_POINT('',(0.,188.786796564404,62.0710678118656));
#768=CARTESIAN_POINT('',(0.,188.786796564404,62.0710678118656));
#769=CARTESIAN_POINT('',(25.,188.786796564404,62.0710678118656));
#770=CARTESIAN_POINT('',(25.,188.786796564404,62.0710678118656));
#771=CARTESIAN_POINT('',(0.,188.786796564404,62.0710678118656));
#772=CARTESIAN_POINT('Origin',(0.,181.715728752538,55.0000000000002));
#773=CARTESIAN_POINT('',(0.,181.715728752538,65.));
#774=CARTESIAN_POINT('Origin',(0.,181.715728752538,55.0000000000002));
#775=CARTESIAN_POINT('',(25.,181.715728752538,65.));
#776=CARTESIAN_POINT('Origin',(25.,181.715728752538,55.0000000000002));
#777=CARTESIAN_POINT('',(0.,181.715728752538,65.));
#778=CARTESIAN_POINT('Origin',(0.,39.9569768832697,65.));
#779=CARTESIAN_POINT('',(0.,39.9569768832697,65.));
#780=CARTESIAN_POINT('',(25.,39.9569768832697,65.));
#781=CARTESIAN_POINT('Origin',(25.,110.,46.5));
#782=CARTESIAN_POINT('Origin',(0.,110.,46.5));
#783=UNCERTAINTY_MEASURE_WITH_UNIT(LENGTH_MEASURE(0.01),#787,
'DISTANCE_ACCURACY_VALUE',
'Maximum model space distance between geometric entities at asserted c
onnectivities');
#784=UNCERTAINTY_MEASURE_WITH_UNIT(LENGTH_MEASURE(0.01),#787,
'DISTANCE_ACCURACY_VALUE',
'Maximum model space distance between geometric entities at asserted c
onnectivities');
#785=(
GEOMETRIC_REPRESENTATION_CONTEXT(3)
GLOBAL_UNCERTAINTY_ASSIGNED_CONTEXT((#783))
GLOBAL_UNIT_ASSIGNED_CONTEXT((#787,#789,#790))
REPRESENTATION_CONTEXT('','3D')
);
#786=(
GEOMETRIC_REPRESENTATION_CONTEXT(3)
GLOBAL_UNCERTAINTY_ASSIGNED_CONTEXT((#784))
GLOBAL_UNIT_ASSIGNED_CONTEXT((#787,#789,#790))
REPRESENTATION_CONTEXT('','3D')
);
#787=(
LENGTH_UNIT()
NAMED_UNIT(*)
SI_UNIT(.MILLI.,.METRE.)
);
#788=(
LENGTH_UNIT()
NAMED_UNIT(*)
SI_UNIT($,.METRE.)
);
#789=(
NAMED_UNIT(*)
PLANE_ANGLE_UNIT()
SI_UNIT($,.RADIAN.)
);
#790=(
NAMED_UNIT(*)
SI_UNIT($,.STERADIAN.)
SOLID_ANGLE_UNIT()
);
#791=SHAPE_DEFINITION_REPRESENTATION(#792,#793);
#792=PRODUCT_DEFINITION_SHAPE('',$,#795);
#793=SHAPE_REPRESENTATION('',(#475),#785);
#794=PRODUCT_DEFINITION_CONTEXT('part definition',#799,'design');
#795=PRODUCT_DEFINITION('2026-09-24-15-59-31-283','verticalStand',#796,
#794);
#796=PRODUCT_DEFINITION_FORMATION('',$,#801);
#797=PRODUCT_RELATED_PRODUCT_CATEGORY('verticalStand','verticalStand',(#801));
#798=APPLICATION_PROTOCOL_DEFINITION('international standard',
'automotive_design',2009,#799);
#799=APPLICATION_CONTEXT(
'Core Data for Automotive Mechanical Design Process');
#800=PRODUCT_CONTEXT('part definition',#799,'mechanical');
#801=PRODUCT('2026-09-24-15-59-31-283','verticalStand',$,(#800));
#802=PRESENTATION_STYLE_ASSIGNMENT((#803));
#803=SURFACE_STYLE_USAGE(.BOTH.,#804);
#804=SURFACE_SIDE_STYLE('',(#805));
#805=SURFACE_STYLE_FILL_AREA(#806);
#806=FILL_AREA_STYLE('Steel - Satin',(#807));
#807=FILL_AREA_STYLE_COLOUR('Steel - Satin',#808);
#808=COLOUR_RGB('Steel - Satin',0.627450980392157,0.627450980392157,0.627450980392157);
ENDSEC;
END-ISO-10303-21;
